<svg xmlns="http://www.w3.org/2000/svg" fill="none" width="1598" height="1598"><g style="opacity:.30000001192092896"><g style="opacity:.5"><path d="M1593.62 799.001c0 438.849-355.77 794.619-794.619 794.619v4.38C1240.28 1598 1598 1240.28 1598 799.001h-4.38ZM799.001 1593.62c-438.852 0-794.611-355.77-794.611-794.619H0C0 1240.28 357.726 1598 799.001 1598v-4.38ZM4.39 799.001C4.39 360.149 360.149 4.39 799 4.39V0C357.726 0 0 357.726 0 799.001h4.39ZM799 4.39C1237.85 4.39 1593.62 360.149 1593.62 799h4.38C1598 357.726 1240.28 0 799.001 0v4.39Z" fill="#6E66FA" style="opacity:.30000001192092896"/><path d="M1590.406 793.45c0 430.704-349.15 779.854-779.854 779.854v4.47c433.174 0 784.324-351.15 784.324-784.324h-4.47Zm-779.854 779.854c-430.703 0-779.856-349.15-779.856-779.854h-4.47c0 433.174 351.155 784.324 784.326 784.324v-4.47ZM30.696 793.45c0-430.703 349.153-779.856 779.856-779.856v-4.47c-433.17 0-784.326 351.155-784.326 784.326h4.47ZM810.552 13.594c430.704 0 779.854 349.153 779.854 779.856h4.47c0-433.17-351.15-784.326-784.324-784.326v4.47Z" fill="#6E66FA" style="opacity:.33000001311302185"/><path d="M1587.23 787.882c0 422.549-342.55 765.099-765.1 765.099v4.55c425.07 0 769.65-344.58 769.65-769.65h-4.55Zm-765.1 765.099c-422.554 0-765.102-342.55-765.102-765.1H52.48c0 425.07 344.585 769.65 769.651 769.65v-4.55ZM57.028 787.88c0-422.553 342.548-765.1 765.102-765.1v-4.55c-425.066 0-769.65 344.585-769.65 769.65h4.548Zm765.102-765.1c422.55 0 765.1 342.547 765.1 765.1h4.55c0-425.065-344.58-769.65-769.65-769.65v4.55Z" fill="#6E66FA" style="opacity:.3700000047683716"/><path d="M1584.016 782.33c0 414.391-335.94 750.331-750.33 750.331v4.63c416.95 0 754.96-338.01 754.96-754.96h-4.63Zm-750.33 750.331c-414.397 0-750.33-335.94-750.33-750.33h-4.63c0 416.95 338.007 754.96 754.96 754.96v-4.63Zm-750.33-750.33C83.356 367.933 419.289 32 833.686 32v-4.63c-416.953 0-754.96 338.007-754.96 754.96h4.63ZM833.686 32c414.39 0 750.33 335.933 750.33 750.33h4.63c0-416.953-338.01-754.96-754.96-754.96v4.63Z" fill="#6E66FA" style="opacity:.4000000059604645"/><path d="M1580.813 776.763c0 406.246-329.33 735.576-735.576 735.576v4.7c408.846 0 740.276-331.43 740.276-740.276h-4.7Zm-735.576 735.576c-406.248 0-735.575-329.33-735.575-735.576h-4.71c0 408.846 331.437 740.276 740.285 740.276v-4.7ZM109.662 776.763c0-406.248 329.327-735.575 735.575-735.575v-4.71c-408.848 0-740.284 331.437-740.284 740.285h4.709ZM845.237 41.188c406.246 0 735.576 329.327 735.576 735.575h4.7c0-408.848-331.43-740.284-740.276-740.284v4.709Z" fill="#6E66FA" style="opacity:.4300000071525574"/><path d="M1577.601 771.193c0 398.089-322.72 720.809-720.809 720.809v4.81c400.75 0 725.62-324.87 725.62-725.619h-4.81Zm-720.809 720.809c-398.09 0-720.805-322.72-720.805-720.809h-4.816c0 400.749 324.871 725.619 725.621 725.619v-4.81ZM135.987 771.193c0-398.091 322.714-720.806 720.805-720.806v-4.815c-400.75 0-725.62 324.871-725.62 725.621h4.815ZM856.792 50.387c398.09 0 720.81 322.715 720.81 720.806h4.81c0-400.75-324.87-725.621-725.62-725.621v4.815Z" fill="#6E66FA" style="opacity:.4699999988079071"/><path d="M1574.388 765.641c0 389.945-316.1 706.045-706.045 706.045v4.9c392.645 0 710.945-318.3 710.945-710.945h-4.9Zm-706.045 706.045c-389.941 0-706.05-316.1-706.05-706.045h-4.895c0 392.645 318.3 710.945 710.945 710.945v-4.9Zm-706.05-706.045c0-389.94 316.109-706.05 706.05-706.05v-4.895c-392.644 0-710.945 318.301-710.945 710.945h4.895Zm706.05-706.05c389.945 0 706.045 316.11 706.045 706.05h4.9c0-392.644-318.3-710.945-710.945-710.945v4.895Z" fill="#6E66FA" style="opacity:.5"/><path d="M1571.2 760.073c0 381.79-309.5 691.29-691.29 691.29v4.97c384.54 0 696.28-311.72 696.28-696.26h-4.99Zm-691.29 691.29c-381.792 0-691.295-309.5-691.295-691.29h-4.975c0 384.54 311.73 696.26 696.27 696.26v-4.97Zm-691.295-691.29c0-381.792 309.503-691.295 691.295-691.295v-4.975c-384.54 0-696.27 311.73-696.27 696.27h4.975ZM879.91 68.778c381.79 0 691.29 309.503 691.29 691.295h4.99c0-384.54-311.74-696.27-696.28-696.27v4.975Z" fill="#6E66FA" style="opacity:.5299999713897705"/><path d="M1567.987 754.521c0 373.632-302.89 676.522-676.522 676.522v5.05c376.422 0 681.572-305.15 681.572-681.572h-5.05Zm-676.522 676.522c-373.634 0-676.523-302.89-676.523-676.522h-5.055c0 376.422 305.152 681.572 681.578 681.572v-5.05ZM214.942 754.521c0-373.634 302.89-676.523 676.523-676.523v-5.055c-376.426 0-681.578 305.152-681.578 681.578h5.055ZM891.465 77.998c373.632 0 676.522 302.89 676.522 676.523h5.05c0-376.426-305.15-681.578-681.572-681.578v5.055Z" fill="#6E66FA" style="opacity:.5699999928474426"/><path d="M1564.8 748.953c0 365.488-296.28 661.768-661.768 661.768v5.13c368.318 0 666.898-298.58 666.898-666.898h-5.13Zm-661.768 661.768c-365.484 0-661.768-296.28-661.768-661.768h-5.134c0 368.318 298.582 666.898 666.902 666.898v-5.13ZM241.264 748.953c0-365.484 296.284-661.767 661.768-661.767V82.05c-368.32 0-666.902 298.582-666.902 666.902h5.134ZM903.032 87.186c365.488 0 661.768 296.283 661.768 661.767h5.13c0-368.32-298.58-666.902-666.898-666.902v5.135Z" fill="#6E66FA" style="opacity:.6000000238418579"/><path d="M1561.593 743.401c0 357.33-289.67 647-647 647v5.24c360.22 0 652.24-292.02 652.24-652.24h-5.24Zm-647 647c-357.328 0-646.999-289.67-646.999-647h-5.24c0 360.22 292.017 652.24 652.24 652.24v-5.24Zm-646.999-647c0-357.328 289.671-646.999 647-646.999v-5.241c-360.223 0-652.24 292.018-652.24 652.24h5.24Zm647-646.999c357.33 0 647 289.671 647 646.999h5.24c0-360.222-292.02-652.24-652.24-652.24v5.241Z" fill="#6E66FA" style="opacity:.6299999952316284"/><path d="M1558.384 737.833c0 349.178-283.067 632.245-632.245 632.245v5.32c352.116 0 637.565-285.449 637.565-637.565h-5.32ZM926.14 1370.078c-349.179 0-632.244-283.067-632.244-632.245h-5.32c0 352.116 285.447 637.565 637.564 637.565v-5.32ZM293.895 737.833c0-349.179 283.065-632.244 632.244-632.244v-5.32c-352.117 0-637.565 285.447-637.565 637.564h5.321ZM926.14 105.59c349.178 0 632.245 283.065 632.245 632.244h5.32c0-352.117-285.449-637.565-637.565-637.565v5.321Z" fill="#6E66FA" style="opacity:.6700000166893005"/><path d="M1555.186 732.264c0 341.03-276.462 617.492-617.492 617.492v5.4c344.013 0 622.892-278.88 622.892-622.892h-5.4Zm-617.492 617.492c-341.029 0-617.487-276.462-617.487-617.492h-5.401c0 344.013 278.877 622.892 622.888 622.892v-5.4ZM320.207 732.264c0-341.03 276.458-617.488 617.487-617.488v-5.4c-344.011 0-622.888 278.877-622.888 622.888h5.4Zm617.487-617.488c341.03 0 617.492 276.459 617.492 617.488h5.4c0-344.011-278.879-622.888-622.892-622.888v5.4Z" fill="#6E66FA" style="opacity:.699999988079071"/><path d="M1551.958 726.711c0 332.871-269.843 602.714-602.714 602.714v5.48c335.9 0 608.194-272.295 608.194-608.194h-5.48Zm-602.714 602.714c-332.87 0-602.715-269.843-602.715-602.714h-5.48c0 335.9 272.298 608.194 608.195 608.194v-5.48ZM346.53 726.711c0-332.87 269.844-602.715 602.715-602.715v-5.48c-335.897 0-608.196 272.298-608.196 608.195h5.48Zm602.715-602.715c332.871 0 602.714 269.844 602.714 602.715h5.48c0-335.897-272.295-608.196-608.194-608.196v5.48Z" fill="#6E66FA" style="opacity:.7300000190734863"/><path d="M1548.752 721.144c0 324.714-263.232 587.946-587.946 587.946v5.59c327.8 0 593.536-265.735 593.536-593.536h-5.59ZM960.806 1309.09c-324.714 0-587.947-263.232-587.947-587.946h-5.587c0 327.8 265.734 593.536 593.534 593.536v-5.59ZM372.859 721.144c0-324.714 263.233-587.947 587.947-587.947v-5.587c-327.8 0-593.534 265.734-593.534 593.534h5.587Zm587.947-587.947c324.714 0 587.946 263.233 587.946 587.947h5.59c0-327.8-265.735-593.534-593.536-593.534v5.587Z" fill="#6E66FA" style="opacity:.7699999809265137"/><path d="M1545.548 715.592c0 316.565-256.626 573.191-573.19 573.191v5.67c319.694 0 578.86-259.166 578.86-578.86h-5.67Zm-573.19 573.191c-316.567 0-573.193-256.626-573.193-573.19h-5.667c0 319.694 259.163 578.86 578.86 578.86v-5.67Zm-573.193-573.19c0-316.567 256.626-573.193 573.192-573.193v-5.667c-319.696 0-578.859 259.163-578.859 578.86h5.667ZM972.357 142.4c316.565 0 573.191 256.626 573.191 573.192h5.67c0-319.696-259.166-578.859-578.86-578.859v5.667Z" fill="#6E66FA" style="opacity:.800000011920929"/><path d="M1542.37 710.024c0 308.416-250.02 558.437-558.436 558.437v5.75c311.59 0 564.187-252.597 564.187-564.187h-5.75ZM983.935 1268.46c-308.416 0-558.436-250.021-558.436-558.437h-5.747c0 311.59 252.593 564.187 564.183 564.187v-5.75ZM425.498 710.024c0-308.416 250.02-558.437 558.436-558.437v-5.746c-311.59 0-564.183 252.593-564.183 564.183h5.747Zm558.436-558.437c308.416 0 558.437 250.02 558.437 558.437h5.75c0-311.59-252.597-564.183-564.187-564.183v5.746Z" fill="#6E66FA" style="opacity:.8299999833106995"/><path d="M1539.167 704.456c0 300.267-243.415 543.682-543.682 543.682v5.82c303.485 0 549.502-246.017 549.502-549.502h-5.82Zm-543.682 543.682c-300.267 0-543.681-243.415-543.681-543.682h-5.827c0 303.485 246.023 549.502 549.508 549.502v-5.82ZM451.804 704.456c0-300.267 243.414-543.682 543.681-543.682v-5.826c-303.485 0-549.508 246.023-549.508 549.508h5.827Zm543.681-543.682c300.267 0 543.682 243.415 543.682 543.682h5.82c0-303.485-246.017-549.508-549.502-549.508v5.826Z" fill="#6E66FA" style="opacity:.8700000047683716"/><path d="M1535.964 698.904c0 292.117-236.81 528.927-528.927 528.927v5.9c295.379 0 534.827-239.448 534.827-534.827h-5.9Zm-528.927 528.927c-292.118 0-528.927-236.81-528.927-528.927h-5.906c0 295.38 239.452 534.827 534.833 534.827v-5.9ZM478.11 698.904c0-292.118 236.809-528.926 528.927-528.926v-5.907c-295.381 0-534.833 239.452-534.833 534.833h5.906Zm528.927-528.926c292.117 0 528.927 236.808 528.927 528.926h5.9c0-295.38-239.448-534.833-534.827-534.833v5.907Z" fill="#6E66FA" style="opacity:.8999999761581421"/><path d="M1532.733 693.336c0 283.952-230.184 514.136-514.136 514.136v6.02c287.271 0 520.156-232.885 520.156-520.156h-6.02Zm-514.136 514.136c-283.952 0-514.141-230.184-514.141-514.136h-6.013c0 287.27 232.881 520.156 520.154 520.156v-6.02ZM504.456 693.336c0-283.952 230.19-514.142 514.141-514.142v-6.012c-287.273 0-520.154 232.88-520.154 520.154h6.013Zm514.141-514.142c283.952 0 514.136 230.19 514.136 514.142h6.02c0-287.273-232.885-520.154-520.156-520.154v6.012Z" fill="#6E66FA" style="opacity:.9300000071525574"/><path d="M1529.53 687.783c0 275.803-223.58 499.383-499.383 499.383v6.1c279.169 0 505.483-226.314 505.483-505.483h-6.1Zm-499.383 499.383c-275.803 0-499.385-223.58-499.385-499.383h-6.092c0 279.169 226.31 505.483 505.477 505.483v-6.1ZM530.762 687.783c0-275.803 223.582-499.385 499.385-499.385v-6.092c-279.167 0-505.477 226.31-505.477 505.477h6.092Zm499.385-499.385c275.803 0 499.383 223.582 499.383 499.385h6.1c0-279.167-226.314-505.477-505.483-505.477v6.092Z" fill="#6E66FA" style="opacity:.9700000286102295"/><path d="M1526.344 682.215c0 267.654-216.976 484.63-484.63 484.63v6.173c271.063 0 490.803-219.74 490.803-490.803h-6.173Zm-484.63 484.63c-267.654 0-484.63-216.976-484.63-484.63h-6.172c0 271.063 219.74 490.803 490.802 490.803v-6.173Zm-484.63-484.63c0-267.654 216.976-484.63 484.63-484.63v-6.172c-271.062 0-490.802 219.74-490.802 490.802h6.172Zm484.63-484.63c267.654 0 484.63 216.976 484.63 484.63h6.173c0-271.062-219.74-490.802-490.803-490.802v6.172Z" fill="#6E66FA" style="opacity:.5"/><path d="M850.978 726.143c0 40.216-32.601 72.817-72.817 72.817v3.193c41.979 0 76.01-34.031 76.01-76.01h-3.193ZM778.16 798.96c-40.215 0-72.817-32.601-72.817-72.817h-3.192c0 41.979 34.03 76.01 76.01 76.01v-3.193Zm-72.817-72.817c0-40.215 32.602-72.817 72.817-72.817v-3.192c-41.979 0-76.01 34.03-76.01 76.01h3.193Zm72.817-72.817c40.216 0 72.817 32.602 72.817 72.817h3.193c0-41.979-34.031-76.01-76.01-76.01v3.193Z" fill="#6E66FA"/><path d="M883.227 724.053c0 51.086-41.413 92.499-92.499 92.499v3.193c52.85 0 95.692-42.842 95.692-95.692h-3.193Zm-92.499 92.499c-51.086 0-92.499-41.413-92.499-92.499h-3.192c0 52.85 42.842 95.692 95.691 95.692v-3.193Zm-92.499-92.499c0-51.086 41.413-92.499 92.5-92.499v-3.192c-52.85 0-95.692 42.842-95.692 95.691h3.192Zm92.5-92.499c51.085 0 92.498 41.413 92.498 92.5h3.193c0-52.85-42.842-95.692-95.692-95.692v3.192Z" fill="#6E66FA"/><path d="M915.45 721.963c0 61.956-50.225 112.181-112.181 112.181v3.193c63.719 0 115.374-51.655 115.374-115.374h-3.193ZM803.269 834.144c-61.956 0-112.18-50.225-112.18-112.181h-3.193c0 63.719 51.654 115.374 115.373 115.374v-3.193Zm-112.18-112.181c0-61.955 50.224-112.18 112.18-112.18v-3.193c-63.719 0-115.373 51.654-115.373 115.373h3.192Zm112.18-112.18c61.956 0 112.18 50.225 112.18 112.18h3.194c0-63.719-51.655-115.373-115.374-115.373v3.193Z" fill="#6E66FA"/><path d="M947.696 719.873c0 72.833-59.043 131.876-131.876 131.876v3.166c74.582 0 135.042-60.46 135.042-135.042h-3.166ZM815.82 851.749c-72.833 0-131.876-59.043-131.876-131.876h-3.166c0 74.582 60.46 135.042 135.042 135.042v-3.166ZM683.944 719.873c0-72.833 59.043-131.876 131.876-131.876v-3.166c-74.582 0-135.042 60.46-135.042 135.042h3.166ZM815.82 587.997c72.833 0 131.876 59.043 131.876 131.876h3.166c0-74.582-60.46-135.042-135.042-135.042v3.166Z" fill="#6E66FA"/><path d="M979.923 717.782c0 83.704-67.854 151.558-151.558 151.558v3.167c85.453 0 154.725-69.272 154.725-154.725h-3.167ZM828.365 869.34c-83.702 0-151.557-67.854-151.557-151.558h-3.166c0 85.453 69.272 154.725 154.723 154.725v-3.167ZM676.808 717.782c0-83.702 67.855-151.557 151.557-151.557v-3.166c-85.45 0-154.723 69.272-154.723 154.723h3.166Zm151.557-151.557c83.704 0 151.558 67.855 151.558 151.557h3.167c0-85.45-69.272-154.723-154.725-154.723v3.166Z" fill="#6E66FA"/><path d="M1012.167 715.692c0 94.573-76.667 171.24-171.24 171.24v3.166c96.322 0 174.406-78.084 174.406-174.406h-3.166Zm-171.24 171.24c-94.572 0-171.24-76.667-171.24-171.24h-3.165c0 96.322 78.084 174.406 174.405 174.406v-3.166Zm-171.24-171.24c0-94.572 76.668-171.24 171.24-171.24v-3.165c-96.32 0-174.405 78.084-174.405 174.405h3.166Zm171.24-171.24c94.573 0 171.24 76.668 171.24 171.24h3.166c0-96.321-78.084-174.405-174.406-174.405v3.166Z" fill="#6E66FA"/><path d="M1044.384 713.602c0 105.443-85.479 190.922-190.922 190.922v3.166c107.192 0 194.088-86.896 194.088-194.088h-3.166ZM853.462 904.524c-105.442 0-190.92-85.48-190.92-190.922h-3.167c0 107.192 86.896 194.088 194.087 194.088v-3.166Zm-190.92-190.922c0-105.443 85.478-190.922 190.92-190.922v-3.165c-107.19 0-194.087 86.896-194.087 194.087h3.166Zm190.92-190.922c105.443 0 190.922 85.479 190.922 190.922h3.166c0-107.191-86.896-194.087-194.088-194.087v3.165Z" fill="#6E66FA"/><path d="M1076.628 711.496c0 116.313-94.29 210.603-210.603 210.603v3.166c118.061 0 213.77-95.708 213.77-213.769h-3.167ZM866.025 922.1c-116.313 0-210.604-94.29-210.604-210.603h-3.166c0 118.061 95.708 213.77 213.77 213.77v-3.167ZM655.421 711.496c0-116.313 94.29-210.604 210.604-210.604v-3.166c-118.062 0-213.77 95.708-213.77 213.77h3.166Zm210.604-210.604c116.313 0 210.603 94.29 210.603 210.604h3.166c0-118.062-95.708-213.77-213.769-213.77v3.166Z" fill="#6E66FA"/><path d="M1108.846 709.405c0 127.182-103.1 230.283-230.282 230.283v3.139c128.915 0 233.422-104.507 233.422-233.422h-3.14ZM878.564 939.688c-127.18 0-230.281-103.101-230.281-230.283h-3.14c0 128.915 104.506 233.422 233.421 233.422v-3.14ZM648.283 709.405c0-127.181 103.1-230.282 230.281-230.282v-3.14c-128.915 0-233.42 104.507-233.42 233.422h3.139Zm230.281-230.282c127.182 0 230.282 103.1 230.282 230.282h3.14c0-128.915-104.507-233.421-233.422-233.421v3.14Z" fill="#6E66FA"/><path d="M1141.09 707.314c0 138.051-111.913 249.964-249.964 249.964v3.14c139.784 0 253.104-113.32 253.104-253.104h-3.14ZM891.126 957.278c-138.051 0-249.964-111.913-249.964-249.964h-3.14c0 139.784 113.319 253.104 253.104 253.104v-3.14ZM641.162 707.314c0-138.05 111.913-249.963 249.964-249.963v-3.14c-139.785 0-253.103 113.318-253.103 253.103h3.14Zm249.964-249.963c138.05 0 249.964 111.912 249.964 249.963h3.14c0-139.785-113.32-253.103-253.104-253.103v3.14Z" fill="#6E66FA"/><path d="M1173.313 705.224c0 148.921-120.725 269.646-269.646 269.646v3.14c150.655 0 272.785-122.13 272.785-272.786h-3.14ZM903.667 974.87c-148.921 0-269.646-120.725-269.646-269.646h-3.14c0 150.655 122.13 272.785 272.786 272.785v-3.139ZM634.02 705.224c0-148.92 120.725-269.646 269.646-269.646v-3.139c-150.655 0-272.785 122.13-272.785 272.785h3.14Zm269.646-269.646c148.92 0 269.646 120.725 269.646 269.646h3.139c0-150.655-122.13-272.785-272.785-272.785v3.14Z" fill="#6E66FA"/><path d="M1205.54 703.134c0 159.79-129.536 289.328-289.327 289.328v3.139c161.525 0 292.467-130.942 292.467-292.467h-3.14ZM916.214 992.462c-159.791 0-289.328-129.537-289.328-289.328h-3.14c0 161.525 130.943 292.467 292.468 292.467v-3.14ZM626.885 703.134c0-159.791 129.537-289.328 289.328-289.328v-3.14c-161.525 0-292.467 130.943-292.467 292.468h3.14Zm289.328-289.328c159.79 0 289.328 129.537 289.328 289.328h3.139c0-161.525-130.942-292.467-292.467-292.467v3.14Z" fill="#6E66FA"/><path d="M1237.774 701.044c0 170.661-138.349 309.01-309.01 309.01v3.14c172.395 0 312.15-139.755 312.15-312.15h-3.14Zm-309.01 309.01c-170.662 0-309.01-138.349-309.01-309.01h-3.139c0 172.395 139.754 312.15 312.15 312.15v-3.14Zm-309.01-309.01c0-170.662 138.348-309.01 309.01-309.01v-3.139c-172.395 0-312.149 139.754-312.149 312.15h3.14Zm309.01-309.01c170.661 0 309.01 138.348 309.01 309.01h3.14c0-172.395-139.755-312.149-312.15-312.149v3.14Z" fill="#6E66FA"/><path d="M1269.995 698.954c0 181.53-147.16 328.69-328.69 328.69v3.14c183.265 0 331.83-148.565 331.83-331.83h-3.14Zm-328.69 328.69c-181.532 0-328.692-147.16-328.692-328.69h-3.14c0 183.265 148.566 331.83 331.832 331.83v-3.14Zm-328.692-328.69c0-181.532 147.16-328.692 328.692-328.692v-3.14c-183.266 0-331.831 148.566-331.831 331.832h3.14Zm328.692-328.692c181.53 0 328.69 147.16 328.69 328.692h3.14c0-183.266-148.565-331.831-331.83-331.831v3.139Z" fill="#6E66FA"/><path d="M1302.248 696.864c0 192.408-155.978 348.386-348.386 348.386v3.113c194.127 0 351.499-157.372 351.499-351.499h-3.113ZM953.862 1045.25c-192.41 0-348.388-155.978-348.388-348.386h-3.112c0 194.127 157.372 351.5 351.5 351.5v-3.114ZM605.474 696.864c0-192.41 155.978-348.387 348.388-348.387v-3.113c-194.128 0-351.5 157.372-351.5 351.5h3.112Zm348.388-348.387c192.408 0 348.386 155.977 348.386 348.387h3.113c0-194.128-157.372-351.5-351.5-351.5v3.113Z" fill="#6E66FA"/><path d="M1334.476 694.774c0 203.277-164.791 368.068-368.068 368.068v3.112c204.997 0 371.18-166.183 371.18-371.18h-3.112Zm-368.068 368.068c-203.28 0-368.07-164.79-368.07-368.068h-3.112c0 204.997 166.183 371.18 371.182 371.18v-3.112Zm-368.07-368.068c0-203.279 164.79-368.07 368.07-368.07v-3.112c-205 0-371.182 166.183-371.182 371.182h3.113Zm368.07-368.07c203.277 0 368.068 164.791 368.068 368.07h3.112c0-204.999-166.183-371.182-371.18-371.182v3.113Z" fill="#6E66FA"/><path d="M1366.673 692.684c0 214.126-173.583 387.71-387.709 387.71v3.192c215.888 0 390.902-175.014 390.902-390.902h-3.193Zm-387.709 387.71c-214.128 0-387.711-173.584-387.711-387.71h-3.193c0 215.888 175.014 390.902 390.904 390.902v-3.193Zm-387.711-387.71c0-214.128 173.583-387.711 387.711-387.711v-3.193c-215.89 0-390.904 175.014-390.904 390.904h3.193Zm387.711-387.711c214.126 0 387.71 173.583 387.71 387.711h3.192c0-215.89-175.014-390.904-390.902-390.904v3.193Z" fill="#6E66FA"/><path d="M1398.759 690.592c0 224.924-182.337 407.26-407.261 407.26v3.459c226.835 0 410.719-183.884 410.719-410.72h-3.458Zm-407.261 407.26c-224.922 0-407.258-182.336-407.258-407.26h-3.46c0 226.835 183.885 410.719 410.718 410.719v-3.458ZM584.24 690.593c0-224.922 182.336-407.259 407.258-407.259v-3.458c-226.833 0-410.717 183.884-410.717 410.717h3.459Zm407.258-407.259c224.924 0 407.26 182.337 407.26 407.259h3.459c0-226.833-183.884-410.717-410.72-410.717v3.458Z" fill="#6E66FA"/><path d="M1431.006 688.485c0 235.793-191.148 426.94-426.941 426.94v3.46c237.704 0 430.401-192.696 430.401-430.4h-3.46Zm-426.941 426.94c-235.793 0-426.94-191.147-426.94-426.94h-3.459c0 237.704 192.697 430.4 430.399 430.4v-3.46Zm-426.94-426.94c0-235.793 191.147-426.94 426.94-426.94v-3.46c-237.702 0-430.399 192.698-430.399 430.4h3.459Zm426.94-426.94c235.793 0 426.941 191.147 426.941 426.94h3.46c0-237.702-192.697-430.4-430.401-430.4v3.46Z" fill="#6E66FA"/><path d="M1463.097 686.394c0 246.591-199.9 446.491-446.491 446.491v3.724c248.648 0 450.215-201.568 450.215-450.215h-3.724Zm-446.491 446.491c-246.588 0-446.49-199.9-446.49-446.49h-3.724c0 248.646 201.568 450.214 450.214 450.214v-3.724Zm-446.49-446.49c0-246.589 199.902-446.49 446.49-446.49v-3.725c-248.646 0-450.214 201.568-450.214 450.214h3.724Zm446.49-446.49c246.59 0 446.49 199.901 446.49 446.49h3.725c0-248.647-201.567-450.215-450.215-450.215v3.725Z" fill="#6E66FA"/><path d="M1495.196 684.304c0 257.387-208.652 466.04-466.039 466.04v3.99c259.59 0 470.03-210.439 470.03-470.03h-3.99Zm-466.039 466.04c-257.386 0-466.038-208.653-466.038-466.04h-3.99c0 259.591 210.44 470.03 470.028 470.03v-3.99ZM563.12 684.303c0-257.386 208.652-466.038 466.038-466.038v-3.99c-259.589 0-470.029 210.44-470.029 470.028h3.99Zm466.038-466.038c257.387 0 466.04 208.652 466.04 466.038h3.99c0-259.589-210.44-470.029-470.03-470.029v3.991Z" fill="#6E66FA"/><path d="M1526.77 682.215c0 267.888-217.168 485.055-485.056 485.055v5.321c270.827 0 490.376-219.549 490.376-490.376h-5.32Zm-485.056 485.055c-267.889 0-485.056-217.167-485.056-485.055h-5.32c0 270.827 219.548 490.376 490.376 490.376v-5.32ZM556.658 682.215c0-267.889 217.167-485.056 485.056-485.056v-5.32c-270.828 0-490.377 219.548-490.377 490.376h5.321Zm485.056-485.056c267.888 0 485.055 217.167 485.055 485.056h5.321c0-270.828-219.549-490.377-490.376-490.377v5.321Z" fill="#6E66FA"/></g></g></svg>