<svg xmlns="http://www.w3.org/2000/svg" xmlns:xlink="http://www.w3.org/1999/xlink" fill="none" version="1.1" width="876.5020751953125" height="903.3841552734375" viewBox="0 0 876.5020751953125 903.3841552734375"><defs><radialGradient cx="0" cy="0" r="1" gradientUnits="userSpaceOnUse" id="master_svg0_7_11346" gradientTransform="translate(705.8751678466797 351.4087677001953) rotate(90) scale(114.63201904296875 92.82670593261719)"><stop offset="0%" stop-color="#68DFC0" stop-opacity="1"/><stop offset="100%" stop-color="#6E67FA" stop-opacity="0.5"/></radialGradient><radialGradient cx="0" cy="0" r="1" gradientUnits="userSpaceOnUse" id="master_svg1_7_11376" gradientTransform="translate(705.8751678466797 351.40809631347656) rotate(90) scale(155.99432373046875 126.29788208007814)"><stop offset="0%" stop-color="#68DFC0" stop-opacity="1"/><stop offset="100%" stop-color="#6E67FA" stop-opacity="0.5199999809265137"/></radialGradient><radialGradient cx="0" cy="0" r="1" gradientUnits="userSpaceOnUse" id="master_svg2_7_10356" gradientTransform="translate(705.8751602172852 351.4078063964844) rotate(90) scale(199.04441833496094 161.10789489746094)"><stop offset="0%" stop-color="#68DFC0" stop-opacity="1"/><stop offset="100%" stop-color="#6E67FA" stop-opacity="1"/></radialGradient><radialGradient cx="0" cy="0" r="1" gradientUnits="userSpaceOnUse" id="master_svg3_7_10344" gradientTransform="translate(705.8751515888271 351.40731048583984) rotate(90) scale(247.5811004638672 200.3807286762294)"><stop offset="0%" stop-color="#68DFC0" stop-opacity="1"/><stop offset="100%" stop-color="#6E67FA" stop-opacity="1"/></radialGradient><radialGradient cx="0" cy="0" r="1" gradientUnits="userSpaceOnUse" id="master_svg4_7_10341" gradientTransform="translate(705.8751602172852 351.4075813293457) rotate(90) scale(297.3836669921875 240.546142578125)"><stop offset="0%" stop-color="#68DFC0" stop-opacity="1"/><stop offset="100%" stop-color="#6E67FA" stop-opacity="1"/></radialGradient><radialGradient cx="0" cy="0" r="1" gradientUnits="userSpaceOnUse" id="master_svg5_7_10347" gradientTransform="translate(705.8751525878906 351.4072570800781) rotate(90) scale(351.4072570800781 284.28179931640625)"><stop offset="0%" stop-color="#68DFC0" stop-opacity="1"/><stop offset="100%" stop-color="#6E67FA" stop-opacity="1"/></radialGradient></defs><g transform="matrix(0.8001017570495605,0.5998643040657043,-0.5998643040657043,0.8001017570495605,84.27577055855363,-252.8988034589256)"><g><path d="M798.4784619140626,298.35064865722654C798.4784619140626,298.35064865722654,798.7014619140625,298.35064865722654,798.7014619140625,298.35064865722654C798.7014619140625,298.35064865722654,798.7014619140625,298.2257486572266,798.7014619140625,298.2257486572266C798.7014619140625,298.2257486572266,798.5854619140625,298.16584865722655,798.5854619140625,298.16584865722655C798.5854619140625,298.16584865722655,798.4784619140626,298.35064865722654,798.4784619140626,298.35064865722654C798.4784619140626,298.35064865722654,798.4784619140626,298.35064865722654,798.4784619140626,298.35064865722654ZM613.2716029140626,297.57234865722654C613.2716029140626,297.57234865722654,613.1137177140625,297.4234486572266,613.1137177140625,297.4234486572266C613.1137177140625,297.4234486572266,613.0484619140625,297.48504865722657,613.0484619140625,297.48504865722657C613.0484619140625,297.48504865722657,613.0484619140625,297.57234865722654,613.0484619140625,297.57234865722654C613.0484619140625,297.57234865722654,613.2716029140626,297.57234865722654,613.2716029140626,297.57234865722654C613.2716029140626,297.57234865722654,613.2716029140626,297.57234865722654,613.2716029140626,297.57234865722654ZM648.6143619140626,346.8647486572265C648.6143619140626,346.8647486572265,648.8375619140625,346.8647486572265,648.8375619140625,346.8647486572265C648.8375619140625,346.8647486572265,648.8375619140625,346.7397486572265,648.8375619140625,346.7397486572265C648.8375619140625,346.7397486572265,648.7209619140625,346.6797486572266,648.7209619140625,346.6797486572266C648.7209619140625,346.6797486572266,648.6143619140626,346.8647486572265,648.6143619140626,346.8647486572265C648.6143619140626,346.8647486572265,648.6143619140626,346.8647486572265,648.6143619140626,346.8647486572265ZM798.4784619140626,465.68574865722655C798.4784619140626,465.68574865722655,798.3724619140626,465.87074865722656,798.3724619140626,465.87074865722656C798.3724619140626,465.87074865722656,798.7014619140625,466.0407486572266,798.7014619140625,466.0407486572266C798.7014619140625,466.0407486572266,798.7014619140625,465.68574865722655,798.7014619140625,465.68574865722655C798.7014619140625,465.68574865722655,798.4784619140626,465.68574865722655,798.4784619140626,465.68574865722655C798.4784619140626,465.68574865722655,798.4784619140626,465.68574865722655,798.4784619140626,465.68574865722655ZM650.4793619140625,389.5927486572266C650.4793619140625,389.5927486572266,650.5859619140625,389.40774865722653,650.5859619140625,389.40774865722653C650.5859619140625,389.40774865722653,650.5859619140625,389.40774865722653,650.5859619140625,389.40774865722653C650.5859619140625,389.40774865722653,650.4793619140625,389.5927486572266,650.4793619140625,389.5927486572266C650.4793619140625,389.5927486572266,650.4793619140625,389.5927486572266,650.4793619140625,389.5927486572266ZM615.6038219140625,329.90284865722657C615.6038219140625,329.90284865722657,615.4972919140625,330.08854865722657,615.4972919140625,330.08854865722657C615.4972919140625,330.08854865722657,615.6038219140625,329.90284865722657,615.6038219140625,329.90284865722657C615.6038219140625,329.90284865722657,615.6038219140625,329.90284865722657,615.6038219140625,329.90284865722657ZM680.8458619140625,237.45441465722655C680.8458619140625,237.45441465722655,680.9529619140625,237.26930465722657,680.9529619140625,237.26930465722657C680.9529619140625,237.26930465722657,680.8458619140625,237.45441465722655,680.8458619140625,237.45441465722655C680.8458619140625,237.45441465722655,680.8458619140625,237.45441465722655,680.8458619140625,237.45441465722655ZM676.0750619140625,238.10215865722657C676.0750619140625,238.10215865722657,675.9171619140625,237.95302865722655,675.9171619140625,237.95302865722655C675.9171619140625,237.95302865722655,676.0750619140625,238.10215865722657,676.0750619140625,238.10215865722657C676.0750619140625,238.10215865722657,676.0750619140625,238.10215865722657,676.0750619140625,238.10215865722657ZM798.5854619140625,298.16584865722655C798.5854619140625,298.16584865722655,680.9529619140625,237.26930465722657,680.9529619140625,237.26930465722657C680.9529619140625,237.26930465722657,680.7387619140625,237.63952465722656,680.7387619140625,237.63952465722656C680.7387619140625,237.63952465722656,798.3714619140625,298.5359486572266,798.3714619140625,298.5359486572266C798.3714619140625,298.5359486572266,798.5854619140625,298.16584865722655,798.5854619140625,298.16584865722655C798.5854619140625,298.16584865722655,798.5854619140625,298.16584865722655,798.5854619140625,298.16584865722655ZM675.9171619140625,237.95302865722655C675.9171619140625,237.95302865722655,613.1137177140625,297.4234486572266,613.1137177140625,297.4234486572266C613.1137177140625,297.4234486572266,613.4294879140625,297.7218486572266,613.4294879140625,297.7218486572266C613.4294879140625,297.7218486572266,676.2330619140625,238.25127865722655,676.2330619140625,238.25127865722655C676.2330619140625,238.25127865722655,675.9171619140625,237.95302865722655,675.9171619140625,237.95302865722655C675.9171619140625,237.95302865722655,675.9171619140625,237.95302865722655,675.9171619140625,237.95302865722655ZM613.0484619140625,297.57234865722654C613.0484619140625,297.57234865722654,613.0484619140625,326.1946486572266,613.0484619140625,326.1946486572266C613.0484619140625,326.1946486572266,613.4947439140625,326.1946486572266,613.4947439140625,326.1946486572266C613.4947439140625,326.1946486572266,613.4947439140625,297.57234865722654,613.4947439140625,297.57234865722654C613.4947439140625,297.57234865722654,613.0484619140625,297.57234865722654,613.0484619140625,297.57234865722654C613.0484619140625,297.57234865722654,613.0484619140625,297.57234865722654,613.0484619140625,297.57234865722654ZM615.4972919140625,330.08854865722657C615.4972919140625,330.08854865722657,648.5078619140625,347.05074865722656,648.5078619140625,347.05074865722656C648.5078619140625,347.05074865722656,648.7209619140625,346.6797486572266,648.7209619140625,346.6797486572266C648.7209619140625,346.6797486572266,615.7103519140625,329.71754865722653,615.7103519140625,329.71754865722653C615.7103519140625,329.71754865722653,615.4972919140625,330.08854865722657,615.4972919140625,330.08854865722657C615.4972919140625,330.08854865722657,615.4972919140625,330.08854865722657,615.4972919140625,330.08854865722657ZM648.3912619140625,346.8647486572265C648.3912619140625,346.8647486572265,648.3912619140625,386.6267486572266,648.3912619140625,386.6267486572266C648.3912619140625,386.6267486572266,648.8375619140625,386.6267486572266,648.8375619140625,386.6267486572266C648.8375619140625,386.6267486572266,648.8375619140625,346.8647486572265,648.8375619140625,346.8647486572265C648.8375619140625,346.8647486572265,648.3912619140625,346.8647486572265,648.3912619140625,346.8647486572265C648.3912619140625,346.8647486572265,648.3912619140625,346.8647486572265,648.3912619140625,346.8647486572265ZM650.3727619140625,389.77774865722654C650.3727619140625,389.77774865722654,798.3724619140626,465.87074865722656,798.3724619140626,465.87074865722656C798.3724619140626,465.87074865722656,798.5854619140625,465.50074865722655,798.5854619140625,465.50074865722655C798.5854619140625,465.50074865722655,650.5859619140625,389.40774865722653,650.5859619140625,389.40774865722653C650.5859619140625,389.40774865722653,650.3727619140625,389.77774865722654,650.3727619140625,389.77774865722654C650.3727619140625,389.77774865722654,650.3727619140625,389.77774865722654,650.3727619140625,389.77774865722654ZM798.7014619140625,465.68574865722655C798.7014619140625,465.68574865722655,798.7014619140625,298.35064865722654,798.7014619140625,298.35064865722654C798.7014619140625,298.35064865722654,798.2554619140625,298.35064865722654,798.2554619140625,298.35064865722654C798.2554619140625,298.35064865722654,798.2554619140625,465.68574865722655,798.2554619140625,465.68574865722655C798.2554619140625,465.68574865722655,798.7014619140625,465.68574865722655,798.7014619140625,465.68574865722655C798.7014619140625,465.68574865722655,798.7014619140625,465.68574865722655,798.7014619140625,465.68574865722655ZM648.3912619140625,386.6267486572266C648.3912619140625,387.94074865722655,649.1515619140625,389.1507486572266,650.3727619140625,389.77774865722654C650.3727619140625,389.77774865722654,650.5859619140625,389.40774865722653,650.5859619140625,389.40774865722653C649.5083619140624,388.85374865722656,648.8375619140625,387.78674865722655,648.8375619140625,386.6267486572266C648.8375619140625,386.6267486572266,648.3912619140625,386.6267486572266,648.3912619140625,386.6267486572266C648.3912619140625,386.6267486572266,648.3912619140625,386.6267486572266,648.3912619140625,386.6267486572266ZM613.0484619140625,326.1946486572266C613.0484619140625,327.8187486572266,613.9881089140625,329.31274865722656,615.4972919140625,330.08854865722657C615.4972919140625,330.08854865722657,615.7103519140625,329.71754865722653,615.7103519140625,329.71754865722653C614.3449019140625,329.0160486572266,613.4947439140625,327.66424865722655,613.4947439140625,326.1946486572266C613.4947439140625,326.1946486572266,613.0484619140625,326.1946486572266,613.0484619140625,326.1946486572266C613.0484619140625,326.1946486572266,613.0484619140625,326.1946486572266,613.0484619140625,326.1946486572266ZM680.9529619140625,237.26930465722657C679.3003619140625,236.41373365722657,677.2488619140624,236.69228045722656,675.9171619140625,237.95302865722655C675.9171619140625,237.95302865722655,676.2330619140625,238.25127865722655,676.2330619140625,238.25127865722655C677.4242619140625,237.12323865722655,679.2597619140624,236.87401415722655,680.7387619140625,237.63952465722656C680.7387619140625,237.63952465722656,680.9529619140625,237.26930465722657,680.9529619140625,237.26930465722657C680.9529619140625,237.26930465722657,680.9529619140625,237.26930465722657,680.9529619140625,237.26930465722657Z" fill="url(#master_svg0_7_11346)" fill-opacity="0.699999988079071"/></g><g><path d="M831.9502857666016,279.4226725830078C831.9502857666016,279.4226725830078,832.1732857666016,279.4226725830078,832.1732857666016,279.4226725830078C832.1732857666016,279.4226725830078,832.1732857666016,279.2976725830078,832.1732857666016,279.2976725830078C832.1732857666016,279.2976725830078,832.0572857666016,279.2373725830078,832.0572857666016,279.2373725830078C832.0572857666016,279.2373725830078,831.9502857666016,279.4226725830078,831.9502857666016,279.4226725830078C831.9502857666016,279.4226725830078,831.9502857666016,279.4226725830078,831.9502857666016,279.4226725830078ZM579.8004267666016,278.3636725830078C579.8004267666016,278.3636725830078,579.6426085666016,278.2146725830078,579.6426085666016,278.2146725830078C579.6426085666016,278.2146725830078,579.5772857666016,278.2763725830078,579.5772857666016,278.2763725830078C579.5772857666016,278.2763725830078,579.5772857666016,278.3636725830078,579.5772857666016,278.3636725830078C579.5772857666016,278.3636725830078,579.8004267666016,278.3636725830078,579.8004267666016,278.3636725830078C579.8004267666016,278.3636725830078,579.8004267666016,278.3636725830078,579.8004267666016,278.3636725830078ZM627.9176857666016,345.4167725830078C627.9176857666016,345.4167725830078,628.1407857666015,345.4167725830078,628.1407857666015,345.4167725830078C628.1407857666015,345.4167725830078,628.1407857666015,345.2907725830078,628.1407857666015,345.2907725830078C628.1407857666015,345.2907725830078,628.0243857666015,345.2307725830078,628.0243857666015,345.2307725830078C628.0243857666015,345.2307725830078,627.9176857666016,345.4167725830078,627.9176857666016,345.4167725830078C627.9176857666016,345.4167725830078,627.9176857666016,345.4167725830078,627.9176857666016,345.4167725830078ZM831.9502857666016,507.0477725830078C831.9502857666016,507.0477725830078,831.8432857666015,507.23277258300783,831.8432857666015,507.23277258300783C831.8432857666015,507.23277258300783,832.1732857666016,507.4027725830078,832.1732857666016,507.4027725830078C832.1732857666016,507.4027725830078,832.1732857666016,507.0477725830078,832.1732857666016,507.0477725830078C832.1732857666016,507.0477725830078,831.9502857666016,507.0477725830078,831.9502857666016,507.0477725830078C831.9502857666016,507.0477725830078,831.9502857666016,507.0477725830078,831.9502857666016,507.0477725830078ZM629.7835857666016,403.1927725830078C629.7835857666016,403.1927725830078,629.8902857666016,403.0077725830078,629.8902857666016,403.0077725830078C629.8902857666016,403.0077725830078,629.7835857666016,403.1927725830078,629.7835857666016,403.1927725830078C629.7835857666016,403.1927725830078,629.7835857666016,403.1927725830078,629.7835857666016,403.1927725830078ZM582.1340357666015,321.9107725830078C582.1340357666015,321.9107725830078,582.2404957666016,321.7257725830078,582.2404957666016,321.7257725830078C582.2404957666016,321.7257725830078,582.1340357666015,321.9107725830078,582.1340357666015,321.9107725830078C582.1340357666015,321.9107725830078,582.1340357666015,321.9107725830078,582.1340357666015,321.9107725830078ZM666.0743857666016,196.73804258300783C666.0743857666016,196.73804258300783,665.9163857666016,196.58885258300782,665.9163857666016,196.58885258300782C665.9163857666016,196.58885258300782,666.0743857666016,196.73804258300783,666.0743857666016,196.73804258300783C666.0743857666016,196.73804258300783,666.0743857666016,196.73804258300783,666.0743857666016,196.73804258300783ZM832.0572857666016,279.2373725830078C832.0572857666016,279.2373725830078,670.9495857666016,195.90564358300782,670.9495857666016,195.90564358300782C670.9495857666016,195.90564358300782,670.7353857666016,196.27593558300782,670.7353857666016,196.27593558300782C670.7353857666016,196.27593558300782,831.8432857666015,279.60797258300784,831.8432857666015,279.60797258300784C831.8432857666015,279.60797258300784,832.0572857666016,279.2373725830078,832.0572857666016,279.2373725830078C832.0572857666016,279.2373725830078,832.0572857666016,279.2373725830078,832.0572857666016,279.2373725830078ZM665.9163857666016,196.58885258300782C665.9163857666016,196.58885258300782,579.6426085666016,278.2146725830078,579.6426085666016,278.2146725830078C579.6426085666016,278.2146725830078,579.9582447666015,278.5130725830078,579.9582447666015,278.5130725830078C579.9582447666015,278.5130725830078,666.2318857666015,196.88722258300783,666.2318857666015,196.88722258300783C666.2318857666015,196.88722258300783,665.9163857666016,196.58885258300782,665.9163857666016,196.58885258300782C665.9163857666016,196.58885258300782,665.9163857666016,196.58885258300782,665.9163857666016,196.58885258300782ZM579.5772857666016,278.3636725830078C579.5772857666016,278.3636725830078,579.5772857666016,318.2017725830078,579.5772857666016,318.2017725830078C579.5772857666016,318.2017725830078,580.0235677666016,318.2017725830078,580.0235677666016,318.2017725830078C580.0235677666016,318.2017725830078,580.0235677666016,278.3636725830078,580.0235677666016,278.3636725830078C580.0235677666016,278.3636725830078,579.5772857666016,278.3636725830078,579.5772857666016,278.3636725830078C579.5772857666016,278.3636725830078,579.5772857666016,278.3636725830078,579.5772857666016,278.3636725830078ZM582.0275757666016,322.0967725830078C582.0275757666016,322.0967725830078,627.8109857666016,345.6017725830078,627.8109857666016,345.6017725830078C627.8109857666016,345.6017725830078,628.0243857666015,345.2307725830078,628.0243857666015,345.2307725830078C628.0243857666015,345.2307725830078,582.2404957666016,321.7257725830078,582.2404957666016,321.7257725830078C582.2404957666016,321.7257725830078,582.0275757666016,322.0967725830078,582.0275757666016,322.0967725830078C582.0275757666016,322.0967725830078,582.0275757666016,322.0967725830078,582.0275757666016,322.0967725830078ZM627.6945857666016,345.4167725830078C627.6945857666016,345.4167725830078,627.6945857666016,400.2257725830078,627.6945857666016,400.2257725830078C627.6945857666016,400.2257725830078,628.1407857666015,400.2257725830078,628.1407857666015,400.2257725830078C628.1407857666015,400.2257725830078,628.1407857666015,345.4167725830078,628.1407857666015,345.4167725830078C628.1407857666015,345.4167725830078,627.6945857666016,345.4167725830078,627.6945857666016,345.4167725830078C627.6945857666016,345.4167725830078,627.6945857666016,345.4167725830078,627.6945857666016,345.4167725830078ZM629.6773857666016,403.37877258300784C629.6773857666016,403.37877258300784,831.8432857666015,507.23277258300783,831.8432857666015,507.23277258300783C831.8432857666015,507.23277258300783,832.0562857666016,506.8617725830078,832.0562857666016,506.8617725830078C832.0562857666016,506.8617725830078,629.8902857666016,403.0077725830078,629.8902857666016,403.0077725830078C629.8902857666016,403.0077725830078,629.6773857666016,403.37877258300784,629.6773857666016,403.37877258300784C629.6773857666016,403.37877258300784,629.6773857666016,403.37877258300784,629.6773857666016,403.37877258300784ZM832.1732857666016,507.0477725830078C832.1732857666016,507.0477725830078,832.1732857666016,279.4226725830078,832.1732857666016,279.4226725830078C832.1732857666016,279.4226725830078,831.7262857666016,279.4226725830078,831.7262857666016,279.4226725830078C831.7262857666016,279.4226725830078,831.7262857666016,507.0477725830078,831.7262857666016,507.0477725830078C831.7262857666016,507.0477725830078,832.1732857666016,507.0477725830078,832.1732857666016,507.0477725830078C832.1732857666016,507.0477725830078,832.1732857666016,507.0477725830078,832.1732857666016,507.0477725830078ZM627.6945857666016,400.2257725830078C627.6945857666016,401.5407725830078,628.4554857666016,402.7507725830078,629.6773857666016,403.37877258300784C629.6773857666016,403.37877258300784,629.8902857666016,403.0077725830078,629.8902857666016,403.0077725830078C628.8119857666015,402.4537725830078,628.1407857666015,401.3857725830078,628.1407857666015,400.2257725830078C628.1407857666015,400.2257725830078,627.6945857666016,400.2257725830078,627.6945857666016,400.2257725830078C627.6945857666016,400.2257725830078,627.6945857666016,400.2257725830078,627.6945857666016,400.2257725830078ZM579.5772857666016,318.2017725830078C579.5772857666016,319.8267725830078,580.5175797666016,321.3207725830078,582.0275757666016,322.0967725830078C582.0275757666016,322.0967725830078,582.2404957666016,321.7257725830078,582.2404957666016,321.7257725830078C580.8743157666015,321.0237725830078,580.0235677666016,319.6717725830078,580.0235677666016,318.2017725830078C580.0235677666016,318.2017725830078,579.5772857666016,318.2017725830078,579.5772857666016,318.2017725830078C579.5772857666016,318.2017725830078,579.5772857666016,318.2017725830078,579.5772857666016,318.2017725830078ZM670.9495857666016,195.90564358300782C669.2973857666016,195.05118658300782,667.2476857666015,195.3294513830078,665.9163857666016,196.58885258300782C665.9163857666016,196.58885258300782,666.2318857666015,196.88722258300783,666.2318857666015,196.88722258300783C667.4230857666016,195.7603975830078,669.2572857666016,195.51142138300781,670.7353857666016,196.27593558300782C670.7353857666016,196.27593558300782,670.9495857666016,195.90564358300782,670.9495857666016,195.90564358300782C670.9495857666016,195.90564358300782,670.9495857666016,195.90564358300782,670.9495857666016,195.90564358300782Z" fill="url(#master_svg1_7_11376)" fill-opacity="0.6000000238418579"/></g><g><path d="M866.7602653198242,259.72138806152344C866.7602653198242,259.72138806152344,866.9832653198242,259.72138806152344,866.9832653198242,259.72138806152344C866.9832653198242,259.72138806152344,866.9832653198242,259.5973880615234,866.9832653198242,259.5973880615234C866.9832653198242,259.5973880615234,866.8672653198242,259.53638806152344,866.8672653198242,259.53638806152344C866.8672653198242,259.53638806152344,866.7602653198242,259.72138806152344,866.7602653198242,259.72138806152344C866.7602653198242,259.72138806152344,866.7602653198242,259.72138806152344,866.7602653198242,259.72138806152344ZM544.9904063198243,258.3713880615234C544.9904063198243,258.3713880615234,544.8326144198243,258.22138806152344,544.8326144198243,258.22138806152344C544.8326144198243,258.22138806152344,544.7672653198242,258.28438806152343,544.7672653198242,258.28438806152343C544.7672653198242,258.28438806152343,544.7672653198242,258.3713880615234,544.7672653198242,258.3713880615234C544.7672653198242,258.3713880615234,544.9904063198243,258.3713880615234,544.9904063198243,258.3713880615234C544.9904063198243,258.3713880615234,544.9904063198243,258.3713880615234,544.9904063198243,258.3713880615234ZM606.3930653198242,343.9083880615234C606.3930653198242,343.9083880615234,606.6161653198242,343.9083880615234,606.6161653198242,343.9083880615234C606.6161653198242,343.9083880615234,606.6161653198242,343.7823880615234,606.6161653198242,343.7823880615234C606.6161653198242,343.7823880615234,606.4996653198242,343.7223880615235,606.4996653198242,343.7223880615235C606.4996653198242,343.7223880615235,606.3930653198242,343.9083880615234,606.3930653198242,343.9083880615234C606.3930653198242,343.9083880615234,606.3930653198242,343.9083880615234,606.3930653198242,343.9083880615234ZM866.7602653198242,550.0973880615234C866.7602653198242,550.0973880615234,866.6532653198242,550.2823880615234,866.6532653198242,550.2823880615234C866.6532653198242,550.2823880615234,866.9832653198242,550.4523880615234,866.9832653198242,550.4523880615234C866.9832653198242,550.4523880615234,866.9832653198242,550.0973880615234,866.9832653198242,550.0973880615234C866.9832653198242,550.0973880615234,866.7602653198242,550.0973880615234,866.7602653198242,550.0973880615234C866.7602653198242,550.0973880615234,866.7602653198242,550.0973880615234,866.7602653198242,550.0973880615234ZM608.2598653198243,417.34838806152345C608.2598653198243,417.34838806152345,608.3660653198242,417.1623880615234,608.3660653198242,417.1623880615234C608.3660653198242,417.1623880615234,608.2598653198243,417.34838806152345,608.2598653198243,417.34838806152345C608.2598653198243,417.34838806152345,608.2598653198243,417.34838806152345,608.2598653198243,417.34838806152345ZM547.3245653198243,313.5923880615235C547.3245653198243,313.5923880615235,547.2181353198242,313.7783880615234,547.2181353198242,313.7783880615234C547.2181353198242,313.7783880615234,547.3245653198243,313.5923880615235,547.3245653198243,313.5923880615235C547.3245653198243,313.5923880615235,547.3245653198243,313.5923880615235,547.3245653198243,313.5923880615235ZM866.8672653198242,259.53638806152344C866.8672653198242,259.53638806152344,660.5472653198242,152.85498806152344,660.5472653198242,152.85498806152344C660.5472653198242,152.85498806152344,660.3332653198242,153.22530506152344,660.3332653198242,153.22530506152344C660.3332653198242,153.22530506152344,866.6532653198242,259.9073880615234,866.6532653198242,259.9073880615234C866.6532653198242,259.9073880615234,866.8672653198242,259.53638806152344,866.8672653198242,259.53638806152344C866.8672653198242,259.53638806152344,866.8672653198242,259.53638806152344,866.8672653198242,259.53638806152344ZM655.5152653198243,153.53798806152344C655.5152653198243,153.53798806152344,544.8326144198243,258.22138806152344,544.8326144198243,258.22138806152344C544.8326144198243,258.22138806152344,545.1481983198242,258.5203880615234,545.1481983198242,258.5203880615234C545.1481983198242,258.5203880615234,655.8302653198242,153.83641806152343,655.8302653198242,153.83641806152343C655.8302653198242,153.83641806152343,655.5152653198243,153.53798806152344,655.5152653198243,153.53798806152344C655.5152653198243,153.53798806152344,655.5152653198243,153.53798806152344,655.5152653198243,153.53798806152344ZM544.7672653198242,258.3713880615234C544.7672653198242,258.3713880615234,544.7672653198242,309.8833880615234,544.7672653198242,309.8833880615234C544.7672653198242,309.8833880615234,545.2135473198242,309.8833880615234,545.2135473198242,309.8833880615234C545.2135473198242,309.8833880615234,545.2135473198242,258.3713880615234,545.2135473198242,258.3713880615234C545.2135473198242,258.3713880615234,544.7672653198242,258.3713880615234,544.7672653198242,258.3713880615234C544.7672653198242,258.3713880615234,544.7672653198242,258.3713880615234,544.7672653198242,258.3713880615234ZM547.2181353198242,313.7783880615234C547.2181353198242,313.7783880615234,606.2868653198242,344.09338806152346,606.2868653198242,344.09338806152346C606.2868653198242,344.09338806152346,606.4996653198242,343.7223880615235,606.4996653198242,343.7223880615235C606.4996653198242,343.7223880615235,547.4310053198242,313.4073880615234,547.4310053198242,313.4073880615234C547.4310053198242,313.4073880615234,547.2181353198242,313.7783880615234,547.2181353198242,313.7783880615234C547.2181353198242,313.7783880615234,547.2181353198242,313.7783880615234,547.2181353198242,313.7783880615234ZM606.1698653198242,343.9083880615234C606.1698653198242,343.9083880615234,606.1698653198242,414.3813880615234,606.1698653198242,414.3813880615234C606.1698653198242,414.3813880615234,606.6161653198242,414.3813880615234,606.6161653198242,414.3813880615234C606.6161653198242,414.3813880615234,606.6161653198242,343.9083880615234,606.6161653198242,343.9083880615234C606.6161653198242,343.9083880615234,606.1698653198242,343.9083880615234,606.1698653198242,343.9083880615234C606.1698653198242,343.9083880615234,606.1698653198242,343.9083880615234,606.1698653198242,343.9083880615234ZM608.1531653198242,417.53338806152345C608.1531653198242,417.53338806152345,866.6532653198242,550.2823880615234,866.6532653198242,550.2823880615234C866.6532653198242,550.2823880615234,866.8662653198242,549.9123880615234,866.8662653198242,549.9123880615234C866.8662653198242,549.9123880615234,608.3660653198242,417.1623880615234,608.3660653198242,417.1623880615234C608.3660653198242,417.1623880615234,608.1531653198242,417.53338806152345,608.1531653198242,417.53338806152345C608.1531653198242,417.53338806152345,608.1531653198242,417.53338806152345,608.1531653198242,417.53338806152345ZM866.9832653198242,550.0973880615234C866.9832653198242,550.0973880615234,866.9832653198242,259.72138806152344,866.9832653198242,259.72138806152344C866.9832653198242,259.72138806152344,866.5372653198242,259.72138806152344,866.5372653198242,259.72138806152344C866.5372653198242,259.72138806152344,866.5372653198242,550.0973880615234,866.5372653198242,550.0973880615234C866.5372653198242,550.0973880615234,866.9832653198242,550.0973880615234,866.9832653198242,550.0973880615234C866.9832653198242,550.0973880615234,866.9832653198242,550.0973880615234,866.9832653198242,550.0973880615234ZM606.1698653198242,414.3813880615234C606.1698653198242,415.69638806152346,606.9312653198242,416.9053880615234,608.1531653198242,417.53338806152345C608.1531653198242,417.53338806152345,608.3660653198242,417.1623880615234,608.3660653198242,417.1623880615234C607.2878653198243,416.6093880615234,606.6161653198242,415.54138806152343,606.6161653198242,414.3813880615234C606.6161653198242,414.3813880615234,606.1698653198242,414.3813880615234,606.1698653198242,414.3813880615234C606.1698653198242,414.3813880615234,606.1698653198242,414.3813880615234,606.1698653198242,414.3813880615234ZM544.7672653198242,309.8833880615234C544.7672653198242,311.5083880615234,545.7078183198242,313.00238806152345,547.2181353198242,313.7783880615234C547.2181353198242,313.7783880615234,547.4310053198242,313.4073880615234,547.4310053198242,313.4073880615234C546.0645253198243,312.7053880615234,545.2135473198242,311.35338806152345,545.2135473198242,309.8833880615234C545.2135473198242,309.8833880615234,544.7672653198242,309.8833880615234,544.7672653198242,309.8833880615234C544.7672653198242,309.8833880615234,544.7672653198242,309.8833880615234,544.7672653198242,309.8833880615234ZM660.5472653198242,152.85498806152344C658.8952653198243,152.00096906152345,656.8462653198242,152.27912846152344,655.5152653198243,153.53798806152344C655.5152653198243,153.53798806152344,655.8302653198242,153.83641806152343,655.8302653198242,153.83641806152343C657.0212653198242,152.71006606152343,658.8552653198242,152.46118716152344,660.3332653198242,153.22530506152344C660.3332653198242,153.22530506152344,660.5472653198242,152.85498806152344,660.5472653198242,152.85498806152344C660.5472653198242,152.85498806152344,660.5472653198242,152.85498806152344,660.5472653198242,152.85498806152344Z" fill="url(#master_svg2_7_10356)" fill-opacity="0.5"/></g><g><path d="M906.0324229125977,237.51021002197265C906.0324229125977,237.51021002197265,906.2564229125976,237.51021002197265,906.2564229125976,237.51021002197265C906.2564229125976,237.51021002197265,906.2564229125976,237.38521002197265,906.2564229125976,237.38521002197265C906.2564229125976,237.38521002197265,906.1394229125976,237.32521002197265,906.1394229125976,237.32521002197265C906.1394229125976,237.32521002197265,906.0324229125977,237.51021002197265,906.0324229125977,237.51021002197265C906.0324229125977,237.51021002197265,906.0324229125977,237.51021002197265,906.0324229125977,237.51021002197265ZM505.71756391259765,235.83021002197265C505.71756391259765,235.83021002197265,505.55980151259763,235.68121002197265,505.55980151259763,235.68121002197265C505.55980151259763,235.68121002197265,505.49442291259766,235.74321002197266,505.49442291259766,235.74321002197266C505.49442291259766,235.74321002197266,505.49442291259766,235.83021002197265,505.49442291259766,235.83021002197265C505.49442291259766,235.83021002197265,505.71756391259765,235.83021002197265,505.71756391259765,235.83021002197265C505.71756391259765,235.83021002197265,505.71756391259765,235.83021002197265,505.71756391259765,235.83021002197265ZM582.1090229125977,342.20821002197266C582.1090229125977,342.20821002197266,582.3322229125977,342.20821002197266,582.3322229125977,342.20821002197266C582.3322229125977,342.20821002197266,582.3322229125977,342.0822100219726,582.3322229125977,342.0822100219726C582.3322229125977,342.0822100219726,582.2152229125977,342.0222100219727,582.2152229125977,342.0222100219727C582.2152229125977,342.0222100219727,582.1090229125977,342.20821002197266,582.1090229125977,342.20821002197266C582.1090229125977,342.20821002197266,582.1090229125977,342.20821002197266,582.1090229125977,342.20821002197266ZM906.0324229125977,598.6342100219726C906.0324229125977,598.6342100219726,905.9264229125977,598.8192100219726,905.9264229125977,598.8192100219726C905.9264229125977,598.8192100219726,906.2564229125976,598.9882100219727,906.2564229125976,598.9882100219727C906.2564229125976,598.9882100219727,906.2564229125976,598.6342100219726,906.2564229125976,598.6342100219726C906.2564229125976,598.6342100219726,906.0324229125977,598.6342100219726,906.0324229125977,598.6342100219726C906.0324229125977,598.6342100219726,906.0324229125977,598.6342100219726,906.0324229125977,598.6342100219726ZM583.9763229125977,433.30721002197265C583.9763229125977,433.30721002197265,584.0825229125976,433.12221002197265,584.0825229125976,433.12221002197265C584.0825229125976,433.12221002197265,583.9763229125977,433.30721002197265,583.9763229125977,433.30721002197265C583.9763229125977,433.30721002197265,583.9763229125977,433.30721002197265,583.9763229125977,433.30721002197265ZM508.0523429125977,304.2142100219727C508.0523429125977,304.2142100219727,508.15874291259763,304.02821002197265,508.15874291259763,304.02821002197265C508.15874291259763,304.02821002197265,508.0523429125977,304.2142100219727,508.0523429125977,304.2142100219727C508.0523429125977,304.2142100219727,508.0523429125977,304.2142100219727,508.0523429125977,304.2142100219727ZM648.7034229125977,104.50268202197266C648.7034229125977,104.50268202197266,648.8104229125977,104.31750902197265,648.8104229125977,104.31750902197265C648.8104229125977,104.31750902197265,648.7034229125977,104.50268202197266,648.7034229125977,104.50268202197266C648.7034229125977,104.50268202197266,648.7034229125977,104.50268202197266,648.7034229125977,104.50268202197266ZM643.9374229125976,105.14952002197266C643.9374229125976,105.14952002197266,643.7794229125976,105.00028002197266,643.7794229125976,105.00028002197266C643.7794229125976,105.00028002197266,643.9374229125976,105.14952002197266,643.9374229125976,105.14952002197266C643.9374229125976,105.14952002197266,643.9374229125976,105.14952002197266,643.9374229125976,105.14952002197266ZM906.1394229125976,237.32521002197265C906.1394229125976,237.32521002197265,648.8104229125977,104.31750902197265,648.8104229125977,104.31750902197265C648.8104229125977,104.31750902197265,648.5964229125976,104.68786002197265,648.5964229125976,104.68786002197265C648.5964229125976,104.68786002197265,905.9254229125977,237.69521002197266,905.9254229125977,237.69521002197266C905.9254229125977,237.69521002197266,906.1394229125976,237.32521002197265,906.1394229125976,237.32521002197265C906.1394229125976,237.32521002197265,906.1394229125976,237.32521002197265,906.1394229125976,237.32521002197265ZM643.7794229125976,105.00028002197266C643.7794229125976,105.00028002197266,505.55980151259763,235.68121002197265,505.55980151259763,235.68121002197265C505.55980151259763,235.68121002197265,505.87532691259764,235.98021002197265,505.87532691259764,235.98021002197265C505.87532691259764,235.98021002197265,644.0954229125977,105.29877002197266,644.0954229125977,105.29877002197266C644.0954229125977,105.29877002197266,643.7794229125976,105.00028002197266,643.7794229125976,105.00028002197266C643.7794229125976,105.00028002197266,643.7794229125976,105.00028002197266,643.7794229125976,105.00028002197266ZM505.49442291259766,235.83021002197265C505.49442291259766,235.83021002197265,505.49442291259766,300.50421002197265,505.49442291259766,300.50421002197265C505.49442291259766,300.50421002197265,505.94070491259765,300.50421002197265,505.94070491259765,300.50421002197265C505.94070491259765,300.50421002197265,505.94070491259765,235.83021002197265,505.94070491259765,235.83021002197265C505.94070491259765,235.83021002197265,505.49442291259766,235.83021002197265,505.49442291259766,235.83021002197265C505.49442291259766,235.83021002197265,505.49442291259766,235.83021002197265,505.49442291259766,235.83021002197265ZM507.94593291259764,304.39921002197264C507.94593291259764,304.39921002197264,582.0028229125976,342.39321002197266,582.0028229125976,342.39321002197266C582.0028229125976,342.39321002197266,582.2152229125977,342.0222100219727,582.2152229125977,342.0222100219727C582.2152229125977,342.0222100219727,508.15874291259763,304.02821002197265,508.15874291259763,304.02821002197265C508.15874291259763,304.02821002197265,507.94593291259764,304.39921002197264,507.94593291259764,304.39921002197264C507.94593291259764,304.39921002197264,507.94593291259764,304.39921002197264,507.94593291259764,304.39921002197264ZM581.8859229125976,342.20821002197266C581.8859229125976,342.20821002197266,581.8859229125976,430.34021002197267,581.8859229125976,430.34021002197267C581.8859229125976,430.34021002197267,582.3322229125977,430.34021002197267,582.3322229125977,430.34021002197267C582.3322229125977,430.34021002197267,582.3322229125977,342.20821002197266,582.3322229125977,342.20821002197266C582.3322229125977,342.20821002197266,581.8859229125976,342.20821002197266,581.8859229125976,342.20821002197266C581.8859229125976,342.20821002197266,581.8859229125976,342.20821002197266,581.8859229125976,342.20821002197266ZM583.8696229125976,433.49321002197263C583.8696229125976,433.49321002197263,905.9264229125977,598.8192100219726,905.9264229125977,598.8192100219726C905.9264229125977,598.8192100219726,906.1394229125976,598.4482100219727,906.1394229125976,598.4482100219727C906.1394229125976,598.4482100219727,584.0825229125976,433.12221002197265,584.0825229125976,433.12221002197265C584.0825229125976,433.12221002197265,583.8696229125976,433.49321002197263,583.8696229125976,433.49321002197263C583.8696229125976,433.49321002197263,583.8696229125976,433.49321002197263,583.8696229125976,433.49321002197263ZM906.2564229125976,598.6342100219726C906.2564229125976,598.6342100219726,906.2564229125976,237.51021002197265,906.2564229125976,237.51021002197265C906.2564229125976,237.51021002197265,905.8094229125977,237.51021002197265,905.8094229125977,237.51021002197265C905.8094229125977,237.51021002197265,905.8094229125977,598.6342100219726,905.8094229125977,598.6342100219726C905.8094229125977,598.6342100219726,906.2564229125976,598.6342100219726,906.2564229125976,598.6342100219726C906.2564229125976,598.6342100219726,906.2564229125976,598.6342100219726,906.2564229125976,598.6342100219726ZM581.8859229125976,430.34021002197267C581.8859229125976,431.65521002197266,582.6472229125976,432.86521002197264,583.8696229125976,433.49321002197263C583.8696229125976,433.49321002197263,584.0825229125976,433.12221002197265,584.0825229125976,433.12221002197265C583.0038229125977,432.5682100219727,582.3322229125977,431.50121002197267,582.3322229125977,430.34021002197267C582.3322229125977,430.34021002197267,581.8859229125976,430.34021002197267,581.8859229125976,430.34021002197267C581.8859229125976,430.34021002197267,581.8859229125976,430.34021002197267,581.8859229125976,430.34021002197267ZM505.49442291259766,300.50421002197265C505.49442291259766,302.13021002197263,506.43525791259765,303.62421002197266,507.94593291259764,304.39921002197264C507.94593291259764,304.39921002197264,508.15874291259763,304.02821002197265,508.15874291259763,304.02821002197265C506.79193291259764,303.32721002197263,505.94070491259765,301.97521002197266,505.94070491259765,300.50421002197265C505.94070491259765,300.50421002197265,505.49442291259766,300.50421002197265,505.49442291259766,300.50421002197265C505.49442291259766,300.50421002197265,505.49442291259766,300.50421002197265,505.49442291259766,300.50421002197265ZM648.8104229125977,104.31750902197265C647.1594229125976,103.46397902197266,645.1104229125976,103.74201682197265,643.7794229125976,105.00028002197266C643.7794229125976,105.00028002197266,644.0954229125977,105.29877002197266,644.0954229125977,105.29877002197266C645.2864229125977,104.17294602197266,647.1194229125977,103.92417682197265,648.5964229125976,104.68786002197265C648.5964229125976,104.68786002197265,648.8104229125977,104.31750902197265,648.8104229125977,104.31750902197265C648.8104229125977,104.31750902197265,648.8104229125977,104.31750902197265,648.8104229125977,104.31750902197265Z" fill="url(#master_svg3_7_10344)" fill-opacity="0.4000000059604645"/></g><g><path d="M946.1980176391602,214.7189143371582C946.1980176391602,214.7189143371582,946.4210176391601,214.7189143371582,946.4210176391601,214.7189143371582C946.4210176391601,214.7189143371582,946.4210176391601,214.5939143371582,946.4210176391601,214.5939143371582C946.4210176391601,214.5939143371582,946.3050176391602,214.5339143371582,946.3050176391602,214.5339143371582C946.3050176391602,214.5339143371582,946.1980176391602,214.7189143371582,946.1980176391602,214.7189143371582C946.1980176391602,214.7189143371582,946.1980176391602,214.7189143371582,946.1980176391602,214.7189143371582ZM465.55215863916015,212.7019143371582C465.55215863916015,212.7019143371582,465.39437303916014,212.5529143371582,465.39437303916014,212.5529143371582C465.39437303916014,212.5529143371582,465.32901763916016,212.6139143371582,465.32901763916016,212.6139143371582C465.32901763916016,212.6139143371582,465.32901763916016,212.7019143371582,465.32901763916016,212.7019143371582C465.32901763916016,212.7019143371582,465.55215863916015,212.7019143371582,465.55215863916015,212.7019143371582C465.55215863916015,212.7019143371582,465.55215863916015,212.7019143371582,465.55215863916015,212.7019143371582ZM557.2730176391601,340.4639143371582C557.2730176391601,340.4639143371582,557.4961176391602,340.4639143371582,557.4961176391602,340.4639143371582C557.4961176391602,340.4639143371582,557.4961176391602,340.3379143371582,557.4961176391602,340.3379143371582C557.4961176391602,340.3379143371582,557.3796176391602,340.2779143371582,557.3796176391602,340.2779143371582C557.3796176391602,340.2779143371582,557.2730176391601,340.4639143371582,557.2730176391601,340.4639143371582C557.2730176391601,340.4639143371582,557.2730176391601,340.4639143371582,557.2730176391601,340.4639143371582ZM946.1980176391602,648.4369143371582C946.1980176391602,648.4369143371582,946.0910176391601,648.6229143371582,946.0910176391601,648.6229143371582C946.0910176391601,648.6229143371582,946.4210176391601,648.7909143371583,946.4210176391601,648.7909143371583C946.4210176391601,648.7909143371583,946.4210176391601,648.4369143371582,946.4210176391601,648.4369143371582C946.4210176391601,648.4369143371582,946.1980176391602,648.4369143371582,946.1980176391602,648.4369143371582C946.1980176391602,648.4369143371582,946.1980176391602,648.4369143371582,946.1980176391602,648.4369143371582ZM559.1398176391601,449.6839143371582C559.1398176391601,449.6839143371582,559.0331176391602,449.86891433715823,559.0331176391602,449.86891433715823C559.0331176391602,449.86891433715823,559.1398176391601,449.6839143371582,559.1398176391601,449.6839143371582C559.1398176391601,449.6839143371582,559.1398176391601,449.6839143371582,559.1398176391601,449.6839143371582ZM467.88644763916017,294.5919143371582C467.88644763916017,294.5919143371582,467.99287763916016,294.4059143371582,467.99287763916016,294.4059143371582C467.99287763916016,294.4059143371582,467.88644763916017,294.5919143371582,467.88644763916017,294.5919143371582C467.88644763916017,294.5919143371582,467.88644763916017,294.5919143371582,467.88644763916017,294.5919143371582ZM636.7020176391602,54.70061733715821C636.7020176391602,54.70061733715821,636.5950176391601,54.885782337158204,636.5950176391601,54.885782337158204C636.5950176391601,54.885782337158204,636.7020176391602,54.70061733715821,636.7020176391602,54.70061733715821C636.7020176391602,54.70061733715821,636.7020176391602,54.70061733715821,636.7020176391602,54.70061733715821ZM631.9360176391601,55.3476243371582C631.9360176391601,55.3476243371582,632.0930176391602,55.4968443371582,632.0930176391602,55.4968443371582C632.0930176391602,55.4968443371582,631.9360176391601,55.3476243371582,631.9360176391601,55.3476243371582C631.9360176391601,55.3476243371582,631.9360176391601,55.3476243371582,631.9360176391601,55.3476243371582ZM946.3050176391602,214.5339143371582C946.3050176391602,214.5339143371582,636.8090176391602,54.5154523371582,636.8090176391602,54.5154523371582C636.8090176391602,54.5154523371582,636.5950176391601,54.885782337158204,636.5950176391601,54.885782337158204C636.5950176391601,54.885782337158204,946.0910176391601,214.9049143371582,946.0910176391601,214.9049143371582C946.0910176391601,214.9049143371582,946.3050176391602,214.5339143371582,946.3050176391602,214.5339143371582C946.3050176391602,214.5339143371582,946.3050176391602,214.5339143371582,946.3050176391602,214.5339143371582ZM631.7780176391602,55.1984043371582C631.7780176391602,55.1984043371582,465.39437303916014,212.5529143371582,465.39437303916014,212.5529143371582C465.39437303916014,212.5529143371582,465.70994463916014,212.8509143371582,465.70994463916014,212.8509143371582C465.70994463916014,212.8509143371582,632.0930176391602,55.4968443371582,632.0930176391602,55.4968443371582C632.0930176391602,55.4968443371582,631.7780176391602,55.1984043371582,631.7780176391602,55.1984043371582C631.7780176391602,55.1984043371582,631.7780176391602,55.1984043371582,631.7780176391602,55.1984043371582ZM465.32901763916016,212.7019143371582C465.32901763916016,212.7019143371582,465.32901763916016,290.8819143371582,465.32901763916016,290.8819143371582C465.32901763916016,290.8819143371582,465.77529963916015,290.8819143371582,465.77529963916015,290.8819143371582C465.77529963916015,290.8819143371582,465.77529963916015,212.7019143371582,465.77529963916015,212.7019143371582C465.77529963916015,212.7019143371582,465.32901763916016,212.7019143371582,465.32901763916016,212.7019143371582C465.32901763916016,212.7019143371582,465.32901763916016,212.7019143371582,465.32901763916016,212.7019143371582ZM467.7800176391602,294.7769143371582C467.7800176391602,294.7769143371582,557.1667176391602,340.6489143371582,557.1667176391602,340.6489143371582C557.1667176391602,340.6489143371582,557.3796176391602,340.2779143371582,557.3796176391602,340.2779143371582C557.3796176391602,340.2779143371582,467.99287763916016,294.4059143371582,467.99287763916016,294.4059143371582C467.99287763916016,294.4059143371582,467.7800176391602,294.7769143371582,467.7800176391602,294.7769143371582C467.7800176391602,294.7769143371582,467.7800176391602,294.7769143371582,467.7800176391602,294.7769143371582ZM557.0498176391602,340.4639143371582C557.0498176391602,340.4639143371582,557.0498176391602,446.7159143371582,557.0498176391602,446.7159143371582C557.0498176391602,446.7159143371582,557.4961176391602,446.7159143371582,557.4961176391602,446.7159143371582C557.4961176391602,446.7159143371582,557.4961176391602,340.4639143371582,557.4961176391602,340.4639143371582C557.4961176391602,340.4639143371582,557.0498176391602,340.4639143371582,557.0498176391602,340.4639143371582C557.0498176391602,340.4639143371582,557.0498176391602,340.4639143371582,557.0498176391602,340.4639143371582ZM559.0331176391602,449.86891433715823C559.0331176391602,449.86891433715823,946.0910176391601,648.6229143371582,946.0910176391601,648.6229143371582C946.0910176391601,648.6229143371582,946.3050176391602,648.2509143371582,946.3050176391602,648.2509143371582C946.3050176391602,648.2509143371582,559.2460176391602,449.4979143371582,559.2460176391602,449.4979143371582C559.2460176391602,449.4979143371582,559.0331176391602,449.86891433715823,559.0331176391602,449.86891433715823C559.0331176391602,449.86891433715823,559.0331176391602,449.86891433715823,559.0331176391602,449.86891433715823ZM946.4210176391601,648.4369143371582C946.4210176391601,648.4369143371582,946.4210176391601,214.7189143371582,946.4210176391601,214.7189143371582C946.4210176391601,214.7189143371582,945.9750176391601,214.7189143371582,945.9750176391601,214.7189143371582C945.9750176391601,214.7189143371582,945.9750176391601,648.4369143371582,945.9750176391601,648.4369143371582C945.9750176391601,648.4369143371582,946.4210176391601,648.4369143371582,946.4210176391601,648.4369143371582C946.4210176391601,648.4369143371582,946.4210176391601,648.4369143371582,946.4210176391601,648.4369143371582ZM557.0498176391602,446.7159143371582C557.0498176391602,448.0309143371582,557.8112176391602,449.2409143371582,559.0331176391602,449.86891433715823C559.0331176391602,449.86891433715823,559.2460176391602,449.4979143371582,559.2460176391602,449.4979143371582C558.1678176391601,448.9439143371582,557.4961176391602,447.8769143371582,557.4961176391602,446.7159143371582C557.4961176391602,446.7159143371582,557.0498176391602,446.7159143371582,557.0498176391602,446.7159143371582C557.0498176391602,446.7159143371582,557.0498176391602,446.7159143371582,557.0498176391602,446.7159143371582ZM465.32901763916016,290.8819143371582C465.32901763916016,292.5069143371582,466.26962863916015,294.0019143371582,467.7800176391602,294.7769143371582C467.7800176391602,294.7769143371582,467.99287763916016,294.4059143371582,467.99287763916016,294.4059143371582C466.62632763916014,293.70491433715824,465.77529963916015,292.3519143371582,465.77529963916015,290.8819143371582C465.77529963916015,290.8819143371582,465.32901763916016,290.8819143371582,465.32901763916016,290.8819143371582C465.32901763916016,290.8819143371582,465.32901763916016,290.8819143371582,465.32901763916016,290.8819143371582ZM636.8090176391602,54.5154523371582C635.1580176391601,53.6615373371582,633.1090176391601,53.939664337158206,631.7780176391602,55.1984043371582C631.7780176391602,55.1984043371582,632.0930176391602,55.4968443371582,632.0930176391602,55.4968443371582C633.2840176391602,54.370601337158206,635.1180176391601,54.1217483371582,636.5950176391601,54.885782337158204C636.5950176391601,54.885782337158204,636.8090176391602,54.5154523371582,636.8090176391602,54.5154523371582C636.8090176391602,54.5154523371582,636.8090176391602,54.5154523371582,636.8090176391602,54.5154523371582Z" fill="url(#master_svg4_7_10341)" fill-opacity="0.30000001192092896"/></g><g><path d="M989.9333532714844,189.997C989.9333532714844,189.997,990.1573532714843,189.997,990.1573532714843,189.997C990.1573532714843,189.997,990.1573532714843,189.871,990.1573532714843,189.871C990.1573532714843,189.871,990.0413532714844,189.811,990.0413532714844,189.811C990.0413532714844,189.811,989.9333532714844,189.997,989.9333532714844,189.997C989.9333532714844,189.997,989.9333532714844,189.997,989.9333532714844,189.997ZM421.8164942714844,187.613C421.8164942714844,187.613,421.65873717148435,187.464,421.65873717148435,187.464C421.65873717148435,187.464,421.5933532714844,187.526,421.5933532714844,187.526C421.5933532714844,187.526,421.5933532714844,187.613,421.5933532714844,187.613C421.5933532714844,187.613,421.8164942714844,187.613,421.8164942714844,187.613C421.8164942714844,187.613,421.8164942714844,187.613,421.8164942714844,187.613ZM530.2293532714843,338.571C530.2293532714843,338.571,530.4523532714844,338.571,530.4523532714844,338.571C530.4523532714844,338.571,530.4523532714844,338.446,530.4523532714844,338.446C530.4523532714844,338.446,530.3353532714843,338.386,530.3353532714843,338.386C530.3353532714843,338.386,530.2293532714843,338.571,530.2293532714843,338.571C530.2293532714843,338.571,530.2293532714843,338.571,530.2293532714843,338.571ZM989.9333532714844,702.46C989.9333532714844,702.46,989.8263532714843,702.646,989.8263532714843,702.646C989.8263532714843,702.646,990.1573532714843,702.815,990.1573532714843,702.815C990.1573532714843,702.815,990.1573532714843,702.46,990.1573532714843,702.46C990.1573532714843,702.46,989.9333532714844,702.46,989.9333532714844,702.46C989.9333532714844,702.46,989.9333532714844,702.46,989.9333532714844,702.46ZM532.0963532714844,467.446C532.0963532714844,467.446,532.2033532714844,467.26,532.2033532714844,467.26C532.2033532714844,467.26,532.0963532714844,467.446,532.0963532714844,467.446C532.0963532714844,467.446,532.0963532714844,467.446,532.0963532714844,467.446ZM424.15138327148435,284.153C424.15138327148435,284.153,424.0449832714844,284.338,424.0449832714844,284.338C424.0449832714844,284.338,424.15138327148435,284.153,424.15138327148435,284.153C424.15138327148435,284.153,424.15138327148435,284.153,424.15138327148435,284.153ZM623.6323532714844,0.676424C623.6323532714844,0.676424,623.5253532714844,0.861601,623.5253532714844,0.861601C623.5253532714844,0.861601,623.6323532714844,0.676424,623.6323532714844,0.676424C623.6323532714844,0.676424,623.6323532714844,0.676424,623.6323532714844,0.676424ZM618.8673532714844,1.32323C618.8673532714844,1.32323,618.7093532714844,1.17398,618.7093532714844,1.17398C618.7093532714844,1.17398,618.8673532714844,1.32323,618.8673532714844,1.32323C618.8673532714844,1.32323,618.8673532714844,1.32323,618.8673532714844,1.32323ZM990.0413532714844,189.811C990.0413532714844,189.811,623.7393532714843,0.491246,623.7393532714843,0.491246C623.7393532714843,0.491246,623.5253532714844,0.861601,623.5253532714844,0.861601C623.5253532714844,0.861601,989.8263532714843,190.182,989.8263532714843,190.182C989.8263532714843,190.182,990.0413532714844,189.811,990.0413532714844,189.811C990.0413532714844,189.811,990.0413532714844,189.811,990.0413532714844,189.811ZM618.7093532714844,1.17398C618.7093532714844,1.17398,421.65873717148435,187.464,421.65873717148435,187.464C421.65873717148435,187.464,421.9742512714844,187.762,421.9742512714844,187.762C421.9742512714844,187.762,619.0243532714844,1.47247,619.0243532714844,1.47247C619.0243532714844,1.47247,618.7093532714844,1.17398,618.7093532714844,1.17398C618.7093532714844,1.17398,618.7093532714844,1.17398,618.7093532714844,1.17398ZM421.5933532714844,187.613C421.5933532714844,187.613,421.5933532714844,280.443,421.5933532714844,280.443C421.5933532714844,280.443,422.03963527148437,280.443,422.03963527148437,280.443C422.03963527148437,280.443,422.03963527148437,187.613,422.03963527148437,187.613C422.03963527148437,187.613,421.5933532714844,187.613,421.5933532714844,187.613C421.5933532714844,187.613,421.5933532714844,187.613,421.5933532714844,187.613ZM424.0449832714844,284.338C424.0449832714844,284.338,530.1233532714843,338.757,530.1233532714843,338.757C530.1233532714843,338.757,530.3353532714843,338.386,530.3353532714843,338.386C530.3353532714843,338.386,424.2577732714844,283.967,424.2577732714844,283.967C424.2577732714844,283.967,424.0449832714844,284.338,424.0449832714844,284.338C424.0449832714844,284.338,424.0449832714844,284.338,424.0449832714844,284.338ZM530.0063532714844,338.571C530.0063532714844,338.571,530.0063532714844,464.479,530.0063532714844,464.479C530.0063532714844,464.479,530.4523532714844,464.479,530.4523532714844,464.479C530.4523532714844,464.479,530.4523532714844,338.571,530.4523532714844,338.571C530.4523532714844,338.571,530.0063532714844,338.571,530.0063532714844,338.571C530.0063532714844,338.571,530.0063532714844,338.571,530.0063532714844,338.571ZM531.9903532714844,467.632C531.9903532714844,467.632,989.8263532714843,702.646,989.8263532714843,702.646C989.8263532714843,702.646,990.0413532714844,702.274,990.0413532714844,702.274C990.0413532714844,702.274,532.2033532714844,467.26,532.2033532714844,467.26C532.2033532714844,467.26,531.9903532714844,467.632,531.9903532714844,467.632C531.9903532714844,467.632,531.9903532714844,467.632,531.9903532714844,467.632ZM990.1573532714843,702.46C990.1573532714843,702.46,990.1573532714843,189.997,990.1573532714843,189.997C990.1573532714843,189.997,989.7103532714843,189.997,989.7103532714843,189.997C989.7103532714843,189.997,989.7103532714843,702.46,989.7103532714843,702.46C989.7103532714843,702.46,990.1573532714843,702.46,990.1573532714843,702.46C990.1573532714843,702.46,990.1573532714843,702.46,990.1573532714843,702.46ZM530.0063532714844,464.479C530.0063532714844,465.796,530.7673532714844,467.007,531.9903532714844,467.632C531.9903532714844,467.632,532.2033532714844,467.26,532.2033532714844,467.26C531.1243532714843,466.707,530.4523532714844,465.639,530.4523532714844,464.479C530.4523532714844,464.479,530.0063532714844,464.479,530.0063532714844,464.479C530.0063532714844,464.479,530.0063532714844,464.479,530.0063532714844,464.479ZM421.5933532714844,280.443C421.5933532714844,282.069,422.53424127148435,283.563,424.0449832714844,284.338C424.0449832714844,284.338,424.2577732714844,283.967,424.2577732714844,283.967C422.89091327148435,283.266,422.03963527148437,281.914,422.03963527148437,280.443C422.03963527148437,280.443,421.5933532714844,280.443,421.5933532714844,280.443C421.5933532714844,280.443,421.5933532714844,280.443,421.5933532714844,280.443ZM623.7393532714843,0.491246C622.0883532714844,-0.362197,620.0403532714844,-0.0841828,618.7093532714844,1.17398C618.7093532714844,1.17398,619.0243532714844,1.47247,619.0243532714844,1.47247C620.2153532714844,0.346746,622.0483532714844,0.0979983,623.5253532714844,0.861601C623.5253532714844,0.861601,623.7393532714843,0.491246,623.7393532714843,0.491246C623.7393532714843,0.491246,623.7393532714843,0.491246,623.7393532714843,0.491246Z" fill="url(#master_svg5_7_10347)" fill-opacity="0.20000000298023224"/></g></g></svg>