<svg xmlns="http://www.w3.org/2000/svg" xmlns:xlink="http://www.w3.org/1999/xlink" fill="none" version="1.1" width="90" height="90" viewBox="0 0 90 90"><defs><clipPath id="master_svg0_609_1644"><rect x="23" y="23" width="45" height="45" rx="0"/></clipPath></defs><g><g><ellipse cx="44.999996185302734" cy="45" rx="44.999996185302734" ry="45" fill="#6E66FA" fill-opacity="1"/></g><g clip-path="url(#master_svg0_609_1644)"><rect x="23" y="23" width="45" height="45" rx="0" fill="#6E66FA" fill-opacity="1"/><g><path d="M43.0615,60.0707L62.1872,36.78189C62.3607,36.57065,62.3324,36.25926,62.1237,36.08276L57.091499999999996,31.827523C56.8784,31.647404,56.559200000000004,31.676419,56.3822,31.891993L42.2019,49.1589L35.19092,42.0447C34.99508,41.846000000000004,34.6745,41.846000000000004,34.47866,42.0447L29.845868,46.7457C29.654038,46.9403,29.654038,47.2529,29.845868,47.4476L42.3189,60.104299999999995C42.5273,60.315799999999996,42.873,60.3001,43.0615,60.0707" fill-rule="evenodd" fill="#FFFFFF" fill-opacity="1"/></g></g></g></svg>