<svg xmlns="http://www.w3.org/2000/svg" xmlns:xlink="http://www.w3.org/1999/xlink" fill="none" version="1.1" width="40" height="40" viewBox="0 0 40 40"><g><g><ellipse cx="20" cy="20" rx="20" ry="20" fill="#FFFFFF" fill-opacity="0.05999999865889549"/></g><g><path d="M27.727980989074705,12.966268777465821C27.721780989074706,12.95429877746582,27.711580989074708,12.94492877746582,27.69918098907471,12.93981877746582C26.25868098907471,12.27893877746582,24.73868098907471,11.80768677746582,23.176980989074707,11.53782700746582C23.147880989074707,11.53242157746582,23.118580989074708,11.54628037746582,23.104380989074706,11.57221267746582C22.897380989074705,11.94788377746582,22.709480989074706,12.33376377746582,22.541380989074707,12.72838877746582C20.857980989074708,12.47284777746582,19.145680989074705,12.47284777746582,17.462320989074705,12.72838877746582C17.29312098907471,12.33277177746582,17.102210989074706,11.94678577746582,16.890470989074707,11.57221267746582C16.87561098907471,11.546905977465821,16.84678098907471,11.53326081746582,16.817780989074706,11.53782700746582C15.255960989074708,11.80711377746582,13.735810989074707,12.27840477746582,12.295580989074708,12.939848777465821C12.283250989074707,12.94507877746582,12.272850989074707,12.954018777465821,12.265810989074707,12.96539877746582C9.385627989074708,17.26655877746582,8.596637989074708,21.46197877746582,8.983688589074706,25.60546877746582C8.985889689074707,25.625968777465822,8.996318989074707,25.64466877746582,9.012592989074706,25.65736877746582C10.689690989074707,26.89916877746582,12.565550989074707,27.846968777465822,14.560120989074708,28.46046877746582C14.588890989074706,28.46916877746582,14.619980989074708,28.45896877746582,14.638060989074706,28.43496877746582C15.066460989074706,27.85206877746582,15.446040989074707,27.23486877746582,15.772960989074708,26.58956877746582C15.782050989074708,26.57166877746582,15.783030989074707,26.55066877746582,15.775680989074708,26.53196877746582C15.768320989074706,26.513268777465818,15.753310989074707,26.49866877746582,15.734450989074707,26.491768777465822C15.135880989074707,26.262768777465823,14.556390989074707,25.98666877746582,14.001420989074706,25.66606877746582C13.980950989074707,25.65406877746582,13.967820989074706,25.63256877746582,13.966410989074706,25.608868777465823C13.965010989074706,25.58516877746582,13.975510989074706,25.56236877746582,13.994430989074708,25.54796877746582C14.111210989074706,25.46076877746582,14.225960989074707,25.37086877746582,14.338600989074706,25.27826877746582C14.358750989074707,25.26166877746582,14.386560989074706,25.25796877746582,14.410380989074707,25.26866877746582C18.046230989074708,26.92796877746582,21.98248098907471,26.92796877746582,25.575380989074706,25.26866877746582C25.599180989074707,25.257268777465818,25.62758098907471,25.26066877746582,25.647980989074707,25.27746877746582C25.760780989074707,25.37046877746582,25.87588098907471,25.46066877746582,25.993080989074706,25.54796877746582C26.012080989074708,25.56216877746582,26.022780989074707,25.584968777465818,26.021480989074707,25.60866877746582C26.020280989074706,25.63236877746582,26.007280989074708,25.65386877746582,25.986980989074706,25.66606877746582C25.433180989074707,25.98936877746582,24.85318098907471,26.26526877746582,24.253080989074707,26.49086877746582C24.23418098907471,26.498068777465818,24.219280989074708,26.512968777465822,24.212080989074707,26.53176877746582C24.20488098907471,26.55056877746582,24.206080989074707,26.57156877746582,24.215280989074706,26.58956877746582C24.547680989074706,27.23126877746582,24.926680989074708,27.84766877746582,25.349280989074707,28.43396877746582C25.36688098907471,28.45856877746582,25.398280989074706,28.46926877746582,25.427280989074706,28.46036877746582C27.425380989074707,27.84896877746582,29.304580989074708,26.90106877746582,30.983780989074706,25.65736877746582C31.000280989074707,25.64536877746582,31.010780989074707,25.62666877746582,31.012680989074706,25.60626877746582C31.475980989074706,20.81603877746582,30.236880989074706,16.65500877746582,27.727980989074705,12.966268777465821C27.727980989074705,12.966268777465821,27.727980989074705,12.966268777465821,27.727980989074705,12.966268777465821ZM16.315940989074708,23.08246877746582C15.221290989074706,23.08246877746582,14.319320989074708,22.07796877746582,14.319320989074708,20.844258777465818C14.319320989074708,19.610568777465822,15.203790989074708,18.60593877746582,16.315940989074708,18.60593877746582C17.436780989074705,18.60593877746582,18.330010989074708,19.61928877746582,18.31253098907471,20.84418877746582C18.31253098907471,22.07796877746582,17.428020989074707,23.08246877746582,16.315940989074708,23.08246877746582C16.315940989074708,23.08246877746582,16.315940989074708,23.08246877746582,16.315940989074708,23.08246877746582ZM23.698080989074708,23.08246877746582C22.603380989074708,23.08246877746582,21.701480989074707,22.07796877746582,21.701480989074707,20.844258777465818C21.701480989074707,19.610568777465822,22.58588098907471,18.60593877746582,23.698080989074708,18.60593877746582C24.818980989074706,18.60593877746582,25.712180989074707,19.61928877746582,25.69468098907471,20.84418877746582C25.69468098907471,22.07796877746582,24.818980989074706,23.08246877746582,23.698080989074708,23.08246877746582C23.698080989074708,23.08246877746582,23.698080989074708,23.08246877746582,23.698080989074708,23.08246877746582Z" fill="#FFFFFF" fill-opacity="0.7699999809265137"/></g></g></svg>