<svg xmlns="http://www.w3.org/2000/svg" xmlns:xlink="http://www.w3.org/1999/xlink" fill="none" version="1.1" width="22" height="22" viewBox="0 0 22 22"><defs><clipPath id="master_svg0_761_01073"><rect x="3" y="4" width="16" height="15" rx="0"/></clipPath><mask id="master_svg1_761_01077" style="mask-type:alpha" maskUnits="userSpaceOnUse"><g><rect x="3.002446286380291" y="4" width="15.99752140045166" height="15" rx="0" fill="#FFFFFF" fill-opacity="1"/></g></mask></defs><g><g><g></g></g><g clip-path="url(#master_svg0_761_01073)"><g><g mask="url(#master_svg1_761_01077)"><g><path d="M18.3059,14.70611328125C17.9339,14.70611328125,17.6294,14.99121328125,17.6294,15.33961328125L17.6294,16.76491328125C17.6294,17.28741328125,17.1727,17.715113281249998,16.6147,17.715113281249998L5.367789999999999,17.715113281249998C4.80976,17.715113281249998,4.35308,17.28741328125,4.35308,16.76491328125L4.35308,6.233283281249999C4.35308,5.71074328125,4.80976,5.28312328125,5.367789999999999,5.28312328125L16.6147,5.28312328125C17.1727,5.28312328125,17.6294,5.71074328125,17.6294,6.233283281249999L17.6294,6.8667932812500005C17.6294,7.21515328125,17.9339,7.50030328125,18.3059,7.50030328125C18.6779,7.50030328125,18.9825,7.21515328125,18.9825,6.8667932812500005L18.9825,6.233283281249999C18.9825,5.01383228125,17.917,4.01611328125,16.6147,4.01611328125L5.367789999999999,4.01611328125C4.0655,4.01630664725,3,5.01402528125,3,6.233283281249999L3,16.76471328125C3,17.98421328125,4.0655,18.98191328125,5.367789999999999,18.98191328125L16.6147,18.98191328125C17.917,18.98191328125,18.9825,17.98421328125,18.9825,16.76471328125L18.9825,15.33941328125C18.9825,14.99101328125,18.6779,14.70591328125,18.3059,14.70591328125L18.3059,14.70611328125Z" fill="#FFFFFF" fill-opacity="1"/></g></g></g><g><path d="M15.8365793359375,13.41499375C15.9717993359375,13.54180375,16.1410893359375,13.597093749999999,16.3186393359375,13.597093749999999C16.4961893359375,13.597093749999999,16.665269335937502,13.533693750000001,16.8006993359375,13.41499375L18.7877993359375,11.55410375L18.796269335937502,11.54617375L18.8385893359375,11.50654375C18.8470493359375,11.49862375,18.8555193359375,11.49069375,18.8555193359375,11.48277375C18.8639793359375,11.47484375,18.8724393359375,11.46691375,18.8724393359375,11.45899375C18.880909335937503,11.45106375,18.889379335937498,11.44313375,18.889379335937498,11.42728375C18.897839335937498,11.41936375,18.897839335937498,11.41143375,18.9062993359375,11.40350375C18.9147693359375,11.39558375,18.9147693359375,11.37973375,18.9232293359375,11.37180375C18.931699335937502,11.36387375,18.931699335937502,11.35595375,18.9401593359375,11.34802375C18.9486293359375,11.34009375,18.9486293359375,11.32424375,18.9486293359375,11.31632375C18.9486293359375,11.30839375,18.9570893359375,11.30046375,18.9570893359375,11.28461375C18.9570893359375,11.27669375,18.9655493359375,11.26083375,18.9655493359375,11.25291375C18.9655493359375,11.24498375,18.9740193359375,11.23705375,18.9740193359375,11.22120375C18.9740193359375,11.20535375,18.9740193359375,11.19742375,18.982479335937498,11.18157375L18.982479335937498,11.15779375C18.9909493359375,11.11816375,18.9909493359375,11.07061375,18.982479335937498,11.03117375L18.982479335937498,11.00739375C18.982479335937498,10.99154375,18.982479335937498,10.98361375,18.9740193359375,10.96776375C18.9740193359375,10.959843750000001,18.9655493359375,10.95191375,18.9655493359375,10.93606375C18.9655493359375,10.92813375,18.9570893359375,10.91228375,18.9570893359375,10.90435375C18.9570893359375,10.89643375,18.9486293359375,10.88850375,18.9486293359375,10.87265375C18.9486293359375,10.86472375,18.9401593359375,10.84887375,18.9401593359375,10.840943750000001C18.9401593359375,10.83302375,18.931699335937502,10.82509375,18.9232293359375,10.81716375C18.9147693359375,10.80924375,18.9147693359375,10.79339375,18.9062993359375,10.78546375C18.897839335937498,10.77753375,18.897839335937498,10.76961375,18.889379335937498,10.76168375C18.880909335937503,10.753763750000001,18.880909335937503,10.74583375,18.8724393359375,10.72998375C18.8639793359375,10.72205375,18.8555193359375,10.71412375,18.8555193359375,10.70620375C18.8470493359375,10.69827375,18.8470493359375,10.69035375,18.8385893359375,10.68242375C18.8301193359375,10.66657375,18.8131893359375,10.650723750000001,18.796269335937502,10.64279375L18.7877993359375,10.634863750000001L16.8006993359375,8.77397975C16.5385093359375,8.52846495,16.1072293359375,8.52846495,15.8452393359375,8.77397975C15.583049335937499,9.01949475,15.583049335937499,9.42333775,15.8452393359375,9.66885375L16.6739393359375,10.44483375L10.9913613359375,10.44483375C10.6193353359375,10.44483375,10.3148193359375,10.72998375,10.3148193359375,11.07834375C10.3148193359375,11.42670375,10.6193353359375,11.71184375,10.9913613359375,11.71184375L16.6739393359375,11.71184375L15.8452393359375,12.48783375C15.5745893359375,12.76504375,15.5745893359375,13.16096375,15.8367793359375,13.41421375L15.8365793359375,13.41499375Z" fill="#FFFFFF" fill-opacity="1"/></g></g></g></svg>