<svg xmlns="http://www.w3.org/2000/svg" xmlns:xlink="http://www.w3.org/1999/xlink" fill="none" version="1.1" width="40" height="40" viewBox="0 0 40 40"><defs><mask id="master_svg0_22_5738" style="mask-type:alpha" maskUnits="userSpaceOnUse"><g><rect x="9" y="9" width="22" height="22.000001907348633" rx="0" fill="#FFFFFF" fill-opacity="1"/></g></mask></defs><g><g><ellipse cx="20" cy="20" rx="20" ry="20" fill="#FFFFFF" fill-opacity="0.05999999865889549"/></g><g><g mask="url(#master_svg0_22_5738)"><g><path d="M19.989,9.025187020534291C13.91753,9.022668706760292,9,14.064336076760291,9,20.287086076760293C9,25.207886076760293,12.07622,29.390786076760293,16.36034,30.926986076760294C16.93728,31.075586076760292,16.8489,30.65498607676029,16.8489,30.367886076760293L16.8489,28.41618607676029C13.51735,28.81658607676029,13.38232,26.555186076760293,13.158909999999999,26.177386076760293C12.707180000000001,25.38668607676029,11.63921,25.185186076760292,11.95837,24.80748607676029C12.717,24.407086076760294,13.49035,24.90818607676029,14.38645,26.265586076760293C15.03459,27.250186076760293,16.29896,27.083986076760294,16.93974,26.92028607676029C17.07968,26.328486076760292,17.3792,25.799686076760292,17.79165,25.389186076760293C14.3398,24.75458607676029,12.90113,22.593886076760292,12.90113,20.025186076760292C12.90113,18.778616076760294,13.301300000000001,17.63278607676029,14.086929999999999,16.70856607676029C13.58609,15.184986076760293,14.13358,13.880496076760291,14.20723,13.686586076760292C15.63363,13.555636076760292,17.116500000000002,14.734206076760291,17.23189,14.827386076760291C18.042070000000002,14.603256076760292,18.96764,14.484896076760293,20.003700000000002,14.484896076760293C21.0397,14.484896076760293,21.9727,14.608286076760292,22.7902,14.834936076760293C23.0676,14.618366076760292,24.442500000000003,13.605996076760292,25.7682,13.729396076760292C25.8394,13.92330607676029,26.3746,15.197576076760292,25.9032,16.701006076760294C26.6987,17.627746076760292,27.1038,18.783656076760295,27.1038,20.032786076760292C27.1038,22.60648607676029,25.6553,24.769686076760294,22.1936,25.394186076760292C22.7706,25.97848607676029,23.128999999999998,26.78938607676029,23.128999999999998,27.68588607676029L23.128999999999998,30.518986076760292C23.148600000000002,30.745686076760293,23.128999999999998,30.969786076760293,23.4973,30.969786076760293C27.8452,29.46638607676029,30.9755,25.253186076760294,30.9755,20.289586076760294C30.9755,14.064336076760291,26.0555,9.025187020534291,19.989,9.025187020534291Z" fill="#FFFFFF" fill-opacity="0.7699999809265137"/></g></g></g></g></svg>