<svg xmlns="http://www.w3.org/2000/svg" xmlns:xlink="http://www.w3.org/1999/xlink" fill="none" version="1.1" width="23.997314453125" height="24" viewBox="0 0 23.997314453125 24"><g><g><g><path d="M18.99780188781738,8.75C16.928041887817383,8.75,15.248231887817383,7.07,15.248231887817383,5C15.248231887817383,2.9299999999999997,16.928041887817383,1.25,18.99780188781738,1.25C21.067551887817384,1.25,22.747361887817384,2.9299999999999997,22.747361887817384,5C22.747361887817384,7.07,21.067551887817384,8.75,18.99780188781738,8.75C18.99780188781738,8.75,18.99780188781738,8.75,18.99780188781738,8.75ZM18.99780188781738,2.75C17.75794188781738,2.75,16.748061887817382,3.76,16.748061887817382,5C16.748061887817382,6.24,17.75794188781738,7.25,18.99780188781738,7.25C20.237651887817382,7.25,21.24753188781738,6.24,21.24753188781738,5C21.24753188781738,3.76,20.237651887817382,2.75,18.99780188781738,2.75C18.99780188781738,2.75,18.99780188781738,2.75,18.99780188781738,2.75Z" fill="#C1C0C0" fill-opacity="1"/></g><g><path d="M11.998605207519532,13.75C11.998605207519532,13.75,6.9991882075195315,13.75,6.9991882075195315,13.75C6.589236207519531,13.75,6.249275207519531,13.41,6.249275207519531,13C6.249275207519531,12.59,6.589236207519531,12.25,6.9991882075195315,12.25C6.9991882075195315,12.25,11.998605207519532,12.25,11.998605207519532,12.25C12.408565207519532,12.25,12.748525207519531,12.59,12.748525207519531,13C12.748525207519531,13.41,12.408565207519532,13.75,11.998605207519532,13.75C11.998605207519532,13.75,11.998605207519532,13.75,11.998605207519532,13.75Z" fill="#C1C0C0" fill-opacity="1"/></g><g><path d="M15.998145207519531,17.75C15.998145207519531,17.75,6.9991882075195315,17.75,6.9991882075195315,17.75C6.589236207519531,17.75,6.249275207519531,17.41,6.249275207519531,17C6.249275207519531,16.59,6.589236207519531,16.25,6.9991882075195315,16.25C6.9991882075195315,16.25,15.998145207519531,16.25,15.998145207519531,16.25C16.40807520751953,16.25,16.74807520751953,16.59,16.74807520751953,17C16.74807520751953,17.41,16.40807520751953,17.75,15.998145207519531,17.75C15.998145207519531,17.75,15.998145207519531,17.75,15.998145207519531,17.75Z" fill="#C1C0C0" fill-opacity="1"/></g><g><path d="M14.998255041503906,22.75C14.998255041503906,22.75,8.998955041503907,22.75,8.998955041503907,22.75C3.569585041503906,22.75,1.2498550415039062,20.43,1.2498550415039062,15C1.2498550415039062,15,1.2498550415039062,9,1.2498550415039062,9C1.2498550415039062,3.57,3.569585041503906,1.25,8.998955041503907,1.25C8.998955041503907,1.25,13.998355041503906,1.25,13.998355041503906,1.25C14.408355041503906,1.25,14.748255041503906,1.59,14.748255041503906,2C14.748255041503906,2.41,14.408355041503906,2.75,13.998355041503906,2.75C13.998355041503906,2.75,8.998955041503907,2.75,8.998955041503907,2.75C4.389495041503906,2.75,2.7496850415039065,4.390000000000001,2.7496850415039065,9C2.7496850415039065,9,2.7496850415039065,15,2.7496850415039065,15C2.7496850415039065,19.61,4.389495041503906,21.25,8.998955041503907,21.25C8.998955041503907,21.25,14.998255041503906,21.25,14.998255041503906,21.25C19.607755041503907,21.25,21.247555041503905,19.61,21.247555041503905,15C21.247555041503905,15,21.247555041503905,10,21.247555041503905,10C21.247555041503905,9.59,21.587455041503905,9.25,21.997455041503905,9.25C22.407355041503905,9.25,22.747355041503905,9.59,22.747355041503905,10C22.747355041503905,10,22.747355041503905,15,22.747355041503905,15C22.747355041503905,20.43,20.427655041503908,22.75,14.998255041503906,22.75C14.998255041503906,22.75,14.998255041503906,22.75,14.998255041503906,22.75Z" fill="#C1C0C0" fill-opacity="1"/></g><g style="opacity:0;"><path d="" fill="#C1C0C0" fill-opacity="1"/></g></g></g></svg>