<svg xmlns="http://www.w3.org/2000/svg" xmlns:xlink="http://www.w3.org/1999/xlink" fill="none" version="1.1" width="40" height="40" viewBox="0 0 40 40"><g><g><ellipse cx="20" cy="20" rx="20" ry="20" fill="#FFFFFF" fill-opacity="0.05999999865889549"/></g><g><g><path d="M19.997223935546874,16.625275135040283C18.138823935546874,16.625275135040283,16.622283935546875,18.141815135040282,16.622283935546875,20.000215135040282C16.622283935546875,21.85861513504028,18.138823935546874,23.375215135040282,19.997223935546874,23.375215135040282C21.855623935546873,23.375215135040282,23.372223935546874,21.85861513504028,23.372223935546874,20.000215135040282C23.372223935546874,18.141815135040282,21.855623935546873,16.625275135040283,19.997223935546874,16.625275135040283C19.997223935546874,16.625275135040283,19.997223935546874,16.625275135040283,19.997223935546874,16.625275135040283Z" fill="#FFFFFF" fill-opacity="0.7699999809265137"/></g><g><path d="M30.11976946411133,20.000327227783202C30.11976946411133,18.602697227783203,30.132369464111328,17.217747227783203,30.05386946411133,15.822697227783202C29.975369464111328,14.202297227783202,29.60576946411133,12.764197227783203,28.420869464111327,11.579277227783203C27.233369464111327,10.391823227783203,25.79786946411133,10.024696227783203,24.177469464111326,9.946205427783203C22.77986946411133,9.867729527783203,21.39486946411133,9.880379020783202,19.999869464111327,9.880379020783202C18.602239464111328,9.880379020783202,17.217289464111328,9.867729527783203,15.822229464111327,9.946205427783203C14.201849464111328,10.024696227783203,12.763739464111328,10.394356227783202,11.578819464111328,11.579277227783203C10.391380464111329,12.766727227783203,10.024238464111328,14.202297227783202,9.945762664111328,15.822697227783202C9.867271464111328,17.220287227783203,9.879921036111329,18.605217227783204,9.879921036111329,20.000327227783202C9.879921036111329,21.395327227783206,9.867271464111328,22.7828272277832,9.945762664111328,24.1779272277832C10.024238464111328,25.7982272277832,10.393898464111327,27.236427227783203,11.578819464111328,28.421327227783202C12.766269464111328,29.608727227783202,14.201849464111328,29.975827227783203,15.822229464111327,30.054327227783205C17.219839464111327,30.132827227783203,18.604779464111328,30.120227227783204,19.999869464111327,30.120227227783204C21.397469464111328,30.120227227783204,22.782369464111326,30.132827227783203,24.177469464111326,30.054327227783205C25.79786946411133,29.975827227783203,27.235969464111328,29.606227227783204,28.420869464111327,28.421327227783202C29.608269464111327,27.233827227783202,29.975369464111328,25.7982272277832,30.05386946411133,24.1779272277832C30.13496946411133,22.7828272277832,30.11976946411133,21.397927227783203,30.11976946411133,20.000327227783202C30.11976946411133,20.000327227783202,30.11976946411133,20.000327227783202,30.11976946411133,20.000327227783202ZM19.997269464111326,25.1931272277832C17.12361946411133,25.1931272277832,14.80443946411133,22.873927227783206,14.80443946411133,20.000327227783202C14.80443946411133,17.126607227783204,17.12361946411133,14.807407227783203,19.997269464111326,14.807407227783203C22.870969464111326,14.807407227783203,25.190169464111328,17.126607227783204,25.190169464111328,20.000327227783202C25.190169464111328,22.873927227783206,22.870969464111326,25.1931272277832,19.997269464111326,25.1931272277832C19.997269464111326,25.1931272277832,19.997269464111326,25.1931272277832,19.997269464111326,25.1931272277832ZM25.402869464111326,15.807517227783203C24.731869464111327,15.807517227783203,24.19006946411133,15.265677227783204,24.19006946411133,14.594747227783202C24.19006946411133,13.923787227783203,24.731869464111327,13.381967227783203,25.402869464111326,13.381967227783203C26.07376946411133,13.381967227783203,26.615569464111328,13.923787227783203,26.615569464111328,14.594747227783202C26.613069464111327,15.268207227783204,26.07376946411133,15.807517227783203,25.402869464111326,15.807517227783203C25.402869464111326,15.807517227783203,25.402869464111326,15.807517227783203,25.402869464111326,15.807517227783203Z" fill="#FFFFFF" fill-opacity="0.7699999809265137"/></g></g></g></svg>