<svg xmlns="http://www.w3.org/2000/svg" xmlns:xlink="http://www.w3.org/1999/xlink" fill="none" version="1.1" width="212.18603515625" height="35" viewBox="0 0 212.18603515625 35"><defs><linearGradient x1="0.5" y1="0" x2="0.5" y2="1" id="master_svg0_73_684"><stop offset="0%" stop-color="#09E7F5" stop-opacity="1"/><stop offset="100%" stop-color="#4E52FF" stop-opacity="1"/></linearGradient></defs><g><g><g></g><g><path d="M30.8356046875,18.3047046875L30.8357046875,12.6925546875Q30.8357046875,12.6685246875,30.8345046875,12.6445146875Q30.8256046875,12.4582846875,30.7501046875,12.2877846875Q30.6746046875,12.1172846875,30.5428046875,11.9854446875Q30.4021046875,11.8447946875,30.2184046875,11.7686646875Q30.0346046875,11.6925446875,29.8357046875,11.6925446875Q29.7439046875,11.6925446875,29.6537046875,11.7092446875Q29.5682046875,11.7250646875,29.4867046875,11.7554046875Q29.4052046875,11.7857546875,29.3302046875,11.8297046875Q29.2552046875,11.8736646875,29.1889046875,11.9299046875Q29.1225046875,11.9861546875,29.0669046875,12.0529946875Q29.0113046875,12.1198446875,28.9681046875,12.1952846875Q28.9248046875,12.2707346875,28.8953046875,12.3525046875Q28.8657046875,12.4342846875,28.8507046875,12.5199346875Q28.8357046875,12.6055846875,28.8357046875,12.6925446875L28.8356046875,18.3047046875Q28.8356046875,18.8141046875,28.4544046875,19.1808046875Q28.0567046875,19.5634046875,27.4874046875,19.5634046875L27.1104046875,19.5634046875Q26.5411046875,19.5634046875,26.1434046875,19.1808046875Q25.7621046875,18.8141046875,25.7621046875,18.3047046875L25.7621046875,10.9863446875Q25.7621046875,7.7917146875,23.4190046875,5.5379846875Q21.0923046875,3.3000488285,17.8106046875,3.3000488285Q14.5290046875,3.3000488285,12.2022646875,5.5379946874999995Q9.859144687499999,7.7917246875,9.859144687499999,10.9863446875L9.859144687499999,18.3047046875Q9.859144687499999,18.8141046875,9.4778646875,19.1808046875Q9.0801646875,19.5634046875,8.5108746875,19.5634046875Q7.9415746875,19.5634046875,7.5438746875,19.1808046875Q7.1625946875,18.8141046875,7.1625946875,18.3047046875L7.1625946875,12.6925446875Q7.1625946875,12.5940546875,7.1433846875,12.4974546875Q7.1241646875,12.4008546875,7.0864746875,12.3098646875Q7.0487846874999995,12.2188646875,6.9940646875,12.1369746875Q6.9393446875,12.0550846875,6.8697046875000005,11.9854446875Q6.8000646875,11.9157946875,6.7181646875,11.8610746875Q6.6362746875,11.8063546875,6.545284687500001,11.7686646875Q6.4542846874999995,11.7309746875,6.3576846875,11.7117646875Q6.2610846875,11.6925446875,6.1625946875,11.6925446875Q6.0641046875,11.6925446875,5.9675046875,11.7117646875Q5.8709046874999995,11.7309746875,5.7799146875,11.7686646875Q5.6889246875,11.8063546875,5.6070246875,11.8610746875Q5.5251346875,11.9157946875,5.4554946875,11.9854446875Q5.3858446875,12.0550846875,5.3311246875,12.1369746875Q5.2764086875,12.2188646875,5.2387176875,12.3098646875Q5.2010266875,12.4008546875,5.1818126875,12.4974546875Q5.1625976875,12.5940546875,5.1625976875,12.6925446875L5.1625976875,18.3047046875Q5.1625976875,19.6654046875,6.1574246875,20.6223046875Q7.1358346875,21.5634046875,8.5108746875,21.5634046875Q9.8859046875,21.5634046875,10.8643146875,20.6223046875Q11.859144687499999,19.6654046875,11.859144687499999,18.3047046875L11.859144687499999,10.9863446875Q11.859144687499999,8.6430146875,13.5887146875,6.9794246875Q15.3347046875,5.3000446875,17.8106046875,5.3000446875Q20.2865046875,5.3000446875,22.0325046875,6.9794246875Q23.7621046875,8.6430146875,23.7621046875,10.9863446875L23.7621046875,18.3047046875Q23.7621046875,19.6654046875,24.7569046875,20.6223046875Q25.7353046875,21.5634046875,27.1104046875,21.5634046875L27.4874046875,21.5634046875Q28.8624046875,21.5634046875,29.8408046875,20.6223046875Q30.8356046875,19.6654046875,30.8356046875,18.3047046875ZM19.936204687500002,15.8365046875Q20.7233046875,15.0184046875,20.7233046875,13.8677046875Q20.7233046875,12.7168946875,19.936204687500002,11.8988146875Q19.1366046875,11.0676746875,17.9991046875,11.0676746875Q16.861604687499998,11.0676746875,16.0620046875,11.8988146875Q15.2749046875,12.7168946875,15.2749046875,13.8677046875Q15.2749046875,15.0184046875,16.0620046875,15.8365046875Q16.861604687499998,16.6677046875,17.9991046875,16.6677046875Q19.1366046875,16.6677046875,19.936204687500002,15.8365046875ZM18.7832046875,13.0081146875Q19.1233046875,13.3616046875,19.1233046875,13.8677046875Q19.1233046875,14.3737046875,18.7832046875,14.7272046875Q18.455704687500003,15.0677046875,17.9991046875,15.0677046875Q17.542604687500003,15.0677046875,17.2150046875,14.7272046875Q16.8749046875,14.3737046875,16.8749046875,13.8677046875Q16.8749046875,13.3616046875,17.2150046875,13.0081146875Q17.542604687500003,12.6676746875,17.9991046875,12.6676746875Q18.455704687500003,12.6676746875,18.7832046875,13.0081146875ZM16.614304687500002,19.4868046875L16.614304687500002,31.4868046875Q16.614304687500002,31.5853046875,16.6335046875,31.6819046875Q16.652704687499998,31.7785046875,16.6904046875,31.8695046875Q16.7281046875,31.9605046875,16.7828046875,32.042404687499996Q16.8375046875,32.1243046875,16.907104687500002,32.1939046875Q16.9768046875,32.2636046875,17.0587046875,32.3183046875Q17.1406046875,32.3730046875,17.231604687500003,32.4107046875Q17.3226046875,32.4484046875,17.4192046875,32.4676046875Q17.5158046875,32.4868046875,17.614304687500002,32.4868046875Q17.7127046875,32.4868046875,17.8093046875,32.4676046875Q17.905904687499998,32.4484046875,17.9969046875,32.4107046875Q18.0879046875,32.3730046875,18.169804687499997,32.3183046875Q18.251704687500002,32.2636046875,18.3214046875,32.1939046875Q18.3910046875,32.1243046875,18.445704687499997,32.042404687499996Q18.5004046875,31.9605046875,18.538104687500002,31.8695046875Q18.5758046875,31.7785046875,18.5950046875,31.6819046875Q18.614304687500002,31.5853046875,18.614304687500002,31.4868046875L18.614304687500002,19.4868046875Q18.614304687500002,19.3883046875,18.5950046875,19.2917046875Q18.5758046875,19.1951046875,18.538104687500002,19.104104687499998Q18.5004046875,19.0131046875,18.445704687499997,18.9312046875Q18.3910046875,18.849304687500002,18.3214046875,18.7797046875Q18.251704687500002,18.7101046875,18.169804687499997,18.6553046875Q18.0879046875,18.600604687500002,17.9969046875,18.5629046875Q17.905904687499998,18.5252046875,17.8093046875,18.506004687500003Q17.7127046875,18.486804687499998,17.614304687500002,18.486804687499998Q17.5158046875,18.486804687499998,17.4192046875,18.506004687500003Q17.3226046875,18.5252046875,17.231604687500003,18.5629046875Q17.1406046875,18.600604687500002,17.0587046875,18.6553046875Q16.9768046875,18.7101046875,16.907104687500002,18.7797046875Q16.8375046875,18.849304687500002,16.7828046875,18.9312046875Q16.7281046875,19.0131046875,16.6904046875,19.104104687499998Q16.652704687499998,19.1951046875,16.6335046875,19.2917046875Q16.614304687500002,19.3883046875,16.614304687500002,19.4868046875ZM12.8039346875,23.0641046875L12.8039346875,29.5692046875Q12.8039346875,29.6677046875,12.8231446875,29.7643046875Q12.8423646875,29.8609046875,12.8800546875,29.9519046875Q12.9177446875,30.0429046875,12.9724646875,30.1248046875Q13.0271846875,30.2067046875,13.0968246875,30.2763046875Q13.1664646875,30.3460046875,13.2483646875,30.4007046875Q13.3302546875,30.4554046875,13.4212446875,30.4931046875Q13.5122446875,30.5308046875,13.6088446875,30.5500046875Q13.7054446875,30.5692046875,13.8039346875,30.5692046875Q13.9024246875,30.5692046875,13.9990246875,30.5500046875Q14.0956246875,30.5308046875,14.1866146875,30.4931046875Q14.2776146875,30.4554046875,14.3595046875,30.4007046875Q14.4414046875,30.3460046875,14.5110046875,30.2763046875Q14.5807046875,30.2067046875,14.6354046875,30.1248046875Q14.6901046875,30.0429046875,14.7278046875,29.9519046875Q14.7655046875,29.8609046875,14.7847046875,29.7643046875Q14.8039046875,29.6677046875,14.8039046875,29.5692046875L14.8039046875,19.7473046875Q14.8039046875,19.3623046875,14.5570046875,19.0682046875Q14.3407046875,18.8105046875,14.0147746875,18.7251046875Q13.6753446875,18.6361046875,13.3512446875,18.7673046875Q12.9794346875,18.9179046875,12.8035446875,19.2770046875Q11.5688046875,21.7262046875,10.2480446875,22.8901046875Q9.2768846875,23.7462046875,6.7196746874999995,24.5467046875Q5.6388146875,24.8875046875,4.9698356875,25.7960046875Q4.2995607255,26.7064046875,4.2995607855,27.8356046875Q4.2995605465,29.2664046875,5.3187546875,30.2781046875Q6.3348746875,31.2867046875,7.7689046875,31.2867046875L8.439844687499999,31.2867046875Q9.8738846875,31.2867046875,10.8900046875,30.2781046875Q11.909194687500001,29.2664046875,11.909194687500001,27.8356046875Q11.909194687500001,27.7371046875,11.8899846875,27.6405046875Q11.8707646875,27.5439046875,11.8330746875,27.4529046875Q11.7953846875,27.3619046875,11.7406646875,27.2800046875Q11.685944687500001,27.1981046875,11.6163046875,27.1284046875Q11.5466546875,27.0588046875,11.4647646875,27.0041046875Q11.3828746875,26.9494046875,11.2918746875,26.9117046875Q11.2008846875,26.8740046875,11.1042846875,26.8548046875Q11.0076846875,26.8356046875,10.909194687500001,26.8356046875Q10.8107046875,26.8356046875,10.7141046875,26.8548046875Q10.6175046875,26.8740046875,10.5265146875,26.9117046875Q10.4355146875,26.9494046875,10.3536246875,27.0041046875Q10.2717346875,27.0588046875,10.202084687500001,27.1284046875Q10.1324446875,27.1981046875,10.0777246875,27.2800046875Q10.0230046875,27.3619046875,9.9853146875,27.4529046875Q9.9476246875,27.5439046875,9.928404687499999,27.6405046875Q9.909194687500001,27.7371046875,9.909194687500001,27.8356046875Q9.909194687500001,28.4336046875,9.4810146875,28.8587046875Q9.049774687500001,29.2867046875,8.439844687499999,29.2867046875L7.7689046875,29.2867046875Q7.1589846875,29.2867046875,6.7277346875,28.8587046875Q6.2995646875,28.4336046875,6.2995646875,27.8356046875Q6.2995646875,27.3632046875,6.5803646874999995,26.9819046875Q6.8624546875,26.5988046875,7.3171646875,26.4554046875Q10.2803346875,25.5278046875,11.5703446875,24.3906046875Q12.2026946875,23.8334046875,12.8039346875,23.0641046875ZM22.6726046875,23.0641046875L22.6726046875,29.5692046875Q22.6726046875,29.6677046875,22.6534046875,29.7643046875Q22.6342046875,29.8609046875,22.5965046875,29.9519046875Q22.5588046875,30.0429046875,22.5041046875,30.1248046875Q22.4494046875,30.2067046875,22.3797046875,30.2763046875Q22.3101046875,30.3460046875,22.2282046875,30.4007046875Q22.1463046875,30.4554046875,22.0553046875,30.4931046875Q21.9643046875,30.5308046875,21.8677046875,30.5500046875Q21.7711046875,30.5692046875,21.6726046875,30.5692046875Q21.5741046875,30.5692046875,21.4775046875,30.5500046875Q21.3809046875,30.5308046875,21.2899046875,30.4931046875Q21.1989046875,30.4554046875,21.1171046875,30.4007046875Q21.0352046875,30.3460046875,20.9655046875,30.2763046875Q20.8959046875,30.2067046875,20.8412046875,30.1248046875Q20.7864046875,30.0429046875,20.7487046875,29.9519046875Q20.7111046875,29.8609046875,20.6918046875,29.7643046875Q20.6726046875,29.6677046875,20.6726046875,29.5692046875L20.6726046875,19.7473046875Q20.6726046875,19.3623046875,20.9195046875,19.0682046875Q21.1358046875,18.8105046875,21.4618046875,18.7251046875Q21.8012046875,18.6361046875,22.1253046875,18.7673046875Q22.4971046875,18.9179046875,22.6730046875,19.2770046875Q23.9077046875,21.7262046875,25.2285046875,22.8901046875Q26.1997046875,23.7462046875,28.7569046875,24.5467046875Q29.8377046875,24.8875046875,30.5067046875,25.7960046875Q31.1770046875,26.7064046875,31.1770046875,27.8356046875Q31.1770046875,29.2664046875,30.1578046875,30.2781046875Q29.1417046875,31.2867046875,27.7077046875,31.2867046875L27.0367046875,31.2867046875Q25.6027046875,31.2867046875,24.5866046875,30.2781046875Q23.5674046875,29.2664046875,23.5674046875,27.8356046875Q23.5674046875,27.7371046875,23.5866046875,27.6405046875Q23.6058046875,27.5439046875,23.6435046875,27.4529046875Q23.6812046875,27.3619046875,23.7359046875,27.2800046875Q23.7906046875,27.1981046875,23.8603046875,27.1284046875Q23.9299046875,27.0588046875,24.0118046875,27.0041046875Q24.0937046875,26.9494046875,24.1847046875,26.9117046875Q24.2757046875,26.8740046875,24.3723046875,26.8548046875Q24.4689046875,26.8356046875,24.5674046875,26.8356046875Q24.6659046875,26.8356046875,24.7625046875,26.8548046875Q24.8590046875,26.8740046875,24.9500046875,26.9117046875Q25.0410046875,26.9494046875,25.1229046875,27.0041046875Q25.2048046875,27.0588046875,25.2745046875,27.1284046875Q25.3441046875,27.1981046875,25.3988046875,27.2800046875Q25.4535046875,27.3619046875,25.4912046875,27.4529046875Q25.5289046875,27.5439046875,25.5481046875,27.6405046875Q25.5674046875,27.7371046875,25.5674046875,27.8356046875Q25.5674046875,28.4336046875,25.9955046875,28.8587046875Q26.4268046875,29.2867046875,27.0367046875,29.2867046875L27.7077046875,29.2867046875Q28.3176046875,29.2867046875,28.7488046875,28.8587046875Q29.1770046875,28.4336046875,29.1770046875,27.8356046875Q29.1770046875,27.3632046875,28.8962046875,26.9819046875Q28.6141046875,26.5988046875,28.1594046875,26.4554046875Q25.1962046875,25.5278046875,23.9062046875,24.3906046875Q23.2739046875,23.8334046875,22.6726046875,23.0641046875Z" fill-rule="evenodd" fill="url(#master_svg0_73_684)" fill-opacity="1"/></g></g><g><g><path d="M53.1421,17.650764774780274C53.127,21.641234774780273,50.2141,24.400134774780273,46.03485,24.38563477478027C41.87666,24.368234774780273,39,21.580334774780276,39,17.560924774780275C39,13.697954774780273,41.96109,10.895638504780273,46.04993,10.898536450270273C50.247299999999996,10.898536450270273,53.1571,13.671874774780274,53.1421,17.650764774780274ZM49.837199999999996,17.566724774780273C49.8282,15.294724774780274,48.34462,13.897914774780274,45.98057,13.938484774780274C43.74619,13.976154774780273,42.29278,15.439624774780274,42.31389,17.636274774780272C42.335,19.911164774780275,43.86077,21.409434774780273,46.11928,21.374634774780276C48.40191,21.33983477478027,49.8463,19.861894774780275,49.834199999999996,17.569614774780273L49.837199999999996,17.566724774780273Z" fill="#FFFFFF" fill-opacity="1"/></g><g><path d="M96.0882484375,17.529045087280274C96.1032484375,21.56590508728027,93.2748484375,24.345005087280274,89.1106484375,24.38270508728027C84.8800984375,24.423305087280273,81.9431257175,21.612305087280273,81.9521714429,17.537745087280275C81.9612171775,13.677675087280274,84.9343684375,10.884048987280273,89.0232084375,10.895640462680273C93.1633484375,10.907232287280273,96.0731484375,13.639995087280273,96.0882484375,17.529045087280274ZM92.7863484375,17.644965087280273C92.8105484375,15.361385087280272,91.3570984375,13.929795087280274,89.0141584375,13.929795087280274C86.7677184375,13.929795087280274,85.2871684375,15.358485087280274,85.2630484375,17.552235087280273C85.2389284375,19.818425087280275,86.7435884375,21.36300508728027,88.9840084375,21.371705087280276C91.2756884375,21.383305087280274,92.7592484375,19.925655087280273,92.7833484375,17.644965087280273L92.7863484375,17.644965087280273Z" fill="#FFFFFF" fill-opacity="1"/></g><g><path d="M110.54948381,11.252050399780273L113.863375,11.252050399780273C113.863375,13.599390399780273,113.854325,15.885870399780273,113.863375,18.169460399780274C113.875435,20.421170399780273,114.764965,21.409350399780273,116.734005,21.383250399780273C118.850785,21.354350399780273,119.842845,20.354510399780274,119.860935,18.192640399780274C119.87600499999999,15.906160399780273,119.863955,13.619680399780274,119.863955,11.263642799780273L123.075275,11.263642799780273L123.075275,24.304450399780272C121.893275,24.066750399780275,120.810775,23.823350399780274,119.719215,23.64945039978027C119.456875,23.606050399780273,119.161365,23.814650399780273,118.874915,23.85815039978027C117.695905,24.037850399780275,116.504835,24.397150399780273,115.337895,24.33055039978027C112.566765,24.171150399780274,110.872135,22.475850399780274,110.5766302,19.832890399780275C110.5344153,19.453250399780273,110.54949302,19.067830399780274,110.54949302,18.685300399780274C110.54949302,16.251020399780273,110.54949302,13.813840399780274,110.54949302,11.254950969780273L110.54948381,11.252050399780273Z" fill="#FFFFFF" fill-opacity="1"/></g><g><path d="M100.9119396875,20.143368837280274L100.9119396875,24.02369883728027L97.7216796875,24.02369883728027L97.7216796875,11.411839837280274C100.5500996875,11.411839837280274,103.4056496875,11.185799837280273,106.2039096875,11.481390837280273C108.6161796875,11.736409837280274,109.7831796875,13.660648837280274,109.6142796875,16.129708837280273C109.4604796875,18.378518837280275,107.8894796875,19.960798837280272,105.4952896875,20.123078837280275C104.0147496875,20.22160883728027,102.5191296875,20.140468837280274,100.9119396875,20.140468837280274L100.9119396875,20.143368837280274ZM100.9752596875,17.167168837280272C102.3834396875,17.167168837280272,103.6468796875,17.309168837280275,104.8469896875,17.103418837280273C105.3987996875,17.007778837280274,106.1616896875,16.257208837280274,106.2008896875,15.755868837280273C106.2370796875,15.303788837280273,105.4772096875,14.451788837280274,104.9645896875,14.373548837280273C103.6800496875,14.170688837280274,102.3351896875,14.306888837280272,100.9752596875,14.306888837280272L100.9752596875,17.167168837280272Z" fill="#FFFFFF" fill-opacity="1"/></g><g><path d="M160.13159,24.03870196228027L156.875,24.03870196228027L156.875,11.441276362280274C159.76372,11.441276362280274,162.66149,11.223929962280273,165.50498,11.510826962280273C167.7967,11.739764962280274,168.9546,13.678491962280273,168.8159,16.092491962280274C168.6922,18.239871962280272,167.2539,19.830841962280275,165.02553,20.077171962280275C163.44849,20.251041962280276,161.84734,20.230761962280273,160.13159,20.303211962280272L160.13159,24.041601962280275L160.13159,24.03870196228027ZM160.17079,17.208201962280274C161.47644,17.208201962280274,162.61625,17.260361962280275,163.75003,17.19081196228027C164.6456,17.135751962280274,165.44466,16.785101962280272,165.47784000000001,15.767911962280273C165.511,14.759431962280274,164.79034,14.318941962280274,163.86161,14.266781962280273C162.64642,14.200121962280274,161.42218,14.249391962280274,160.17079999999999,14.249391962280274L160.17079999999999,17.205301962280274L160.17079,17.208201962280274Z" fill="#FFFFFF" fill-opacity="1"/></g><g><path d="M69.3984375,12.625581337280273Q70.0467415,12.582111337280274,71.3131975,12.625581337280273L71.3131975,11.243261337280273L74.59692749999999,11.243261337280273L74.59692749999999,12.628481337280274L81.2609375,12.628481337280274L81.2609375,15.616271337280274L74.59692749999999,15.616271337280274C74.59692749999999,16.937731337280272,74.6723175,18.079531337280272,74.7175475,19.221321337280273C74.7718175,20.59495133728027,75.5648675,21.423761337280276,77.0031975,21.319461337280273C78.4143875,21.215111337280273,79.8044375,20.852861337280274,81.2518375,20.59495133728027L81.2518375,23.701561337280275C78.5440475,24.40286133728027,75.7638775,25.121561337280273,73.2309675,23.374061337280274C70.4809575,21.475961337280275,71.6720275,18.317161337280275,71.3131975,15.619171337280275C70.7372575,15.540921337280274,70.1191125,15.613371337280274,69.39843980054,15.514841337280274L69.3984375,12.625581337280273Z" fill="#FFFFFF" fill-opacity="1"/></g><g><path d="M141.4302646875,22.67904821228027C141.3006046875,23.609298212280272,140.7276946875,24.301908212280274,139.5516946875,24.374348212280275C138.4510836875,24.443908212280274,137.4921990875,23.560028212280272,137.5525009275,22.522558212280273C137.6158210875,21.430034212280272,138.2400036875,20.754812212280275,139.4159946875,20.682363442280273C140.5135946875,20.615710712280272,141.4332746875,21.493789212280273,141.4272446875,22.676158212280274L141.4302646875,22.67904821228027Z" fill="#FFFFFF" fill-opacity="1"/></g><g><path d="M131.11596,13.615463212280273C130.35546,13.615463212280273,129.82183,13.888973212280273,129.82183,14.459413212280273C129.82183,16.222333212280272,137.0274,15.378383212280273,137.0019,20.043533212280273C137.0019,22.798883212280273,134.53982,24.361783212280272,131.19106,24.361783212280272C128.88239,24.361783212280272,126.67438,23.716283212280274,125,22.450383212280272L126.42035,19.596553212280273C127.99407,20.66398321228027,129.76912,21.259483212280273,131.29171,21.259483212280273C132.1289,21.259483212280273,132.73762,20.985983212280274,132.73762,20.440503212280273C132.73762,18.604133212280274,125.658248,19.52154321228027,125.658248,14.881393212280273C125.658248,12.076043212280274,128.06917,10.538183212280273,131.29171,10.538183212280273C133.27126,10.538183212280273,135.2748,11.083623212280273,137.0003,12.101053212280274L135.4777,14.979853212280274C133.77771,14.110893212280274,132.22955,13.613903212280274,131.11276,13.613903212280274L131.11596,13.615463212280273Z" fill="#FFFFFF" fill-opacity="1"/></g><g><path d="M149.11596,13.615463212280273C148.35546,13.615463212280273,147.82183,13.888973212280273,147.82183,14.459413212280273C147.82183,16.222333212280272,155.0274,15.378383212280273,155.0019,20.043533212280273C155.0019,22.798883212280273,152.53982,24.361783212280272,149.19106,24.361783212280272C146.88239,24.361783212280272,144.67438,23.716283212280274,143,22.450383212280272L144.42035,19.596553212280273C145.99407,20.66398321228027,147.76912,21.259483212280273,149.29171,21.259483212280273C150.1289,21.259483212280273,150.73762,20.985983212280274,150.73762,20.440503212280273C150.73762,18.604133212280274,143.658248,19.52154321228027,143.658248,14.881393212280273C143.658248,12.076043212280274,146.06917,10.538183212280273,149.29171,10.538183212280273C151.27126,10.538183212280273,153.2748,11.083623212280273,155.0003,12.101053212280274L153.4777,14.979853212280274C151.77771,14.110893212280274,150.22955,13.613903212280274,149.11276,13.613903212280274L149.11596,13.615463212280273Z" fill="#FFFFFF" fill-opacity="1"/></g><g><path d="M182.2704,15.427213837280274L182.2704,24.16367383728027L177.83045,24.16367383728027L177.83045,22.649173837280273C176.94213,23.766673837280273,175.54735,24.362073837280274,173.69402,24.362073837280274C170.75107,24.362073837280274,169,22.624173837280274,169,20.167383837280273C169,17.710563837280272,170.85173,16.146133837280274,174.25321,16.09768383728027L177.83045,16.09768383728027L177.83045,15.949213837280274C177.83045,14.683293837280274,176.94213,13.939363837280274,175.21663,13.939363837280274C174.07427,13.939363837280274,172.57724,14.311323837280273,171.10577,15.006803837280273L169.862758,12.027983837280274C172.01964,11.085570837280274,173.99919,10.563573837280273,176.25673,10.563573837280273C180.0369,10.563573837280273,182.2449,12.349933837280274,182.2704,15.428773837280273L182.2704,15.427213837280274ZM177.83045,19.621953837280273L177.83045,18.456053837280272L175.14153,18.456053837280272C173.87296,18.456053837280272,173.23868,18.903033837280276,173.23868,19.84544383728027C173.23868,20.787873837280273,173.92409,21.359873837280276,175.09041,21.359873837280276C176.43567,21.359873837280276,177.55245,20.639373837280274,177.83045,19.621953837280273Z" fill="#FFFFFF" fill-opacity="1"/></g><g><path d="M191.481135625,14.235918212280273C189.857885625,14.235918212280273,188.741095625,15.551848212280273,188.741095625,17.486678212280275C188.741095625,19.421508212280273,189.857875625,20.737458212280274,191.481135625,20.737458212280274C192.673015625,20.737458212280274,193.612455625,20.265448212280273,194.170045625,19.223018212280273L197.493265625,21.08435821228027C196.402065625,23.144258212280274,194.170045625,24.311758212280274,191.251085625,24.311758212280274C187.013995625,24.311758212280274,184.197265625,21.606358212280274,184.197265625,17.510118212280275C184.197265625,13.413848212280273,187.039555625,10.585058212280273,191.302195625,10.585058212280273C194.067815625,10.585058212280273,196.250265625,11.750958212280274,197.442165625,13.762368212280274L194.168465625,15.623738212280273C193.559735625,14.754788212280275,192.645865625,14.234348212280274,191.479555625,14.234348212280274L191.481135625,14.235918212280273Z" fill="#FFFFFF" fill-opacity="1"/></g><g><path d="M62.28387,14.235918212280273C60.66062,14.235918212280273,59.54383,15.551848212280273,59.54383,17.486678212280275C59.54383,19.421508212280273,60.66061,20.737458212280274,62.28387,20.737458212280274C63.47575,20.737458212280274,64.41519,20.265448212280273,64.97278,19.223018212280273L68.29599999999999,21.08435821228027C67.2048,23.144258212280274,64.97278,24.311758212280274,62.05382,24.311758212280274C57.81673,24.311758212280274,55,21.606358212280274,55,17.510118212280275C55,13.413848212280273,57.84229,10.585058212280273,62.10493,10.585058212280273C64.87055,10.585058212280273,67.053,11.750958212280274,68.2449,13.762368212280274L64.9712,15.623738212280273C64.36247,14.754788212280275,63.4486,14.234348212280274,62.28229,14.234348212280274L62.28387,14.235918212280273Z" fill="#FFFFFF" fill-opacity="1"/></g><g><path d="M212.1591484375,18.629914462280276L202.6193784375,18.629914462280276C203.0507484375,20.144324462280274,204.1930984375,20.988264462280274,205.7396784375,20.988264462280274C206.9075984375,20.988264462280274,208.0483284375,20.51629446228027,208.9622484375,19.623894462280273L211.3220484375,21.932264462280273C209.9272484375,23.471664462280273,207.8710084375,24.315664462280274,205.3338784375,24.315664462280274C200.8427584375,24.315664462280274,198.0771484375,21.610264462280274,198.0771484375,17.514024462280275C198.0771484375,13.417754462280273,200.9449984375,10.588964462280273,205.2332184375,10.588964462280273C210.0294484375,10.588964462280273,212.4643484375,13.741264462280274,212.1608484375,18.631474462280273L212.1591484375,18.629914462280276ZM207.7943084375,16.271544462280275C207.7943084375,14.732124462280273,206.7797784375,13.689694462280274,205.2571684375,13.689694462280274C203.7345584375,13.689694462280274,202.8206884375,14.732124462280273,202.5171184375,16.271544462280275L207.7943084375,16.271544462280275Z" fill="#FFFFFF" fill-opacity="1"/></g></g></g></svg>