<svg xmlns="http://www.w3.org/2000/svg" xmlns:xlink="http://www.w3.org/1999/xlink" fill="none" version="1.1" width="22" height="22" viewBox="0 0 22 22"><g><g></g><g><path d="M19.310005681610107,11.506273747253418L19.310005681610107,7.978653747253418Q19.310005681610107,7.923863747253418,19.299405681610107,7.870133747253418Q19.288705681610107,7.816403747253418,19.267705681610106,7.765783747253418Q19.24670568161011,7.715173747253418,19.21630568161011,7.669613747253418Q19.18590568161011,7.624063747253418,19.147105681610107,7.585323747253418Q19.108405681610108,7.546583747253418,19.062805681610108,7.516143747253418Q19.017305681610107,7.485713747253418,18.966705681610108,7.464743747253418Q18.91600568161011,7.443773747253418,18.862305681610106,7.433093747253418Q18.808605681610107,7.422403747253418,18.753805681610107,7.422403747253418Q18.643205681610105,7.422403747253418,18.540905681610106,7.464743747253418Q18.43870568161011,7.507083747253418,18.360505681610107,7.585323747253418Q18.282205681610108,7.663553747253418,18.239905681610107,7.765783747253418Q18.197505681610107,7.868003747253418,18.197505681610107,7.978643747253418L18.197505681610107,11.506263747253419Q18.197505681610107,11.857263747253418,17.93570568161011,12.109123747253419Q17.66470568161011,12.369723747253419,17.277705681610108,12.369723747253419L17.040705681610106,12.369723747253419Q16.653705681610106,12.369723747253419,16.382805681610108,12.109123747253419Q16.120905681610108,11.857263747253418,16.120905681610108,11.506263747253419L16.120905681610108,6.906183747253418Q16.120905681610108,4.928913747253418,14.670305681610108,3.5336237472534178Q13.228805681610108,2.147114396253418,11.195175681610108,2.147114336253418Q9.161555681610107,2.1471142772534177,7.720065681610107,3.5336237472534178Q6.269435681610108,4.928913747253418,6.269435681610108,6.906183747253418L6.269435681610108,11.506263747253419Q6.269435681610108,11.857263747253418,6.007585681610108,12.109123747253419Q5.736605681610108,12.369723747253419,5.3496256816101075,12.369723747253419Q4.962645681610107,12.369723747253419,4.691665681610107,12.109123747253419Q4.4298156816101075,11.857263747253418,4.4298156816101075,11.506263747253419L4.4298156816101075,7.978653747253418Q4.4298156816101075,7.923863747253418,4.419135681610108,7.870133747253418Q4.408445681610107,7.816393747253418,4.387475681610107,7.765783747253418Q4.366515681610108,7.715163747253418,4.336075681610107,7.669613747253418Q4.305635681610108,7.624063747253418,4.266895681610107,7.585323747253418Q4.228155681610107,7.546583747253418,4.182605681610108,7.516143747253418Q4.137055681610107,7.485703747253418,4.086435681610108,7.464743747253418Q4.035825681610108,7.443773747253418,3.9820856816101076,7.433093747253418Q3.9283556816101077,7.422403747253418,3.873565681610107,7.422403747253418Q3.818785681610107,7.422403747253418,3.7650496816101073,7.433093747253418Q3.7113166816101075,7.443773747253418,3.6607016816101074,7.464743747253418Q3.6100856816101077,7.485703747253418,3.5645326816101073,7.516143747253418Q3.5189796816101073,7.546583747253418,3.4802406816101072,7.585323747253418Q3.4415016816101076,7.624063747253418,3.4110636816101074,7.669613747253418Q3.3806266816101074,7.715163747253418,3.3596606816101073,7.765783747253418Q3.3386956816101074,7.816393747253418,3.3280066816101073,7.870133747253418Q3.3173186816101072,7.923863747253418,3.3173186816101072,7.978653747253418L3.3173186816101072,11.506263747253419Q3.3173186816101072,12.330823747253419,3.9204556816101075,12.910923747253419Q4.514455681610107,13.482223747253418,5.3496256816101075,13.482223747253418Q6.184795681610107,13.482223747253418,6.778805681610107,12.910923747253419Q7.381935681610107,12.330823747253419,7.381935681610107,11.506263747253419L7.381935681610107,6.906183747253418Q7.381935681610107,5.402443747253418,8.491275681610109,4.335423747253418Q9.609755681610107,3.259613747253418,11.195175681610108,3.259613747253418Q12.780605681610107,3.259613747253418,13.899105681610108,4.335423747253418Q15.008405681610107,5.402453747253418,15.008405681610107,6.906183747253418L15.008405681610107,11.506263747253419Q15.008405681610107,12.330823747253419,15.611605681610108,12.910923747253419Q16.20560568161011,13.482223747253418,17.040705681610106,13.482223747253418L17.277705681610108,13.482223747253418Q18.11290568161011,13.482223747253418,18.70690568161011,12.910923747253419Q19.310005681610107,12.330823747253419,19.310005681610107,11.506273747253418ZM12.569745681610108,9.991933747253418Q13.079405681610108,9.462203747253419,13.079405681610108,8.717343747253418Q13.079405681610108,7.972483747253418,12.569745681610108,7.442753747253418Q12.051375681610107,6.903953747253418,11.313665681610107,6.903953747253418Q10.575955681610107,6.903953747253418,10.057585681610107,7.442753747253418Q9.547935681610108,7.972483747253418,9.547935681610108,8.717343747253418Q9.547935681610108,9.462203747253419,10.057585681610107,9.991933747253418Q10.575955681610107,10.530733747253418,11.313665681610107,10.530733747253418Q12.051375681610107,10.530733747253418,12.569745681610108,9.991933747253418ZM11.768035681610108,8.214063747253418Q11.966885681610107,8.420753747253418,11.966885681610107,8.717343747253418Q11.966885681610107,9.013933747253418,11.768035681610108,9.220623747253418Q11.577915681610108,9.418233747253417,11.313665681610107,9.418233747253417Q11.049415681610107,9.418233747253417,10.859295681610108,9.220623747253418Q10.660435681610107,9.013933747253418,10.660435681610107,8.717343747253418Q10.660435681610107,8.420753747253418,10.859295681610108,8.214063747253418Q11.049415681610107,8.016453747253419,11.313665681610107,8.016453747253419Q11.577915681610108,8.016453747253419,11.768035681610108,8.214063747253418ZM10.515525681610107,12.249223747253417L10.515525681610107,19.792123747253417Q10.515525681610107,19.846923747253417,10.526215681610108,19.90062374725342Q10.536905681610108,19.95432374725342,10.557875681610106,20.005023747253418Q10.578835681610109,20.055623747253417,10.609275681610107,20.101123747253418Q10.639715681610108,20.146723747253418,10.678455681610107,20.185423747253417Q10.717195681610107,20.22422374725342,10.762745681610108,20.25462374725342Q10.808295681610108,20.28502374725342,10.858915681610107,20.30602374725342Q10.909525681610107,20.327023747253417,10.963265681610107,20.337723747253417Q11.016995681610107,20.348323747253417,11.071785681610107,20.348323747253417Q11.126565681610108,20.348323747253417,11.180295681610108,20.337723747253417Q11.234035681610107,20.327023747253417,11.284645681610108,20.30602374725342Q11.335265681610107,20.28502374725342,11.380815681610107,20.25462374725342Q11.426365681610108,20.22422374725342,11.465105681610108,20.185423747253417Q11.503845681610107,20.146723747253418,11.534285681610108,20.101123747253418Q11.564715681610107,20.055623747253417,11.585685681610107,20.005023747253418Q11.606655681610107,19.95432374725342,11.617335681610108,19.90062374725342Q11.628025681610108,19.846923747253417,11.628025681610108,19.792123747253417L11.628025681610108,12.249223747253417Q11.628025681610108,12.194523747253418,11.617345681610107,12.140743747253419Q11.606655681610107,12.087013747253417,11.585685681610107,12.036393747253419Q11.564725681610108,11.985783747253418,11.534285681610108,11.940223747253418Q11.503845681610107,11.894673747253417,11.465105681610108,11.855933747253419Q11.426365681610108,11.817193747253418,11.380815681610107,11.786753747253417Q11.335265681610107,11.756323747253418,11.284645681610108,11.735353747253418Q11.234035681610107,11.714393747253418,11.180295681610108,11.703703747253417Q11.126565681610108,11.693013747253419,11.071785681610107,11.693013747253419Q11.016995681610107,11.693013747253419,10.963265681610107,11.703703747253417Q10.909525681610107,11.714393747253418,10.858915681610107,11.735353747253418Q10.808295681610108,11.756323747253418,10.762745681610108,11.786753747253417Q10.717195681610107,11.817193747253418,10.678455681610107,11.855933747253419Q10.639715681610108,11.894673747253417,10.609275681610107,11.940223747253418Q10.578835681610109,11.985783747253418,10.557875681610106,12.036393747253419Q10.536905681610108,12.087013747253417,10.526215681610108,12.140743747253419Q10.515525681610107,12.194523747253418,10.515525681610107,12.249223747253417ZM8.120535681610107,14.283223747253418L8.120535681610107,18.58672374725342Q8.120535681610107,18.64152374725342,8.131225681610108,18.69522374725342Q8.141915681610108,18.749023747253418,8.162875681610107,18.799623747253417Q8.183845681610109,18.850223747253416,8.214275681610108,18.895723747253417Q8.244715681610106,18.941323747253417,8.283455681610107,18.98002374725342Q8.322195681610108,19.018823747253418,8.367745681610106,19.049223747253418Q8.413305681610108,19.079723747253418,8.463915681610107,19.10062374725342Q8.514535681610107,19.12162374725342,8.568265681610107,19.13232374725342Q8.621995681610107,19.14302374725342,8.676785681610108,19.14302374725342Q8.731575681610106,19.14302374725342,8.785305681610108,19.13232374725342Q8.839035681610106,19.12162374725342,8.889655681610108,19.10062374725342Q8.940265681610107,19.079723747253418,8.985825681610107,19.049223747253418Q9.031375681610108,19.018823747253418,9.070115681610108,18.98002374725342Q9.108855681610107,18.941323747253417,9.139285681610108,18.895723747253417Q9.169725681610107,18.850223747253416,9.190695681610109,18.799623747253417Q9.211655681610107,18.749023747253418,9.222345681610108,18.69522374725342Q9.233035681610108,18.64152374725342,9.233035681610108,18.58672374725342L9.233035681610108,12.412923747253418Q9.233035681610108,11.956263747253418,8.790965681610107,11.840343747253417Q8.320935681610107,11.717093747253418,8.112105681610107,12.150723747253418Q7.329905681610107,13.702023747253419,6.489475681610108,14.442723747253417Q5.867495681610107,14.990923747253419,4.245425681610108,15.498723747253418Q3.5886736816101075,15.705823747253419,3.1821626816101074,16.257923747253418Q2.7749300003101074,16.81092374725342,2.7749299407101073,17.49702374725342Q2.7749300003101074,18.366223747253418,3.3941926816101073,18.980923747253417Q4.011745681610107,19.594023747253416,4.883335681610108,19.594023747253416L5.3050756816101075,19.594023747253416Q6.176665681610107,19.594023747253416,6.794225681610107,18.980923747253417Q7.413485681610108,18.366223747253418,7.413485681610108,17.49702374725342Q7.413485681610108,17.44222374725342,7.402795681610107,17.38842374725342Q7.392105681610108,17.33472374725342,7.371145681610107,17.284123747253417Q7.350175681610107,17.233523747253418,7.319745681610107,17.187923747253418Q7.289305681610108,17.142423747253417,7.250565681610108,17.103623747253415Q7.211825681610107,17.064923747253417,7.166275681610108,17.034523747253417Q7.120715681610108,17.00402374725342,7.070105681610108,16.983123747253416Q7.019485681610107,16.96212374725342,6.965755681610108,16.95142374725342Q6.912025681610108,16.94072374725342,6.857235681610107,16.94072374725342Q6.8024456816101075,16.94072374725342,6.748715681610108,16.95142374725342Q6.694985681610108,16.96212374725342,6.6443656816101075,16.983123747253416Q6.593755681610107,17.00402374725342,6.548195681610107,17.034523747253417Q6.502645681610107,17.064923747253417,6.4639056816101075,17.103623747253415Q6.425165681610107,17.142423747253417,6.394735681610108,17.187923747253418Q6.364295681610107,17.233523747253418,6.343325681610107,17.284123747253417Q6.3223656816101075,17.33472374725342,6.311675681610108,17.38842374725342Q6.300985681610108,17.44222374725342,6.300985681610108,17.49702374725342Q6.300985681610108,17.903023747253417,6.0104756816101075,18.191423747253417Q5.718255681610108,18.48152374725342,5.3050756816101075,18.48152374725342L4.883335681610108,18.48152374725342Q4.470155681610107,18.48152374725342,4.177945681610107,18.191423747253417Q3.8874256816101074,17.903023747253417,3.8874256816101074,17.49702374725342Q3.8874256816101074,16.778023747253417,4.5777856816101075,16.560423747253417Q6.425665681610107,15.982023747253418,7.224995681610108,15.277323747253417Q7.685745681610108,14.871323747253419,8.120535681610107,14.283223747253418ZM14.178905681610107,14.283223747253418L14.178905681610107,18.58672374725342Q14.178905681610107,18.64152374725342,14.168205681610107,18.69522374725342Q14.157605681610107,18.749023747253418,14.136605681610108,18.799623747253417Q14.115605681610107,18.850223747253416,14.085205681610107,18.895723747253417Q14.054805681610107,18.941323747253417,14.016005681610107,18.98002374725342Q13.977305681610108,19.018823747253418,13.931705681610108,19.049223747253418Q13.886205681610107,19.079723747253418,13.835605681610108,19.10062374725342Q13.784905681610107,19.12162374725342,13.731205681610108,19.13232374725342Q13.677505681610107,19.14302374725342,13.622705681610107,19.14302374725342Q13.567905681610107,19.14302374725342,13.514205681610107,19.13232374725342Q13.460405681610107,19.12162374725342,13.409805681610107,19.10062374725342Q13.359205681610108,19.079723747253418,13.313605681610108,19.049223747253418Q13.268105681610107,19.018823747253418,13.229405681610107,18.98002374725342Q13.190605681610107,18.941323747253417,13.160205681610108,18.895723747253417Q13.129705681610107,18.850223747253416,13.108805681610107,18.799623747253417Q13.087805681610108,18.749023747253418,13.077105681610107,18.69522374725342Q13.066405681610107,18.64152374725342,13.066405681610107,18.58672374725342L13.066405681610107,12.412923747253418Q13.066405681610107,11.956263747253418,13.508505681610107,11.840343747253417Q13.978505681610107,11.717093747253418,14.187405681610107,12.150723747253418Q14.969605681610107,13.702023747253419,15.810005681610107,14.442723747253417Q16.432005681610107,14.990923747253419,18.054005681610107,15.498723747253418Q18.710805681610108,15.705823747253419,19.11730568161011,16.257923747253418Q19.52450568161011,16.81092374725342,19.52450568161011,17.49702374725342Q19.52450568161011,18.366223747253418,18.90530568161011,18.980923747253417Q18.287705681610106,19.594023747253416,17.416105681610105,19.594023747253416L16.994405681610107,19.594023747253416Q16.122805681610107,19.594023747253416,15.505205681610107,18.980923747253417Q14.886005681610108,18.366223747253418,14.886005681610108,17.49702374725342Q14.886005681610108,17.44222374725342,14.896705681610108,17.38842374725342Q14.907405681610108,17.33472374725342,14.928305681610107,17.284123747253417Q14.949305681610108,17.233523747253418,14.979705681610108,17.187923747253418Q15.010205681610108,17.142423747253417,15.048905681610107,17.103623747253415Q15.087605681610107,17.064923747253417,15.133205681610107,17.034523747253417Q15.178705681610108,17.00402374725342,15.229405681610107,16.983123747253416Q15.280005681610108,16.96212374725342,15.333705681610107,16.95142374725342Q15.387405681610108,16.94072374725342,15.442205681610107,16.94072374725342Q15.497005681610107,16.94072374725342,15.550805681610107,16.95142374725342Q15.604505681610107,16.96212374725342,15.655105681610108,16.983123747253416Q15.705705681610107,17.00402374725342,15.751305681610107,17.034523747253417Q15.796805681610108,17.064923747253417,15.835605681610108,17.103623747253415Q15.874305681610107,17.142423747253417,15.904705681610107,17.187923747253418Q15.935205681610107,17.233523747253418,15.956105681610108,17.284123747253417Q15.977105681610107,17.33472374725342,15.987805681610107,17.38842374725342Q15.998505681610107,17.44222374725342,15.998505681610107,17.49702374725342Q15.998505681610107,17.903023747253417,16.289005681610107,18.191423747253417Q16.581205681610108,18.48152374725342,16.994405681610107,18.48152374725342L17.416105681610105,18.48152374725342Q17.82930568161011,18.48152374725342,18.12150568161011,18.191423747253417Q18.412005681610108,17.903023747253417,18.412005681610108,17.49702374725342Q18.412005681610108,16.778023747253417,17.721705681610107,16.560423747253417Q15.873805681610108,15.982023747253418,15.074505681610107,15.277323747253417Q14.613705681610108,14.871323747253419,14.178905681610107,14.283223747253418ZM9.097915681610107,12.666623747253418Q9.106665681610107,12.650023747253417,9.114945681610108,12.632323747253418Q9.111745681610106,12.639223747253418,9.108355681610107,12.645923747253418Q9.103115681610108,12.656323747253419,9.097915681610107,12.666623747253418ZM13.201605681610108,12.666623747253418Q13.192805681610107,12.650023747253417,13.184605681610108,12.632423747253418Q13.187705681610108,12.639223747253418,13.191105681610107,12.645923747253418Q13.196405681610107,12.656323747253419,13.201605681610108,12.666623747253418Z" fill-rule="evenodd" fill="#FFFFFF" fill-opacity="1"/></g></g></svg>