<svg xmlns="http://www.w3.org/2000/svg" xmlns:xlink="http://www.w3.org/1999/xlink" fill="none" version="1.1" width="243.5858154296875" height="32.60870361328125" viewBox="0 0 243.5858154296875 32.60870361328125"><defs><linearGradient x1="0.5" y1="0" x2="0.5" y2="1" id="master_svg0_22_411"><stop offset="0%" stop-color="#03F5F5" stop-opacity="1"/><stop offset="100%" stop-color="#4F52FF" stop-opacity="1"/></linearGradient></defs><g><g><path d="M4.30151,9.29042Q4.46274,7.766,5.0757,6.34071Q5.87802,4.47509,7.33953,3.03769Q8.7993,1.60199,10.6918,0.814716Q12.6503,0,14.7927,0Q16.9351,0,18.8936,0.814716Q20.7862,1.60199,22.2459,3.03769Q23.7075,4.4751,24.5098,6.34071Q25.1227,7.76601,25.284,9.29045Q26.4222,9.65406,27.3363,10.553Q28.8781,12.0694,28.8781,14.2174Q28.8781,16.3654,27.3363,17.8817Q26.3048,18.8962,24.9878,19.2289L24.9878,21.6577Q24.9878,22.1957,25.3682,22.5761Q25.7486,22.9565,26.2866,22.9565Q26.8246,22.9565,27.205,22.5761Q27.5854,22.1957,27.5854,21.6577L27.5854,21.5217Q27.5854,21.4232,27.6046,21.3266Q27.6238,21.23,27.6615,21.139Q27.6992,21.048,27.7539,20.9662Q27.8086,20.8843,27.8783,20.8146Q27.9479,20.745,28.0298,20.6903Q28.1117,20.6355,28.2027,20.5978Q28.2937,20.5602,28.3903,20.5409Q28.4869,20.5217,28.5854,20.5217Q28.6839,20.5217,28.7805,20.5409Q28.8771,20.5602,28.9681,20.5978Q29.0591,20.6355,29.141,20.6903Q29.2228,20.745,29.2925,20.8146Q29.3621,20.8843,29.4169,20.9662Q29.4716,21.048,29.5093,21.139Q29.547,21.23,29.5662,21.3266Q29.5854,21.4232,29.5854,21.5217L29.5854,21.6577Q29.5854,23.0241,28.6192,23.9903Q27.653,24.9565,26.2866,24.9565Q24.9202,24.9565,23.954,23.9903Q22.9878,23.0241,22.9878,21.6577L22.9878,19.3562Q21.2328,19.1611,19.9321,17.8817Q18.3903,16.3654,18.3903,14.2174Q18.3903,12.0694,19.9321,10.553Q21.3267,9.18135,23.2435,9.05605Q22.8467,6.43375,20.8435,4.46361Q18.3386,2,14.7927,2Q11.2469,2,8.74193,4.46361Q6.73876,6.43375,6.34197,9.05606Q8.2587,9.18137,9.65333,10.553Q11.1951,12.0694,11.1951,14.2174Q11.1951,16.3654,9.65333,17.8817Q8.35257,19.161,6.59762,19.3562L6.59762,21.6577Q6.59762,23.0241,5.63143,23.9903Q4.66524,24.9565,3.29884,24.9565Q1.93244,24.9565,0.966251,23.9903Q0.0000610352,23.0241,0.0000610352,21.6577L0.0000610352,21.5217Q0.0000610351,21.4232,0.0192757,21.3266Q0.0384905,21.23,0.0761815,21.139Q0.113873,21.048,0.168591,20.9662Q0.22331,20.8843,0.292954,20.8146Q0.362598,20.745,0.444491,20.6903Q0.526383,20.6355,0.617378,20.5978Q0.708372,20.5602,0.804971,20.5409Q0.90157,20.5217,1.00006,20.5217Q1.09855,20.5217,1.19515,20.5409Q1.29175,20.5602,1.38274,20.5978Q1.47374,20.6355,1.55563,20.6903Q1.63752,20.745,1.70717,20.8146Q1.77681,20.8843,1.83153,20.9662Q1.88625,21.048,1.92394,21.139Q1.96163,21.23,1.98085,21.3266Q2.00006,21.4232,2.00006,21.5217L2.00006,21.6577Q2.00006,22.1957,2.38047,22.5761Q2.76087,22.9565,3.29884,22.9565Q3.83681,22.9565,4.21722,22.5761Q4.59762,22.1957,4.59762,21.6577L4.59762,19.2289Q3.28059,18.8962,2.24914,17.8817Q0.707337,16.3654,0.707336,14.2174Q0.707336,12.0694,2.24914,10.553Q3.16319,9.65403,4.30151,9.29042ZM8.25093,11.9789Q9.19514,12.9076,9.19514,14.2174Q9.19514,15.5272,8.25093,16.4558Q7.29977,17.3913,5.95124,17.3913Q4.60271,17.3913,3.65155,16.4558Q2.70734,15.5272,2.70734,14.2174Q2.70734,12.9076,3.65155,11.9789Q4.60271,11.0435,5.95124,11.0435Q7.29977,11.0435,8.25093,11.9789ZM25.9338,11.9789Q26.8781,12.9076,26.8781,14.2174Q26.8781,15.5272,25.9338,16.4558Q24.9827,17.3913,23.6342,17.3913Q22.2856,17.3913,21.3345,16.4558Q20.3903,15.5272,20.3903,14.2174Q20.3903,12.9076,21.3345,11.9789Q22.2856,11.0435,23.6342,11.0435Q24.9827,11.0435,25.9338,11.9789ZM6.36436,29.781Q5.53662,28.9532,5.53662,27.7826Q5.53662,27.6841,5.51741,27.5875Q5.49819,27.4909,5.4605,27.3999Q5.42281,27.3089,5.36809,27.227Q5.31337,27.1451,5.24373,27.0755Q5.17408,27.0059,5.09219,26.9511Q5.0103,26.8964,4.9193,26.8587Q4.82831,26.821,4.73171,26.8018Q4.63511,26.7826,4.53662,26.7826Q4.43813,26.7826,4.34153,26.8018Q4.24493,26.821,4.15394,26.8587Q4.06294,26.8964,3.98105,26.9511Q3.89916,27.0059,3.82951,27.0755Q3.75987,27.1451,3.70515,27.227Q3.65043,27.3089,3.61274,27.3999Q3.57505,27.4909,3.55584,27.5875Q3.53662,27.6841,3.53662,27.7826Q3.53662,29.7816,4.95015,31.1952Q6.36368,32.6087,8.36271,32.6087L8.60369,32.6087Q10.7025,32.6087,12.1867,31.1246Q13.6708,29.6405,13.6708,27.5416L13.6708,17Q13.6708,16.9015,13.6516,16.8049Q13.6323,16.7083,13.5946,16.6173Q13.557,16.5263,13.5022,16.4444Q13.4475,16.3625,13.3779,16.2929Q13.3082,16.2232,13.2263,16.1685Q13.1444,16.1138,13.0534,16.0761Q12.9625,16.0384,12.8659,16.0192Q12.7693,16,12.6708,16Q12.5723,16,12.4757,16.0192Q12.3791,16.0384,12.2881,16.0761Q12.1971,16.1138,12.1152,16.1685Q12.0333,16.2232,11.9637,16.2929Q11.894,16.3625,11.8393,16.4444Q11.7846,16.5263,11.7469,16.6173Q11.7092,16.7083,11.69,16.8049Q11.6708,16.9015,11.6708,17L11.6708,27.5416Q11.6708,28.812,10.7724,29.7104Q9.87412,30.6087,8.60369,30.6087L8.36271,30.6087Q7.1921,30.6087,6.36436,29.781ZM22.8674,29.781Q23.6952,28.9532,23.6952,27.7826Q23.6952,27.6841,23.7144,27.5875Q23.7336,27.4909,23.7713,27.3999Q23.809,27.3089,23.8637,27.227Q23.9184,27.1451,23.9881,27.0755Q24.0577,27.0059,24.1396,26.9511Q24.2215,26.8964,24.3125,26.8587Q24.4035,26.821,24.5001,26.8018Q24.5967,26.7826,24.6952,26.7826Q24.7937,26.7826,24.8903,26.8018Q24.9869,26.821,25.0779,26.8587Q25.1689,26.8964,25.2508,26.9511Q25.3327,27.0059,25.4023,27.0755Q25.4719,27.1451,25.5267,27.227Q25.5814,27.3089,25.6191,27.3999Q25.6568,27.4909,25.676,27.5875Q25.6952,27.6841,25.6952,27.7826Q25.6952,29.7816,24.2817,31.1952Q22.8681,32.6087,20.8691,32.6087L20.6281,32.6087Q18.5293,32.6087,17.0452,31.1246Q15.561,29.6405,15.561,27.5416L15.561,17Q15.561,16.9015,15.5803,16.8049Q15.5995,16.7083,15.6372,16.6173Q15.6749,16.5263,15.7296,16.4444Q15.7843,16.3625,15.8539,16.2929Q15.9236,16.2232,16.0055,16.1685Q16.0874,16.1138,16.1784,16.0761Q16.2694,16.0384,16.366,16.0192Q16.4626,16,16.561,16Q16.6595,16,16.7561,16.0192Q16.8527,16.0384,16.9437,16.0761Q17.0347,16.1138,17.1166,16.1685Q17.1985,16.2232,17.2681,16.2929Q17.3378,16.3625,17.3925,16.4444Q17.4472,16.5263,17.4849,16.6173Q17.5226,16.7083,17.5418,16.8049Q17.561,16.9015,17.561,17L17.561,27.5416Q17.561,28.812,18.4594,29.7104Q19.3577,30.6087,20.6281,30.6087L20.8691,30.6087Q22.0397,30.6087,22.8674,29.781Z" fill-rule="evenodd" fill="url(#master_svg0_22_411)" fill-opacity="1"/></g><g><g><path d="M243.5107921875,17.554428281555175L231.1414921875,17.554428281555175C231.6117821875,21.254268281555177,234.5716021875,21.805768281555174,242.3723921875,19.618568281555177C242.3723921875,20.769868281555176,242.4619921875,21.857868281555177,242.3275921875,22.916068281555177C242.2753921875,23.325868281555174,241.7826921875,23.866168281555176,241.3683921875,24.011468281555175C238.0651921875,25.162768281555177,234.6985121875,25.416168281555176,231.3691721875,24.186568281555175C227.8868121875,22.901168281555176,225.9011501875,18.828668281555174,226.6289701875,14.726438281555176C227.3493281875,10.657718281555177,230.4584621875,7.855815281555175,234.4969521875,7.635984481555176C240.27099218749998,7.319280281555176,244.1825921875,11.507228281555175,243.5107921875,17.558148281555177L243.5107921875,17.554428281555175ZM231.1116321875,14.111658281555176L239.0952921875,14.111658281555176C238.2368921875,12.136918281555175,236.7998921875,11.432708281555175,234.8814021875,11.533318281555175C233.1458121875,11.622738281555176,231.8469221875,12.330668281555177,231.1116321875,14.111658281555176Z" fill="#FFFFFF" fill-opacity="1"/></g><g><path d="M202.0919473828125,14.540164804992676C203.9544173828125,14.599784804992677,204.1373173828125,11.786704804992675,202.2785773828125,11.667474804992676C202.1852673828125,11.660014804992676,202.0882173828125,11.660014804992676,201.9874473828125,11.660014804992676C199.6770673828125,11.656294804992676,197.3629473828125,12.066144804992675,194.9405973828125,12.304604804992675C194.9816473828125,12.427564804992675,194.8771373828125,12.267344804992675,194.8808773828125,12.107134804992675C195.0227073828125,8.202349804992675,193.8208613828125,8.537683804992676,198.4752173828125,7.870741804992676C200.2219973828125,7.6211037049926755,202.0658273828125,7.6807187049926755,203.81631738281249,7.9266308049926755C207.0785173828125,8.381194804992676,208.8253173828125,10.218084804992676,208.9671173828125,13.463374804992675C209.1089173828125,16.637874804992677,209.0305173828125,19.819854804992676,209.0081173828125,23.217854804992676C209.0044173828125,24.004054804992677,208.3662173828125,24.637454804992675,207.5786173828125,24.648654804992677C204.1448173828125,24.693354804992676,200.7407973828125,24.861054804992676,197.3853373828125,24.551754804992676C194.5860073828125,24.290954804992676,193.3990939828125,22.398154804992675,193.3878971163125,19.644654804992676C193.3767002828125,16.909864804992676,194.5972073828125,15.076704804992676,197.3517473828125,14.681754804992675C198.8932473828125,14.461924804992677,200.4720673828125,14.495454804992676,202.0919473828125,14.547624804992676L202.0919473828125,14.540164804992676ZM200.9722173828125,21.701454804992675C201.0729873828125,21.712554804992678,201.1737773828125,21.716354804992676,201.2745473828125,21.705154804992674C201.9650473828125,21.649254804992676,202.6816773828125,21.727454804992675,203.1706173828125,21.433154804992675C203.8648173828125,21.019554804992676,204.3165173828125,20.300454804992675,204.3314173828125,19.681954804992678C204.34631738281252,19.063454804992674,203.9246173828125,17.979254804992678,203.2713973828125,17.848754804992677C201.9277173828125,17.576804804992676,200.4384673828125,17.591704804992673,199.1022473828125,17.893554804992675C198.4602673828125,18.038854804992674,197.6727273828125,19.078354804992678,197.6167373828125,19.763954804992675C197.5756873828125,20.274354804992676,198.5311873828125,21.004654804992676,199.1918273828125,21.380954804992676C199.6919773828125,21.667854804992675,200.3787373828125,21.634354804992675,200.9684773828125,21.697654804992673L200.9722173828125,21.701454804992675Z" fill="#FFFFFF" fill-opacity="1"/></g><g><path d="M58.09054921875,16.294983047180175C58.07194921875,21.425553047180173,54.46634921875,24.972653047180177,49.29323921875,24.954053047180174C44.14619921875,24.931753047180177,40.58544921875,21.347353047180178,40.58544921875,16.179483047180177C40.58544921875,11.212813047180177,44.25070921875,7.609829267180176,49.31189921875,7.6135552013901755C54.50744921875,7.6135552013901755,58.10924921875,11.179273047180175,58.09054921875,16.294983047180175ZM53.99984921875,16.186933047180176C53.98864921875,13.265803047180176,52.15224921875,11.469903047180175,49.22604921875,11.522063047180175C46.46030921875,11.570503047180175,44.661279218749996,13.452093047180176,44.68739921875,16.276353047180177C44.71352921875,19.201253047180174,46.60214921875,21.127553047180175,49.397739218750004,21.082853047180176C52.22324921875,21.038153047180174,54.01104921875,19.137853047180176,53.99614921875,16.190663047180173L53.99984921875,16.186933047180176Z" fill="#FFFFFF" fill-opacity="1"/></g><g><path d="M108.7734568359375,16.138478867492676C108.7921568359375,21.328668867492674,105.2910568359375,24.901868867492677,100.1366068359375,24.950368867492674C94.8999868359375,25.002468867492677,91.2645884359375,21.388368867492677,91.2757853122375,16.149658867492676C91.2869821359375,11.186708867492676,94.9671668359375,7.594910967492676,100.0283568359375,7.609814350092676C105.1529568359375,7.624718067492676,108.7548568359375,11.138278867492676,108.7734568359375,16.138478867492676ZM104.6864568359375,16.287518867492675C104.7163568359375,13.351478867492677,102.91725683593751,11.510868867492675,100.0171668359375,11.510868867492675C97.2364968359375,11.510868867492675,95.4038668359375,13.347758867492676,95.37400683593751,16.168288867492677C95.3441468359375,19.081968867492677,97.2066368359375,21.067868867492678,99.9798368359375,21.079068867492676C102.8164568359375,21.093968867492677,104.6528568359375,19.219868867492675,104.6827568359375,16.287518867492675L104.6864568359375,16.287518867492675Z" fill="#FFFFFF" fill-opacity="1"/></g><g><path d="M126.6742497178125,8.068142890930176L130.7762005078125,8.068142890930176C130.7762005078125,11.086152890930176,130.7650105078125,14.025912890930176,130.7762005078125,16.961952890930178C130.7911305078125,19.857042890930174,131.8922105078125,21.127542890930176,134.3294905078125,21.094042890930176C136.9496205078125,21.056742890930174,138.1776205078125,19.77134289093018,138.2000205078125,16.991762890930175C138.2187205078125,14.052002890930176,138.2037205078125,11.112232890930176,138.2037205078125,8.083047390930176L142.1788205078125,8.083047390930176L142.1788205078125,24.849742890930177C140.7157205078125,24.544242890930175,139.3757205078125,24.231242890930176,138.0246205078125,24.007742890930174C137.6999205078125,23.951842890930173,137.3341205078125,24.220042890930177,136.9795205078125,24.275942890930175C135.5201405078125,24.506942890930176,134.0458305078125,24.969042890930176,132.6013705078125,24.883342890930177C129.1712605078125,24.678342890930175,127.0736295078125,22.498742890930174,126.7078517078125,19.100642890930175C126.6555978078125,18.612542890930175,126.6742611078125,18.117042890930176,126.6742611078125,17.625172890930173C126.6742611078125,14.495382890930177,126.6742611078125,11.361872890930176,126.6742611078125,8.071872200930176L126.6742497178125,8.068142890930176Z" fill="#FFFFFF" fill-opacity="1"/></g><g><path d="M114.74530671875,19.499275703430175L114.74530671875,24.488275703430176L110.79638671875,24.488275703430176L110.79638671875,8.273028703430176C114.29741671875,8.273028703430176,117.83203671875,7.982405703430175,121.29578671875,8.362450703430175C124.28168671875,8.690332703430176,125.72618671875,11.164355703430175,125.51708671875,14.338855703430177C125.32678671875,17.230185703430173,123.38218671875,19.264575703430175,120.41861671875,19.473175703430176C118.58598671875001,19.599875703430175,116.73469671875,19.495575703430177,114.74530671875,19.495575703430177L114.74530671875,19.499275703430175ZM114.82369671875,15.672735703430176C116.56674671875,15.672735703430176,118.13063671875,15.855305703430176,119.61614671875,15.590765703430176C120.29918671875001,15.467815703430176,121.24348671875,14.502795703430177,121.29198671875,13.858205703430176C121.33678671875,13.276965703430175,120.39622671875,12.181535703430175,119.76171671875,12.080935703430175C118.17169671875,11.820115703430176,116.50702671875,11.995235703430176,114.82369671875,11.995235703430176L114.82369671875,15.672735703430176Z" fill="#FFFFFF" fill-opacity="1"/></g><g><path d="M181.8583005078125,24.507112031555177L177.8272705078125,24.507112031555177L177.8272705078125,8.310422031555175C181.4029405078125,8.310422031555175,184.9898305078125,8.030977031555176,188.5094705078125,8.399844031555176C191.3461705078125,8.694193031555177,192.7794705078125,11.186842031555177,192.6077705078125,14.290552031555176C192.4546705078125,17.05147203155518,190.6743705078125,19.097012031555174,187.9160705078125,19.41371203155518C185.9639905078125,19.637312031555176,183.9820605078125,19.611212031555176,181.8583005078125,19.704312031555176L181.8583005078125,24.510812031555176L181.8583005078125,24.507112031555177ZM181.9068305078125,15.725032031555177C183.5229705078125,15.725032031555177,184.9338305078125,15.792102031555176,186.3372305078125,15.702682031555176C187.4457705078125,15.631882031555175,188.4348705078125,15.181052031555176,188.4759705078125,13.873242031555176C188.5169705078125,12.576622031555175,187.6249305078125,12.010272031555175,186.4753405078125,11.943212031555175C184.9711705078125,11.857512031555176,183.4558005078125,11.920852031555176,181.9068405078125,11.920852031555176L181.9068405078125,15.721312031555176L181.9068305078125,15.725032031555177Z" fill="#FFFFFF" fill-opacity="1"/></g><g><path d="M156.112040234375,10.817885312805176C156.126940234375,11.935665312805176,155.059440234375,12.759105312805175,153.977040234375,12.468475312805175C152.659500234375,12.110785312805175,151.386740234375,11.779175312805176,150.091580234375,11.581705312805177C150.002010234375,11.566805312805176,149.904960234375,11.570525312805175,149.811650234375,11.585435312805176C148.669520234375,11.775455312805175,148.509030234375,13.351525312805176,149.527980234375,13.895515312805177C149.576500234375,13.921595312805175,149.621290234375,13.943945312805177,149.669810234375,13.966305312805176C151.080680234375,14.581085312805175,152.614720234375,14.912695312805177,154.018140234375,15.534925312805175C156.041140234375,16.429145312805176,156.977940234375,18.06852531280518,156.806240234375,20.281725312805175C156.645740234375,22.342225312805176,155.391640234375,23.840025312805174,153.189500234375,24.469725312805174C150.423760234375,25.259625312805177,147.650560234375,25.121725312805175,144.974400234375,24.126925312805177C144.466790234375,23.936925312805176,143.959172234375,23.154425312805174,143.865861134375,22.576925312805177C143.765089364375,21.962125312805178,143.761353274375,21.336225312805176,143.780010924375,20.658125312805176C143.798668534375,19.924125312805174,144.552629234375,19.432225312805176,145.228200234375,19.722925312805174C145.381230234375,19.789925312805174,145.530530234375,19.845825312805175,145.687290234375,19.894225312805176C147.094420234375,20.330225312805176,148.509020234375,20.900225312805176,149.949750234375,21.000825312805176C149.957210234375,21.000825312805176,149.968400234375,21.000825312805176,149.975880234375,21.000825312805176C151.457660234375,21.082825312805177,151.976460234375,18.996325312805176,150.647710234375,18.344325312805175C150.629050234375,18.336825312805175,150.614120234375,18.325625312805176,150.595450234375,18.318225312805176C149.318950234375,17.725725312805174,147.885700234375,17.464955312805174,146.583080234375,16.906065312805175C144.687003234375,16.097545312805174,143.750156434375,14.588535312805176,143.821073734375,12.520645312805176C143.891991234375,10.452745312805176,144.952000234375,9.055525312805177,146.874210234375,8.314059312805176C149.673540234375,7.237263312805176,152.472870234375,7.445916312805176,155.219940234375,8.489178312805176C155.600640234375,8.634485312805175,156.007440234375,9.234365312805176,156.048540234375,9.655395312805176C156.085840234375,10.042895312805175,156.104540234375,10.430395312805176,156.108240234375,10.814165312805176L156.112040234375,10.817885312805176Z" fill="#FFFFFF" fill-opacity="1"/></g><g><path d="M163.1663379390625,20.851781172180175C163.1775347390625,20.084281172180177,163.9202865390625,19.536581172180178,164.6593125390625,19.748981172180176C166.2344025390625,20.203481172180176,167.7161825390625,20.631981172180176,169.2054225390625,21.015781172180176C169.6607825390625,21.131281172180174,170.2355825390625,21.112681172180174,170.6610725390625,20.937481172180178C170.7730425390625,20.892781172180175,170.8775525390625,20.833181172180176,170.9820625390625,20.769881172180177C171.6912225390625,20.322781172180175,171.8144025390625,19.294381172180174,171.1574825390625,18.78018117218018C171.0903025390625,18.728081172180175,171.0156525390625,18.683281172180173,170.9372725390625,18.653481172180175C169.3920325390625,18.034981172180174,167.7311025390625,17.688501172180175,166.1970625390625,17.051371172180176C163.1439327390625,15.780821172180175,162.0465925390625,11.987821172180176,164.3047125390625,9.774611172180176C165.4356425390625,8.668012172180175,167.2944025390625,7.8930181721801755,168.8956125390625,7.758884172180176C170.6722625390625,7.609847172180176,172.4936925390625,7.982440172180175,174.3002025390625,8.261885172180175C174.9384025390625,8.358760172180176,175.4087025390625,8.902751172180176,175.4087025390625,9.547331172180176L175.4087025390625,11.313431172180175C175.4087025390625,12.200201172180176,174.5503025390625,12.792621172180176,173.6993025390625,12.546711172180176C173.6918025390625,12.546711172180176,173.6881025390625,12.546711172180176,173.6806025390625,12.542991172180177C172.2622925390625,12.144311172180176,170.8290325390625,11.704651172180176,169.3771125390625,11.566791172180176C169.3248525390625,11.563061172180175,169.2726025390625,11.563061172180175,169.2166225390625,11.566791172180176C168.0297125390625,11.659941172180176,167.7908225390625,13.291901172180175,168.8284425390625,13.876871172180175C168.8732325390625,13.902951172180176,168.9180225390625,13.925311172180177,168.9665425390625,13.947661172180176C170.2579625390625,14.525181172180176,171.7584125390625,14.692851172180177,172.9639825390625,15.385881172180175C174.0763025390625,16.026741172180174,175.2632025390625,16.969401172180177,175.8081025390625,18.072281172180176C177.0323025390625,20.561181172180177,175.7820025390625,23.202881172180177,173.1618025390625,24.227481172180177C170.1870425390625,25.389981172180175,167.1861625390625,25.129181172180175,164.2561925390625,24.082181172180174C163.7896375390625,23.914581172180174,163.3193465390625,23.158181172180175,163.2484295390625,22.621681172180175C163.1700512390625,22.032981172180175,163.1588543390625,21.433081172180174,163.1663151390625,20.859281172180175L163.1663379390625,20.851781172180175Z" fill="#FFFFFF" fill-opacity="1"/></g><g><path d="M75.737548828125,9.834304492492675Q76.540023828125,9.778414492492676,78.107648828125,9.834304492492675L78.107648828125,8.057034492492676L82.172278828125,8.057034492492676L82.172278828125,9.838034492492676L90.420948828125,9.838034492492676L90.420948828125,13.679474492492677L82.172278828125,13.679474492492677C82.172278828125,15.378494492492676,82.265588828125,16.846514492492673,82.321578828125,18.314534492492676C82.388758828125,20.080634492492678,83.370388828125,21.146234492492674,85.150768828125,21.012134492492677C86.897548828125,20.877934492492678,88.618248828125,20.412234492492676,90.409748828125,20.080634492492678L90.409748828125,24.074834492492677C87.058048828125,24.976534492492675,83.616738828125,25.900534492492675,80.481488828125,23.653834492492678C77.077498828125,21.213334492492677,78.551808828125,17.152044492492678,78.107648828125,13.683194492492674C77.394748828125,13.582594492492674,76.629604828125,13.675744492492676,75.737551675755,13.549064492492676L75.737548828125,9.834304492492675Z" fill="#FFFFFF" fill-opacity="1"/></g><g><path d="M162.4234992578125,22.759511797180174C162.2630092578125,23.955541797180175,161.5538492578125,24.846031797180174,160.0981892578125,24.939181797180176C158.7358492578125,25.028611797180176,157.5489346578125,23.892191797180175,157.6235766778125,22.558311797180174C157.7019547578125,21.153633797180177,158.4745732578125,20.285491197180175,159.9302192578125,20.192342797180174C161.2888392578125,20.106646397180175,162.4272292578125,21.235601797180177,162.4197692578125,22.755791797180176L162.4234992578125,22.759511797180174Z" fill="#FFFFFF" fill-opacity="1"/></g><g><path d="M68.1868236328125,21.250548945617673C65.4509436328125,21.250548945617673,63.233873632812504,19.033548945617675,63.233873632812504,16.302488945617675C63.233873632812504,13.571378945617676,65.4509436328125,11.358168945617676,68.1868236328125,11.358168945617676C69.92617363281249,11.358168945617676,71.4564736328125,12.248668945617677,72.3372736328125,13.601178945617676L74.5356736328125,9.912508945617676C72.9083736328125,8.299173945617676,70.6651736328125,7.304348945617676,68.1868236328125,7.304348945617676C63.2077436328125,7.304348945617676,59.1729736328125,11.332088945617675,59.1729736328125,16.302488945617675C59.1729736328125,21.272848945617675,63.2077436328125,25.304348945617676,68.1868236328125,25.304348945617676C70.3628736328125,25.304348945617676,72.35597363281249,24.533048945617676,73.9160736328125,23.251348945617675L71.6766736328125,19.816048945617673C70.7808736328125,20.702848945617674,69.5491736328125,21.250548945617673,68.1868236328125,21.250548945617673Z" fill="#FFFFFF" fill-opacity="1"/></g><g><path d="M220.1345775390625,21.250548945617673C217.3986975390625,21.250548945617673,215.1816275390625,19.033548945617675,215.1816275390625,16.302488945617675C215.1816275390625,13.571378945617676,217.3986975390625,11.358168945617676,220.1345775390625,11.358168945617676C221.8739275390625,11.358168945617676,223.4042275390625,12.248668945617677,224.2850275390625,13.601178945617676L226.4834275390625,9.912508945617676C224.8561275390625,8.299173945617676,222.6129275390625,7.304348945617676,220.1345775390625,7.304348945617676C215.1554975390625,7.304348945617676,211.1207275390625,11.332088945617675,211.1207275390625,16.302488945617675C211.1207275390625,21.272848945617675,215.1554975390625,25.304348945617676,220.1345775390625,25.304348945617676C222.3106275390625,25.304348945617676,224.3037275390625,24.533048945617676,225.8638275390625,23.251348945617675L223.6244275390625,19.816048945617673C222.7286275390625,20.702848945617674,221.4969275390625,21.250548945617673,220.1345775390625,21.250548945617673Z" fill="#FFFFFF" fill-opacity="1"/></g></g></g></svg>