<svg xmlns="http://www.w3.org/2000/svg" xmlns:xlink="http://www.w3.org/1999/xlink" fill="none" version="1.1" width="36" height="36" viewBox="0 0 36 36"><defs><clipPath id="master_svg0_761_0970"><rect x="11" y="14" width="14" height="9" rx="0"/></clipPath><mask id="master_svg1_761_0973" style="mask-type:alpha" maskUnits="userSpaceOnUse"><g><rect x="11" y="14" width="14" height="9" rx="0" fill="#FFFFFF" fill-opacity="1"/></g></mask></defs><g><g><rect x="0" y="0" width="36" height="36" rx="8" fill="#2B2975" fill-opacity="0.5400000214576721"/></g><g clip-path="url(#master_svg0_761_0970)"><g><g mask="url(#master_svg1_761_0973)"><g><path d="M21.8184,18.494301796875L24.7675,15.387371796875C25.0577,15.069881796875,25.053,14.566084796875,24.757199999999997,14.254288796875C24.4615,13.942677296875,23.9833,13.937900196875,23.681800000000003,14.243448796875L20.418779999999998,17.445921796874998L15.57337,17.445921796874998L12.31054,14.243264796875C12.11662,14.039137396875,11.833931,13.959397096875,11.569033,14.034176596875C11.304136,14.108955796875,11.097135,14.327047796875,11.0261584,14.606138796875C10.9551819,14.885229796875,11.0310414,15.183061796875,11.224963,15.387191796875L14.17389,18.494121796875L11.224963,21.601421796875C11.0809168,21.753001796875,11,21.958781796875,11,22.173381796875C11,22.387981796875,11.0809168,22.593771796875,11.224963,22.745351796875C11.368834,22.897111796875002,11.56415,22.982361796875,11.767663,22.982361796875C11.971176,22.982361796875,12.16649,22.897111796875002,12.31036,22.745351796875L15.57319,19.542871796874998L20.418779999999998,19.542871796874998L23.6816,22.745351796875C23.825499999999998,22.897111796875002,24.0208,22.982361796875,24.2245,22.982361796875C24.4282,22.982361796875,24.6235,22.897111796875002,24.767400000000002,22.745351796875C24.9114,22.593771796875,24.9923,22.387981796875,24.9923,22.173381796875C24.9923,21.958781796875,24.9114,21.753001796875,24.767400000000002,21.601421796875L21.8184,18.494301796875Z" fill="#FFFFFF" fill-opacity="0.699999988079071"/></g></g></g></g></g></svg>