<svg xmlns="http://www.w3.org/2000/svg" xmlns:xlink="http://www.w3.org/1999/xlink" fill="none" version="1.1" width="40" height="40" viewBox="0 0 40 40"><defs><mask id="master_svg0_22_5728" style="mask-type:alpha" maskUnits="userSpaceOnUse"><g><ellipse cx="20" cy="20" rx="13" ry="13" fill="#FFFFFF" fill-opacity="1"/></g></mask></defs><g><g><ellipse cx="20" cy="20" rx="20" ry="20" fill="#FFFFFF" fill-opacity="0.05999999865889549"/></g><g mask="url(#master_svg0_22_5728)"><g><path d="M27.418816007995606,14.627232976837158C27.418816007995606,14.627232976837158,28.828116007995604,13.273130976837159,28.828116007995604,13.273130976837159C28.828116007995604,13.273130976837159,28.828116007995604,12.976562976837158,28.828116007995604,12.976562976837158C28.828116007995604,12.976562976837158,23.947316007995603,12.976562976837158,23.947316007995603,12.976562976837158C23.947316007995603,12.976562976837158,20.468996007995607,21.675902976837158,20.468996007995607,21.675902976837158C20.468996007995607,21.675902976837158,16.512446007995607,12.976562976837158,16.512446007995607,12.976562976837158C16.512446007995607,12.976562976837158,11.394917007995605,12.976562976837158,11.394917007995605,12.976562976837158C11.394917007995605,12.976562976837158,11.394917007995605,13.273130976837159,11.394917007995605,13.273130976837159C11.394917007995605,13.273130976837159,13.040986007995606,15.264052976837158,13.040986007995606,15.264052976837158C13.201916007995605,15.411182976837157,13.284676007995605,15.627282976837158,13.263986007995605,15.843392976837158C13.263986007995605,15.843392976837158,13.263986007995605,23.66686297683716,13.263986007995605,23.66686297683716C13.314566007995605,23.949562976837157,13.224906007995605,24.23696297683716,13.027196007995606,24.441562976837158C13.027196007995606,24.441562976837158,11.171916007995605,26.701462976837156,11.171916007995605,26.701462976837156C11.171916007995605,26.701462976837156,11.171916007995605,26.993462976837158,11.171916007995605,26.993462976837158C11.171916007995605,26.993462976837158,16.427386007995604,26.993462976837158,16.427386007995604,26.993462976837158C16.427386007995604,26.993462976837158,16.427386007995604,26.69686297683716,16.427386007995604,26.69686297683716C16.427386007995604,26.69686297683716,14.574406007995606,24.44386297683716,14.574406007995606,24.44386297683716C14.373166007995605,24.239562976837156,14.278786007995606,23.95306297683716,14.319216007995605,23.669162976837157C14.319216007995605,23.669162976837157,14.319216007995605,16.90092297683716,14.319216007995605,16.90092297683716C14.319216007995605,16.90092297683716,18.933276007995605,26.998062976837158,18.933276007995605,26.998062976837158C18.933276007995605,26.998062976837158,19.468936007995605,26.998062976837158,19.468936007995605,26.998062976837158C19.468936007995605,26.998062976837158,23.437016007995606,16.90092297683716,23.437016007995606,16.90092297683716C23.437016007995606,16.90092297683716,23.437016007995606,24.945062976837157,23.437016007995606,24.945062976837157C23.437016007995606,25.156562976837158,23.437016007995606,25.20026297683716,23.299016007995604,25.34046297683716C23.299016007995604,25.34046297683716,21.871416007995606,26.726762976837158,21.871416007995606,26.726762976837158C21.871416007995606,26.726762976837158,21.871416007995606,27.023362976837156,21.871416007995606,27.023362976837156C21.871416007995606,27.023362976837156,28.795916007995604,27.023362976837156,28.795916007995604,27.023362976837156C28.795916007995604,27.023362976837156,28.795916007995604,26.726762976837158,28.795916007995604,26.726762976837158C28.795916007995604,26.726762976837158,27.418816007995606,25.37266297683716,27.418816007995606,25.37266297683716C27.299216007995607,25.280662976837156,27.237216007995606,25.12666297683716,27.262516007995604,24.97726297683716C27.262516007995604,24.97726297683716,27.262516007995604,15.022652976837158,27.262516007995604,15.022652976837158C27.238216007995604,14.872162976837158,27.298216007995606,14.720452976837159,27.418816007995606,14.627232976837158C27.418816007995606,14.627232976837158,27.418816007995606,14.627232976837158,27.418816007995606,14.627232976837158Z" fill="#FFFFFF" fill-opacity="0.7699999809265137"/></g></g></g></svg>