<svg xmlns="http://www.w3.org/2000/svg" xmlns:xlink="http://www.w3.org/1999/xlink" fill="none" version="1.1" width="32" height="32" viewBox="0 0 32 32"><defs><clipPath id="master_svg0_559_4319"><rect x="8" y="7" width="16" height="18" rx="0"/></clipPath></defs><g><g transform="matrix(0,-1,1,0,-32,32)"><ellipse cx="16" cy="48" rx="16" ry="16" fill="#6E66FA" fill-opacity="1"/></g><g transform="matrix(1,-2.2348338291067193e-8,2.2348338291067193e-8,1,-1.5643836803747035e-7,1.7878670632853755e-7)" clip-path="url(#master_svg0_559_4319)"><g><path d="M21.22309375,17.3232421875L10.98874075,17.3232421875C10.92376615,17.3232421875,10.87109375,17.3824970875,10.87109375,17.4555961875L10.87109375,18.4487721875C10.87109375,18.5207721875,10.92379975,18.5800621875,10.98874075,18.5800621875L19.888503749999998,18.5800621875L17.76709375,21.6083021875C17.73963375,21.6483021875,17.73462375,21.702332187499998,17.75415375,21.747842187499998C17.77369375,21.7933621875,17.81440375,21.8225521875,17.85932375,21.8232421875L18.925683749999997,21.8232421875C18.99793375,21.8235121875,19.06629375,21.7864321875,19.111093750000002,21.7226521875L21.592993749999998,18.1798301875C21.704293749999998,18.0204911875,21.72499375,17.8036271875,21.646293749999998,17.6213231875C21.56749375,17.4389861875,21.40319375,17.3232421875,21.22309375,17.3232421875Z" fill="#FFFFFF" fill-opacity="1"/></g><g><path d="M10.97274075,13.81967953125C10.86150909,13.97886953125,10.84073085,14.19548953125,10.91921475,14.37770953125C10.99769875,14.559929531249999,11.16169575,14.675829531249999,11.34168175,14.67626953125L21.57699375,14.67626953125C21.641993749999997,14.67626953125,21.69459375,14.617019531250001,21.69459375,14.543919531250001L21.69459375,13.55073953125C21.69459375,13.47763953125,21.641993749999997,13.41838953125,21.57699375,13.41838953125L12.67815375,13.41838953125L14.80050375,10.39121153125C14.82816375,10.35090653125,14.83302375,10.29640453125,14.81302375,10.25072733125C14.79301375,10.20504993125,14.75165375,10.17616378825,14.70638375,10.17626953125L13.64003375,10.17626953125C13.56778375,10.17599487325,13.49942375,10.21308133125,13.45462375,10.27685853125L10.97274075,13.81967953125Z" fill="#FFFFFF" fill-opacity="0.5"/></g></g></g></svg>