<svg xmlns="http://www.w3.org/2000/svg" xmlns:xlink="http://www.w3.org/1999/xlink" fill="none" version="1.1" width="36" height="36" viewBox="0 0 36 36"><g><g><rect x="0" y="0" width="36" height="36" rx="8" fill="#6E66FA" fill-opacity="1"/></g><g transform="matrix(-1,-1.32503330974032e-7,1.32503330974032e-7,-1,49.999996687416726,50.000003312583274)"><path d="M38.9483,33.51616L25.158518,33.51616C25.0709708,33.51616,25,33.58677,25,33.67387L25,34.8573C25,34.94309,25.071016,35.0137,25.158518,35.0137L37.15,35.0137L34.29166,38.6221C34.25466,38.6697,34.24791,38.7341,34.27423,38.7883C34.30055,38.8426,34.35541,38.8774,34.41594,38.8782L35.8527,38.8782C35.9501,38.8785,36.0422,38.8343,36.1026,38.7583L39.446600000000004,34.53684C39.5967,34.34698,39.6246,34.088570000000004,39.5185,33.87135C39.4124,33.65408,39.1909,33.51616,38.9483,33.51616ZM39.4251,28.86318L27.434829999999998,28.86318L30.29448,25.256117C30.33175,25.208091,30.33829,25.143148,30.31134,25.088721C30.284390000000002,25.0342936,30.228659999999998,24.999874,30.16767,25.00000163636L28.73087,25.00000163636C28.63351,24.999672728,28.5414,25.0438635,28.48104,25.119859L25.136959,29.34135C24.9870856,29.53104,24.9590891,29.78915,25.0648382,30.00628C25.170587,30.22341,25.391557,30.36151,25.63407,30.36203L39.4251,30.36203C39.5126,30.36203,39.583600000000004,30.29142,39.583600000000004,30.20432L39.583600000000004,29.02089C39.583600000000004,28.933790000000002,39.5126,28.86319,39.4251,28.86318Z" fill="#FFFFFF" fill-opacity="1"/></g></g></svg>