<svg xmlns="http://www.w3.org/2000/svg" xmlns:xlink="http://www.w3.org/1999/xlink" fill="none" version="1.1" width="40" height="40" viewBox="0 0 40 40"><g><g><ellipse cx="20" cy="20" rx="20" ry="20" fill="#FFFFFF" fill-opacity="0.05999999865889549"/></g><g><path d="M15.961055258789063,16.783207710876464C18.873095258789064,18.261017710876466,21.33209525878906,18.173797710876464,21.33209525878906,18.173797710876464C21.33209525878906,18.173797710876464,20.399395258789063,14.908067710876464,23.282315258789062,13.459289710876465C26.165315258789065,12.010559710876464,28.149415258789062,14.452587710876465,28.149415258789062,14.452587710876465C28.149415258789062,14.452587710876465,28.653415258789064,14.314487710876465,29.02641525878906,14.176407710876465C29.402015258789064,14.038327710876464,29.942215258789062,13.791198710876465,29.942215258789062,13.791198710876465C29.942215258789062,13.791198710876465,29.053115258789063,15.385317710876464,29.053115258789063,15.385317710876464C29.053115258789063,15.385317710876464,30.421915258789063,15.239947710876464,30.421915258789063,15.239947710876464C30.421915258789063,15.239947710876464,30.252315258789064,15.487057710876465,29.70481525878906,15.990967710876465C29.157315258789062,16.494907710876465,28.93201525878906,16.756517710876466,28.93201525878906,16.756517710876466C28.93201525878906,16.756517710876466,29.128215258789062,20.688507710876465,27.06651525878906,23.714467710876463C25.00491525878906,26.740267710876466,22.342315258789064,28.557267710876467,18.473355258789063,28.940067710876463C14.604365258789063,29.322867710876466,12.084808358789063,27.748167710876466,12.084808358789063,27.748167710876466C12.084808358789063,27.748167710876466,13.775835258789062,27.651267710876464,14.853915258789062,27.236967710876463C15.931995258789062,26.822667710876466,17.482515258789064,25.732467710876463,17.482515258789064,25.732467710876463C17.482515258789064,25.732467710876463,15.277875258789063,25.051767710876465,14.485675258789062,24.283767710876464C13.693455258789063,23.518167710876465,13.497225258789062,23.062767710876464,13.497225258789062,23.062767710876464C13.497225258789062,23.062767710876464,15.672755258789064,23.033667710876465,15.672755258789064,23.033667710876465C15.672755258789064,23.033667710876465,13.383345258789063,21.812637710876466,12.734085258789062,20.845977710876465C12.084808358789063,19.879367710876465,12.000015258789062,18.944197710876466,12.000015258789062,18.944197710876466C12.000015258789062,18.944197710876466,13.674085258789063,19.622557710876464,13.674085258789063,19.622557710876464C13.674085258789063,19.622557710876464,12.283462258789063,17.723177710876463,12.084808358789063,16.245357710876466C11.886139258789063,14.767537710876464,12.339203258789063,13.972900710876464,12.339203258789063,13.972900710876464C12.339203258789063,13.972900710876464,13.049025258789062,15.305347710876465,15.961055258789063,16.783207710876464C15.961055258789063,16.783207710876464,15.961055258789063,16.783207710876464,15.961055258789063,16.783207710876464Z" fill="#FFFFFF" fill-opacity="0.7699999809265137"/></g></g></svg>